<mxfile host="app.diagrams.net" modified="2024-04-22T00:25:25.110Z" agent="Mozilla/5.0 (Windows NT 10.0; Win64; x64) AppleWebKit/537.36 (KHTML, like Gecko) Chrome/123.0.0.0 Safari/537.36" etag="uPs6ANdYU1kgq_DhCLGi" version="24.0.5" type="github">
  <diagram name="Página-1" id="EE52QMdr5axQ3j1lZ7j1">
    <mxGraphModel dx="2261" dy="756" grid="1" gridSize="10" guides="1" tooltips="1" connect="1" arrows="1" fold="1" page="1" pageScale="1" pageWidth="827" pageHeight="1169" math="0" shadow="0">
      <root>
        <mxCell id="0" />
        <mxCell id="1" parent="0" />
        <mxCell id="OsdIBWx6J7-D4pMph346-1" value="" style="rounded=0;whiteSpace=wrap;html=1;fillColor=#000000;" vertex="1" parent="1">
          <mxGeometry x="-1" y="60" width="661" height="430" as="geometry" />
        </mxCell>
        <mxCell id="OsdIBWx6J7-D4pMph346-2" value="" style="rounded=0;whiteSpace=wrap;html=1;fillColor=#000000;" vertex="1" parent="1">
          <mxGeometry width="660" height="60" as="geometry" />
        </mxCell>
        <mxCell id="OsdIBWx6J7-D4pMph346-3" value="&lt;font style=&quot;background-color: rgb(0, 0, 0);&quot; color=&quot;#ffffff&quot;&gt;inicio&amp;nbsp; &amp;nbsp; &amp;nbsp; &amp;nbsp; sobre&amp;nbsp; &amp;nbsp; &amp;nbsp; &amp;nbsp;especialidades&amp;nbsp; &amp;nbsp; &amp;nbsp; projetos&lt;/font&gt;" style="rounded=0;whiteSpace=wrap;html=1;fillColor=#000000;" vertex="1" parent="1">
          <mxGeometry x="269" width="290" height="60" as="geometry" />
        </mxCell>
        <mxCell id="OsdIBWx6J7-D4pMph346-4" value="&lt;font color=&quot;#ffffff&quot;&gt;contato&lt;/font&gt;" style="rounded=0;whiteSpace=wrap;html=1;fillColor=#FFB570;" vertex="1" parent="1">
          <mxGeometry x="560" width="100" height="60" as="geometry" />
        </mxCell>
        <mxCell id="OsdIBWx6J7-D4pMph346-5" value="&lt;font style=&quot;background-color: rgb(0, 0, 0);&quot; color=&quot;#ffffff&quot;&gt;LOGO&lt;/font&gt;" style="rounded=0;whiteSpace=wrap;html=1;fillColor=#000000;" vertex="1" parent="1">
          <mxGeometry x="-1" width="120" height="60" as="geometry" />
        </mxCell>
        <mxCell id="OsdIBWx6J7-D4pMph346-7" value="Nome" style="text;html=1;align=center;verticalAlign=middle;whiteSpace=wrap;rounded=0;fillColor=none;fontColor=#FFFFFF;" vertex="1" parent="1">
          <mxGeometry x="120" y="110" width="60" height="30" as="geometry" />
        </mxCell>
        <mxCell id="OsdIBWx6J7-D4pMph346-8" value="Algumas informações" style="text;html=1;align=center;verticalAlign=middle;whiteSpace=wrap;rounded=0;fontColor=#FFFFFF;" vertex="1" parent="1">
          <mxGeometry x="90" y="150" width="120" height="30" as="geometry" />
        </mxCell>
        <mxCell id="OsdIBWx6J7-D4pMph346-9" value="foto se mexendo" style="ellipse;whiteSpace=wrap;html=1;aspect=fixed;fillColor=#FFB570;" vertex="1" parent="1">
          <mxGeometry x="500" y="100" width="80" height="80" as="geometry" />
        </mxCell>
        <mxCell id="OsdIBWx6J7-D4pMph346-10" value="minhas especialidades" style="text;html=1;align=center;verticalAlign=middle;whiteSpace=wrap;rounded=0;fontColor=#FFFFFF;" vertex="1" parent="1">
          <mxGeometry x="294" y="210" width="120" height="30" as="geometry" />
        </mxCell>
        <mxCell id="OsdIBWx6J7-D4pMph346-11" value="" style="rounded=0;whiteSpace=wrap;html=1;fillColor=#FFB570;" vertex="1" parent="1">
          <mxGeometry x="180" y="280" width="70" height="110" as="geometry" />
        </mxCell>
        <mxCell id="OsdIBWx6J7-D4pMph346-12" value="" style="rounded=0;whiteSpace=wrap;html=1;fillColor=#FFB570;" vertex="1" parent="1">
          <mxGeometry x="319" y="280" width="70" height="110" as="geometry" />
        </mxCell>
        <mxCell id="OsdIBWx6J7-D4pMph346-13" value="" style="rounded=0;whiteSpace=wrap;html=1;fillColor=#FFB570;" vertex="1" parent="1">
          <mxGeometry x="460" y="280" width="70" height="110" as="geometry" />
        </mxCell>
        <mxCell id="OsdIBWx6J7-D4pMph346-14" value="" style="rounded=0;whiteSpace=wrap;html=1;fillColor=#000000;" vertex="1" parent="1">
          <mxGeometry x="-1" y="490" width="661" height="430" as="geometry" />
        </mxCell>
        <mxCell id="OsdIBWx6J7-D4pMph346-15" value="foto" style="ellipse;whiteSpace=wrap;html=1;fillColor=#FFB570;" vertex="1" parent="1">
          <mxGeometry x="90" y="490" width="120" height="210" as="geometry" />
        </mxCell>
        <mxCell id="OsdIBWx6J7-D4pMph346-16" value="mais algumas informações" style="rounded=0;whiteSpace=wrap;html=1;fillColor=#FFB570;" vertex="1" parent="1">
          <mxGeometry x="309" y="517.5" width="250" height="155" as="geometry" />
        </mxCell>
        <mxCell id="OsdIBWx6J7-D4pMph346-17" value="" style="shape=image;verticalLabelPosition=bottom;verticalAlign=top;imageAspect=0;aspect=fixed;image=data:image/png,iVBORw0KGgoAAAANSUhEUgAAAgAAAAIACAYAAAD0eNT6AAAABHNCSVQICAgIfAhkiAAAAAlwSFlzAABOvQAATr0Bc2poFAAAABl0RVh0U29mdHdhcmUAd3d3Lmlua3NjYXBlLm9yZ5vuPBoAACAASURBVHic7d13nB5Vvcfxz6YXSkhCSABJAEEIEHoHRYpUuYKAoPSOgDSlqFwFFC5XLAhIly7S4SJSpPdepfcSSiqB9GQ394+z64Zkd595njlnfufMfN+v1/e1uTHsPfObeWbOMzPnnCZEJEVNwMLAIGBw68+5/9z2sy/QG+jVQTr7+9nAzHkyo4u/mwFMBMYB41szbp6fE1p/r4hEosm6ASIynz7AcGAEsHTrzxHA4rRf3AcCPUxa15g5wCTaOwRjgPda8+5cPz83aZ1IBakDIFK8brgLe9vFfd6fQ6nuZ3MS83cK3mvNm8A0m2aJlE9VTzIiRRkCrDJXRgEjgX6WjUpUC/AW8BLwYuvPl4B3Wv83EamDOgAifvTFXdhH8dUL/mKWjaqIKcDLtHcI2joI4ywbJRI7dQBEGrMssAGwYevPlXC39iUeo4FHgUdafz6HXkQU+Q91AERq6wWsQfvFfkP0zT5FU4GnaO8QPIobvSBSSeoAiMxvILAR7Rf8tXBv5ku5zAFepf0uwcO4dwxEKkEdABF3635NYGtgK2AdoLtpi8TKO8DtwB3Afbj3C0RKSR0AqaohwHdwF/3v4MbWi8xtBvAQrjNwB+5FQ5HSUAdAqqI7sB7uG/7WuGf6Ov6lHh/iOgK3A/cAX9g2RyQfnQClzHrjLvi7ANsAA2ybIyUyG3d34HrgBuAz2+aI1E8dACmb3sCWuIv+9sCCts2RCmgBHgSuBW5EnQFJhDoAUgZtF/2dcRf9hWybIxXWAjwAXIe7MzDGtjkinVMHQFLVG/fyXts3fV30JTbNtHcGbkSdARGRXNYEzsWtGjdHURLJbNzLgzsCPRGJgO4ASAoGAD8C9gdWM26LSF5jgMuAi4A3jNsiFaYOgMTsm7iL/k64xXZEyuZBXEfgerTUsRRMHQCJzRBgL9yFf3njtogU5XPgKlxn4HnjtkhFqAMgsdgMOAT3Qp+ekUqVPQNcAFyB7gpIQOoAiKWewK7AMcCqxm0Ric044C/AOWgEgQSgDoBYGAAcBPwEWNy4LSKxm4G7G/AH3OqFIiLJWRo4E/gS+2FZipJaWoDbgE0REUnEerjJUGZjfxJVlDLkOWB39L6MiERqe+AR7E+WilLWfAT8DOiPiEgEtgWexv7kqChVyRjgp0A/REQMbAU8gf3JUFGqmk+BI4E+iIgUYHPgUexPfoqiuHwMHI5bNEtExLtNcFOZWp/sFEXpOB/iJtjqhYiIBxsD92F/clMUJVveBw5AowZkLpoISOqxAvB7YBvrhohIQ97GjRq4ybohYq+bdQMkCQOBPwMvoYu/SMqWBW7E3cHT0toV1926ARK1HsBhwA245/3qMIqUwwjgQGAp3MidKaatERPqAEhntgFuBvYA+hq3RUT8awLWwK3LMQd4Cmg2bZEUSu8AyLxG4hYd2dK6ISJSqHeBY4HrrRsixdAtXWkzCLfs6Ivo4i9SRUvj1ux4EHdnQEpOjwAEYD/gVuCbqFMoUnXDce8HLAY8hFuOWEpIjwCqbTngAtwLfiIi8xoNHArcYt0Q8U/f9qqpB3AC7nb/JrZNEZGILYF7Gfh6YJhxW8Qz3QGonrWBi4BR1g2RQs3G3cqd2fqzsz/PxHUQe+Omj+3dxZ81vWy1fI57SfAi3KgBSZw6ANXRH/gN8BN05yd1zbhbsx8D44Fx8/zs6O9mBWhHN2AR3Aukg+f5Oe/fLYYbc65V6tL3IG5a4TesGyL5qANQDVsB5+Fe7pH4NQMfAe/Nlffn+vOHuG/0qWnCdQRGtGb4XH9u+78150QaZgCnAP9LmM6lFEAdgHIbCJwF/NC6IdKhFuAt4AXc+xgv4qZbTvUC78NiuLkoRs2VlVDHIFYvAfsCT1s3ROqnDkB5bQ5cinuJR+xNpP0i33bBfxmYatmoRHQHvo7rDKxKe8dAd7TiMAv4NfA/uE6tJEIdgPLpDZwKHIX2r5U5wCvAo8AjrXnLtEXlNAjYoDUb4l5w1TsGdh7GTR3+nnE7JCNdIMplZeAq9IZ/0aYCT+Iu9I8Cj+G+8UuxegGr4zoDG+I6BkNNW1Q9X+DmDbjSuiEiVdEEHAFMw337VMJmBnA3bl31tXHD5iROywB7AX8DxmJ/7FQlfwcGZNg/IpLDMOBO7D/wZc9bwNnAdrghlZKebsA6wIm4uzWzsT+uypwPgG9n2jMiUrcdceO8rT/oZcxk3PoIhwLLZt0hkpQBwM64iW0+wv6YK2OacUMFNWmUiCd9aZ+NS/GXicBfcfMm6IRVPaNwY9vfwP5YLFueA5bPvitEpCPLAs9j/4EuSyYBlwPboou+tFsNOA14G/tjtCyZhLtrKSIN+C7uW6r1Bzn1fIEbLbE9btikSFfWxN3Gfhf7Y7cMOR0tRS+SWTfcPP4t2H94U80s3KpmO6Kx4tK4dYEzcesrWB/TKedeYEidtRepnEHAXdh/YFPNm8DxaDy4+NUb2A24B3XMG81HwPr1Fl6kKtbGLQJj/UFNLdNwE5Fsgia7kvCWAX6LW6HR+thPLTOBw+ovuUi5HQhMx/4DmlKex51MFmmg3iJ5dce9p3ML7pGT9echpVwJ9Ku/5CLl0ge4BPsPZCppAW7EPZsVicUw3OI4X2D/GUklLwLLNVJskTIYAjyO/QcxhcwGrsAtHSsSqwG4mQc1YVe2TMA9uhOplJFomFGWTAfOxz13FUlFf+Bo9J5AlszErd8gUgmbofH9tTIZ+AOweIM1FolBb+Ag4B3sP1Ox5+QGayySjH1xPV7rD1usmYibnnVwowUWiVAPYA/gZew/YzHnKjRZl5RQE27okPUHLNZ8hhu/v1CjBRZJQBNucqqnsf/MxZqHcPOhiJRCH9x62dYfrBjzAXA4bsEjkSrZEngQ+89gjHkTjRCQEhiMW4vc+gMVW97APQ7p2XhpRUphI+B27D+TsWUcsHGOuoqYWh54C/sPUkx5AdgVt96BiLRbA7geaMb+cxpLpgM/zFNUEQurAWOw/wDFkk9xL0Fpql6Rrq0GPIr9ZzaWtACH5qqoSIHWR8P82jIbOAtYOFdFRaqlCfeIbCz2n+FYckKuiooUYDPcGHbrD0sMeQxYPV85RSptIHAeeizQllPzlVMknO+iBX3m4F7e2Q/d7hfxZW3gKew/2zHkbHRukcjshlYEa8ZN2zswZy1FZH7dgENw8+dbf9atcyluNUYRcwegW3RPA+vkLaSI1LQobgXRFuw/95a5HuiVs5YiuRyN/QfBMhOBH6NhfSJF2xA3rNb6HGCZ29EkYmLkV9h/AKzSgrsNNyRvEUWkYd2BI4BJ2J8TrPIAmkJcCnYK9ge+VV7AzV4mInEYhltIx/rcYJVHgQVyV1EkgxOwP+At8gVwJG5lMxGJzyZUd8XB+9DjAAnsCOwPdItcj/uWISJx6wkcB8zA/rxRdO5ALwZKIAdif4AXnWnAQT6KJyKFWgO3qp71OaTo3IzuUopnu1O9oX6vAqv4KJ6ImFgQuBr7c0nRuRqNTBJPdsLNaW99UBeZS4H+HmonIvYOAKZif14pMpegGQMlp+2AmdgfzEVlMrCnl8qJSExWpnovCJ7jpXJSSZtTrbn9XwC+4aVyIhKjfsBfsT/XFJkzvFROKmUjYAr2B29RORfo46VyIhK7HwFfYn/eKSon+SmbVMEKVGfBjc+Bnf2UTUQSsjzwHPbnoKKi0UxS02LAu9gfrEXkSWBpP2UTkQT1xi2va30uKiKzgW38lE3KqD/VWXP797gJQ0REdsQt7GV9XgqdycCanmomJdIduBX7AzR0xuFGNoiIzG0E8Dj256jQ+QQY7qdkUhbnYn9ghs5DwJK+CiYipdMT+B1utU/r81XIvAIs4qlmkrjjsD8gQ+dU3F0OEZFatqH8jwTuR+sGVN5ulLu3OxvY31u1RKQqVgY+wv4cFjJ/Q7MFVtY3KfdEP1OB7b1VS0SqZincmiDW57KQOc1btSQZZR/rPwHY0Fu1RKSqBgGPYX9OCxnNEVAhCwGvYX/QhcoHwEhv1RKRqusH3Ib9uS1UZuJmf5WSawJuwv6AC5WX0Zv+IuJfD9wqodbnuFD5BBjmq1gSp59jf6CFysNoaIuIhPU/2J/rQuURNEFaaW0JNGN/kIXILUBff6USEenUkZR39NTZHuskkRgBjMf+4AqRC9EYfxEp1m7ADOzPfyGyp8c6ibG+wLPYH1QhcrLHOomI1GNzyrms8FRgdY91EkOXYX9A+U4zcIjPIomINGBN4DPsz4m+8y4w0GOdxMCh2B9IvjMd+L7PIomI5PB14G3sz42+cwfQzWOdpEAb4MZ3Wh9EPvM58C2fRRIR8WAxyvmo9bc+iyTFGASMxv7g8ZnRwCifRRIR8Wgh4B7sz5U+04JbHEkScgv2B47vi//SXiskIuJfL9ytc+tzps98hrvDIQk4BPsDxmcm4FbmEhFJQX/gcezPnT5zB1o5MHojcUM4rA8WX5mKe5dBRCQlA4FXsD+H+sxRXiskXvUGXsD+IPGVWcC2XiskIlKcJYH3sT+X+soMYDWvFRJvzsT+APGVFmAPv+URESncCsBY7M+pvvIqbnVEicg22B8YPqNbTSJSFmtTrhkDz/dbHsljMco1E9VpfssjImJuC8q1dsAOfssjjWiiXENOLvRbHhGRaOxCeVZkHY97x0EMHYX9geArN6JV/USk3H6M/bnWV+5DUwWb+QZuXnzrg8DXgdTbb3lERKL0K+zPub5yhOfaSAZNwEPY73wfeRY3haaISFWcjf2510cmAyP8lkZqKcttpDfRFJMiUj3dgL9jfw72kTs910a6sCTwBfY7PW8+RvP7i0h19cRdPK3PxT6yl+faSCf+gf3OzpuJaGU/EZH+wBPYn5PzZjwwxHNtZB67Yb+j82YqsJHvwoiIJGoQ5Vg34BrfhZF2g4Ax2O/kvNnNd2FERBI3ArfyqfX5OW+291wXaXUF9js3b87zXhURkXLYHvtzdN58hEZ1ebc19js2b54D+vgujIhIiZyB/bk6b/RFz6MFSH9JyUnA130XRkSkZHoAj2J/zs6TFuBbvgtTVWXoEe7svSoiIuX0NWAc9uftPHkV15mRHJYHZmK/M/PkLO9VEREpt61x36Stz995cqT3qlTMbdjvxDx5GujlvSoiIuV3Kvbn8DyZCAz2XpWK2Ab7HZh352umPxGRxnQHHsD+XJ4n53qvSgX0BF7HfuflyQ7eqyIiUi3DgM+wP583mtlo1te6HYP9jsuTP/oviYhIJW0ONGN/Xm809/kvSXkthhs2Z73TGs3juDsYIiLix6+xP7fnyfe9V6SkLsZ+ZzWaCcBw/yUREam0bsDd2J/jG827aCK4mtYk3aEfLcB3/ZdERERwq+19jP25vtH8wn9JyuUR7HdSo/ldgHqIiEi7b+FerLM+3zeSycAS/ktSDikv9fsImvVJRKQIP8f+nN9oLgtQj+T1AN7Efuc0knHAkv5LIiIiHWgCbsf+3N9ImoGR/kuStv2w3zGNRuP9RUSKtSjprhdwfYB6JKsX8B72O6WR3Oq/HCIiksH+2F8DGkkLsEaAeiTpx9jvkEYyFRjhvxwiIpJBE+kuHXxbgHp0qano/4cZ9AHeBha3bkgDfg6cZt2IkhsKLIUb/rMY0BvX8ZrSQeb++2lz/Y5uQN/WvxeRchkFPEOaL2FviOvAVNbR2PfEGsmraJW/ELoBG+BWAXuRxvdPM/AlriPQ9ncTgfuBM4FNC9oeEQnvD9hfExrJvSGKkYr+wBjsd0Ij2cR/OSqtN3AE8AnF7cNrgUWK2DgRCWpB4CPsrwuNZLMA9UjCCdgXv5FcEaIYFdUD9yLPB9jsy2eBgcG3UkRC2wn7a0MjeSxEMWK3MG7efOvi15uJuOfRkt/6wBvY79Nn0BzdImVwB/bnk0ayXYhixOwk7IveSA4JUYwK2omvPp+3zu/Dbq6IFGBZ4jqvZM1zxPmSfhALk+Zyv0/iXlKTfH5GfAs+NQMbh9xoESnEf2N/Pmkk3wtRjBgdi32x681sNHFDXt2B87Dfl53l9dY2iki6ehPHo8V6U4nhgL2A0dgXu978OUQxKqQ7bvpL6/1YK3uEKoCIFGYL7M8ljWTDEMWIyV7YF7nefAwsFKIYFXI+9vsxS15Dj3lEyuAa7M8n9eamIJWIyEvYF7ne7BqkEtVxCvb7sJ7sFqYMIlKgxYEvsD+f1JNmYPkQxYjB1tgXuN78K0glquMw7PdhvXkhSCVEpGhHYH8+qTfnB6lEBO7Fvrj1ZDol7o0V4Ae4Hq31fmwkGhEgkr7uuCF21ueTejKNEs41syb2ha03JwWpRDVsAczAfh82mmv8l0REDKxHfMOOa+XkIJUwdDX2Ra0n76LZ4Rq1Gm4hHut9mCczgWG+CyMiJi7C/pxST8YB/YJUwsAI3Dh666LWk71CFKICFgbewn7/+civPNdGRGwsiXuka31OqSeHBamEgTOxL2Y9eQ1NCNOIJuBm7Pefr4wmzTXGRWR+f8L+nFJP3qYE16GFgMnYF7Oe7BKkEuWX4gyPtbKz1wqJiJXFgCnYn1PqyY5BKlGgg7EvYj15ngotyuDRt0jvMU+WPOCzSCJi6n+wP6fUkzvClKE4z2JfxHqyfZgylNpCwEfY77tQWdlfqUTE0EDSWoiuGfcOXZJSG/r3RJgylN452O+7kDnXX6lExNivsT+n1JNTglShAKnM/96WLcKUodQ2JL0xtvXmS7QWhEhZLASMx/68kjWjSfBlwAVIax7m+4NUodx6Aa9gv++KyOGeaiYi9o7H/pxST5J7NL0/9kWrJ5r6tX6/xn6/FZXX0MuhImXRHxiD/Xkla/4RpgzhPIF90bLm0UA1KLMVSXuq30ayuZfKiUgMTsT+nJI1s3GTGSVhVewLVk+SH2tp4Drs91vRKf1a3SIVMoi05gX4VZgy+JfSW+FvAt3ClKG0Vqb8L/51lNnAUh7qJyJxOAv780rWfEAC16p+wOfYFytrDglThlK7Fvv9ZpXfeqifiMRhadKawGybMGXwZy/si5Q1Y4G+YcpQWitRzW//bRmDG/0gIuXwd+zPK1kT/WPIO7EvUtb8OkwJSu0a7PebdXbPXUURiUVKE9bNAAaEKUN+i5LO7ZSpre2V7Ebipqa03nfWeSxvIUUkKvdif17Jmr0b3cjQLxDsRDozFl2OewQg2R1HAi+hFGA9YA3rRoiIN7+zbkAdfmDdgM7cj33vKEuageXClKC0+pHess4hc3G+copIZF7C/rySJbNwQxijsjjp3B5OfolFA7tgv99iylTcymIiUg4pLV1/QCMbGPL27S6Bf79PF1g3IEG7WTcgMn2Bfa0bISLe/A03MVAKonsM8Bj2vaIs+QToEagGZbUwMB37fRdb3iadTq+I1HYx9ueVLJkNDKl340KdrEbgXoxKwSW44kl2OwK9rRsRoWWArawbISLepHJ3uDvwfetGtDkO+x5RlrTgTtpSn5Tmdig6t+Woq4jE50XszytZcn+g7a/bs9gXI0vuClWAEhtCOnM7WKQFWLbh6opIbA7D/rySJc24l+8zC/EIYHlg9QC/N4RUbu/E5LukM7eDhSa0noRImVwJTLNuRAbdcHPv1PUf+BbNc4gaxgC3WDciQetaNyAB+6A1JUTK4nPccucpMO8ARL86UatLcRMoSH3Wsm5AAgaiYZIiZXKhdQMyWh/DtQEGkM7z4eUD1aDMegMzsd93KeSZBmssInF6DfvzSpbsknWDfN8B2II0ng8/C7xh3YgErQr0tG5EItbA9cZFpByutm5ARltn/Ye+OwCZ/x8b+7t1AxKl2//1OdS6ASLiTSrXja1xLyMXqgn4GPvbH7XSAiwVqAZl91fs919KmUEDs3OJSLSew/68kiVrZtkYn3cAVgOGefx9oTwGfGDdiETpDkB9egH7WzdCRLxJ5S5AppfxfXYAUrn9f411AxLVDxhp3YgEHUwa78WISG2pXD8KH433EPa3PWqlGRgaqgAltx72+y/V7NBAvUUkTiksdNcMDKq1Ib7uAAwgjTeeHwA+tW5EohazbkDC9DKgSHmk8BigG7Blln/kQyrD/1LYcbEym1yiBDYDVrBuhIh4cS3uZfLY1XwM4KsDkMLz/9nADdaNSNgi1g1I3I+tGyAiXnwCPGjdiAy2pMY13lcHYHNPvyekB4Dx1o1ImO4A5LMXsIB1I0TEixS+TA7Gjc7rlI8OwNdaE7vbrRuQON0ByGchYA/rRoiIF6lcTzbs6n/00QHYyMPvKEIqOyxW6gDkp8cAIuXwNvCmdSMy6PL67KMD0GUPIxLvA69YNyJxegSQ38rAt6wbISJe/NO6ARnoDgD69u+D7gD4oSGBIuWQwnVlCWBEZ/9j3g7AQsAqOX9HEVLYUbHTHQA/dgCWtG6EiOT2ADDVuhEZdHoXIG8HYH0PvyO0mcA91o0oAd0B8KMHcIh1I0Qkt+nAfdaNyKDTu/R5L94pPP9/EJhi3YgS6GHdgBLZyboBIuJFCneXg90B0PP/6hhr3YASWR4YaN0IEckthevLSnTyCDdPB6AHsG6O/74oKeygFKgD4Nca1g0QkdzeAd6wbkQN3ehkrZ48HYDVcUvExuxj4FXrRpTEGOsGlIweqYiUw93WDcigw7v1eToAKTz/f9i6ASWiOwB+TbNugIh4kcJ1psPrdZ4OQAq3/1PYMalQB8AvLUstUg6PWDcgg7Xp4HqfpwOwao7/tijqAPijRwD+vAq8bt0IEfHiA+BD60bU0A9Ydt6/bLQD0Af3JnPMvgRetG5EiegOgD/XWjdARLxK4cvmfJP2NdoBGAl0z9eW4B4Dmq0bUSK6A+BHM3CldSNExKsUOgCj5v2LRjsA8/2iCKWwQ1KiOwB+XAW8Zd0IEfEqheuNtw6Anv9Xj+4A5DcbONm6ESLi3b+BSdaNqMHbI4DY7wDMAp6wbkTJTERTKud1GW4dcREplxbgUetG1LAM0H/uvyhrB+A50lilKSVzcO9VSGNmAb+xboSIBBP7cMBuuGmBv/IX9RoGDPbSnHAet25ASemxSuMuAN6zboSIBJPCdecrX94b6QCk8Pz/JesGlNRD1g1I1DvACdaNEJGgUhh2nrsDEPvtf0hjR6TocdyLbJJdM7AHbl4KESmvscQ/w+dXXgQsYwegBfdGpvg3FXjWuhGJOZX4Xw4SET9i//KZ+w7Ayp4aEso76AXAkPQYILun0LA/kSqJ/fHzQGBo2//RSAdgGX9tCSL2Hljq1AHI5gtgd/TIRKRKUrj+/OcaXm8HYBCwoN+2eJfCDkjZI7ghgdK52cBOwBvWDRGRQqVw/Vm67Q/1dgCWrv1PzMV+CyZ144DXrBsRuYOBf1k3QkQK9yrx3/VruAMwwm87gkihB5Y6PQbo3KnAxdaNEBETM4h/qe8RbX8o2x2AKbiXACWsO60bEKmrgV9aN0JETMV+F7q0jwBewQ0DlLBuI/6FL4r2ELAPej9CpOrUATCib//FmAFcb92IiLwBfA9XFxGpttivQ18DukP53gF417oBFXKVdQMiMQ7YBphg3RARiULs16EewJJQXwegCXUApN0DwEfWjTA2HdgeLfErIu1SuA4tDfV1AIYCfcK0xZsUCl8WLbiX3qpqDrAnWiJZRL5qDPHPRlt3B2BEmHZ4pQ5Asar8GOB44DrrRohIlGK/Fo2A+joAsb8A2AJ8YN2IinmBai68dDbwv9aNEJFoxd4BqPsOwLBADfHlY2CmdSMqqGp3Aa4EfmLdCBGJ2nvWDahhcaivAzA4UEN8ib3HVVZ/ozpj3+9AY/1FpLbYr0eDob4OwKBADfEl9oKX1QfAPdaNKMAU4EDin+dbROzFfj2quwOgOwDSmd9ZN6AAvwU+tG6EiCQh9utR6ToAH1s3oMLuAp63bkRAU4DfWzdCRJIx2roBNfQGFijTI4Bx1g2ouNOtGxDQB+gFUxHJbgLxvyu0aJnuAIy3bkDFXUf8t70apeGlIlKPZmCidSNqGJy1A9AEDAzZEg90B8BWM3CGdSMC0bElIvWK/byRuQOwMG4BgZjFXuwquAQYa92IADajdfUsEZGMYj8XZu4AxP78H7QaWwymAWdZNyKAocBW1o0QkaTE/qU08zsAsT//nwTMsm6EAHAO7q35stnbugEikpTYOwCZ7wDE3gHQC4DxmACcb92IAL5L/J8DEYlHaR4B6AVAqcepwOfWjfCsN3CadSNEJBmxX5cGZe0A9AnajPx0ByAu44HfWDcigP2AjawbISJJiL0D0CdrB6B30Gbkpw5AfM6ifPMCNAHnAT2tGyIi0Yv9utQ7awegV9Bm5DfNugEyn5nA8daNCGAl4BjrRohI9KZaN6CGXmXpAMywboB06FrgcetGBHAiMMK6ESIStdhHpqkDIMGV8dtyP9xwRxGRzsS+fkhpOgCxF7rKHgWut25EANsAO1s3QkSiFft1KXMHIPaXAHUHIG7HAdOtGxHAucAw60aISJRi7wCU5iVAdQDi9g5uboCyGQT81boRIhKl2DsAegQghTkdeNW6EQFsBRxm3QgRiU7s16XSdAB0ByB+M4GDgTnWDQngf4EVrRshIlEpTQdA7wCIDw/ilgwum77AlWiCIBFpF3sHoDTvAMReaGn3M+JfJKMRawAnWzdCRKIR+3Up8x2A7kGbkd9s6wZIZhMo59wAAMcCG1s3QkSiEPt1qUfWDkDst9j7WjdA6nIFcKt1IwLoBlwOLGTdEBExF/sjwVlZOwCxz7Xfz7oBUrd9gU+tGxHACNxCSCJSbbE/Op+RtQMQ+yQu6gCkZxywN+UcFbAnmiVQpOpi7wDMLMsdgP7WDZCG3Amcad2IQC4AlrNuhIiYUQegILoDkK7jgRetGxHAAOAW9D6ASFWVpgOgRwASygzgh8R/jDViRdz8AFk/ZyJSHqXpAMR+B0CPANL2Mm4IXRl9FzjFuhEiUrjYOwCZXwKMvQOgOwDplvsLUQAAIABJREFUOwu43boRgfwc2MW6ESJSqNg7AHoEIFHZh3LOEghuCuTVrBshIoWJfR4APQKQqHwG7G/diED6ATcDi1o3REQKUZo7ALF3AHQHoDz+D7jQuhGBDAeuI/5vBiKSX+xfTDURkETpKOBN60YE8i3gT9aNEJHgBls3oIbS3AGIvacl9ZkC7E78i2k06sfAgdaNEJGgYn/cN7UsHQDdASifJyn38rpnAxtZN0JEgon9DsA4PQKQmJ0KPGrdiEB6AjcAX7NuiIgEUZoOgO4AiIVm3KOAL60bEsgQ3MiABa0bIiLeqQNQkG7oPYCyehf4iXUjAloDN/Khj3VDRMSr2N8ByNwBmBC0GX4sZd0ACeZS4HrrRgS0CW77NDxQpDxivwMwtp47ALF3AoZbN0CCOggYbd2IgLYFLkcLB4mURewdgMx3ACD+k686AOU2AdgbmGPcjpB2Bc6zboSI5NYTWNi6ETWoAyBJuRs43boRgR0AnGHdCBHJJfZv/6AOgCTol8C91o0I7BjgROtGiEjDYh/eOwWYpg6ApKYZd6s89uMxr5Mp90RIImW2tHUDahgH9b1wFPsJd4R1A6QwY4GdgVnWDQnsRNy6AU3WDRGRuqgDULBhaBhVlTwGHG3diAIcAVwEdLduiIhkNsK6ATWUrgPQjfifu4hfZwNXWzeiAPvitlMdXJE0xH4H4CMoVwcA9B5AFR0AvGzdiALsDNwC9LVuiIjUFHsH4F2orwMwDpgZpi3eqANQPVOA71Pe9QLmtjVwB1o7QCRm3Yj/WvQeQI86/oM5wMfE/Wwj9qJLGK8D+1Du6YLbfBN4CNge+MC4LWU0BPgRsA4wHvfF51Pc0NM3DNsl6RgG9LJuRA3vNvIfPYzrCMSaSxrZKCmNM7A/BovKZ8AGfsomwHK4Rywz6bzmLwO/xS3gJNKZjbA/P9TKsEY27JoIGt5Vyj5BjHStB/AA9sdhUZkO7OWlctW2JPA+9dX+EeB7aO0Gmd8e2J8buso0Ghxa/IcIGt9V3m5ko6RUhuIeVVkfi0Xmf9GFqFGDgFdovPavAwei5Zyl3UnYnxO6ymuNbtgxETS+q8xEJ0KBtXEvB1ofj0XmVvRyYL0WAJ7ET/0/w01TPbDQLZAY3Yj9+aCr3N7ohu0aQeNrZdlGN05KZXvctMHWx2OR+TfxDz+KyfX43wdTgLPQfqiyt7A/F3SVvzS6YetE0Pha2bXRjZPSORz747HojMWNFJCu/Yyw+2E27p2ptYraIIlCf6AF+/NAVzm2zBv3+0Y3Tkop9vdWQmQmcCRaQ6Az38ZdoIvaH/cB26D9UQXrYv/5r5Wd82xg7Lc3HsyzcVI63YAbsD8uLXIbsGj+EpbKErjn9Rb749/A3sQ/RlwadwD2n/tayXVX6qYINqCrTEYvAspX9cUtHmR9bFrkY2Cz/CUshV7EcRyMBo4DFg67uWLgLOyPr1pZJM8GnhzBBtTKSnk2UEppUeK/exUqzcBp1DfzZxmdg/2+mDtf4B5ZahGz8rgf++Oqq3yUdwN3jmAjamXvvBsppbQ8bmpX6+PTKo9T3bfT98S+/p1lFnA5sGKwrZeiTMD+eOoqDQ8BbPONCDaiVs7Ju5FSWhvhZtCzPkatMonqjZRZFZiKfe1rpRm4trW9kp4lsT+GauX0vBvZHTeVoPWGdJUn826klNoPiH80S+hcRTVeEByAmyHUut71pAW3LsHaAeoh4WyL/bFTKz/ysaHPRLAhXWU6etNWunYs9sepdcbhbo2XVRPwD+zrnCd3ABv6LowE8Rvsj5daGeVjQy+NYENqZU0fGyqldi72x2kMuQtYJmctY/Tf2NfWV+4DNvVbHvHsfuyPk64yE09fjGNfE2AOcLCPDZVS644bK299rMaQKcBPW2tSBltRzqmgHwG29lgn8aMn8b9n8pKvjd0igo2plYt9bayU2gLAs9gfr7HkGWD1XBW1twwwHvtahszTwH+h2QVjsR72x0StXOVrY4dGsDG18oKvjZXSWxR4EftjNpbMBs4DhuQpqpEB5FveN7W8COyCJj+z9lPsj4VaOc7nBo+NYIO6ymygn88NllIbjDoB8+YL4ATSWeu+B3A39nWzyKvAHpTnEU5qbsb+GKiVbXxu8L0RbFCt6O1Zqcdg3J0j6+M2trwP/JD4bzdfiH2trPMWsD/umbQUJ/YvxHNw8xR486cINqhWfupzg6US1AnoPE/gJlKKUejlfVPL+8ChQO88RZVMVsB+f9fKeN8bvV8EG1Ur9/jeaKkEdQK6zr+ATRotbgA7oImdOsto4AjcglgSxv7Y7+dauc33Rq8cwUbVykxgQd8bLpUwCHUCaiWGIWlr4YYwWtci9nyKG77dv7EySxcuw37/1srPfW90E2k899jB94ZLZQwCnsf+GI49zwA7Uvw7Al/DLXdsvf0pZQxwPG74q/iRwjH4zRAbfkMEG1YrF4bYcKkMdQKy52Vgd4p5E31BdIcmT8bj3puo+hLRea2G/b6slZkEegT0kwg2rlZyr38sladOQH15GziAcOtxaAZHf3kOTZuexwnY78NaeSzUxq8awcZliZbXlLwG4U6W1sdySvkQ9y1zQAP17sqfI9i2MmU2sHNde0DaPIj9/quVM0JtfBMwIYINrJUTQhVAKmUg6gQ0ksnAWcBy9Zd8PodHsD1lzEzc+gmS3QBgFvb7rla+F6oAkMYMSA8F23qpGnUCGk8L8H/At+uuunMsGu4XMndn3xWCu2tivc+yZNFQBQA4KoINrJXZwCKhCiCVMxAtIJQ3z+NW7FwoQ727AWdH0OayZxJaU6Aef8V+n9XK68G2vtUaEWxklvwgVAGkktQJ8JMpuHHUHQ1TWhDYC3g4gnZWJSM72A8yvybSGP4XfFXcbsDnEWxorVwWqgBSWQNxY+Ctj+2yZBrwHvA47nb0tAjaVLXshmSxOvb7Kkv27WojfNzuaSGNZ+xbEf9iJpKWCbgpce8ybkdZ9AGGA+sCm5HOKoRlotUEs7GeATOrh7v6H30973nA0+8JaQhu2lARn74EtgUuNW6HiA+zrRuQiBSGTb4PvNHVP6hSBwA8r4cs0mo2sA9wknVDRHJSB6C2b+BmAIzdP2v9A18dgGdx34Ripw6AhPRr3DM3nUQlVc3WDUhAKi+UF9YBaKbGs4ZIrA0sZd0IKbVLcI8EUugQi8xLndfadrVuQAYzgHtr/SOfYz5TeAzQBOxp3Qgpvbtww9o+tm6ISJ3UAejaKGBF60Zk8AAwtdY/8tkBuMfj7wppbzQaQMJ7Hlgft0KeSCrGWDcgcil8+4cMt/9D+AD7cY9ZEmRtZJEODMB9GK2PeUXJkgWQrryN/T7Kkkzrbvie9vFGz78vlH2sGyCV8TmwHXAq7oMpEqvRuIWbpGNrA8tYNyKDt4A3s/xD3x2AGzz/vlB2Qj1dKU4L8AvccacTrMQq+LzxiUvl9v/tWf+h7w7AI8Bnnn9nCAvgTsYiRboRN8tdpt65SMFes25AxLpTouF/bXx3AFpwywOnQI8BxMIruFuJt1k3RGQeugPQua2AJawbkcFU4P6s/zjE0o+pPAbYGFjWuhFSSZOA7YFT0HsBEg91ADp3oHUDMroXmJ71H4foANwHTAzwe31rwi01KmKhBfhvYEc0aZDEQY8AOrY4bnKvFFxXzz8O0QGYDfxfgN8bwl6EqYFIVjfj3gvQfAFiaSpuGLfMb1/SWCVxBnU+gg918UvlMcBSwKbWjZDKexW3UuXZ1g2RynoAPY7qSDdgP+tGZHQH8EU9/0GoDsC/SGe4097WDRDBPbc7HLdgVQojaaRcTGaOS8AWwAjrRmR0jXUD5vZ37GdDypKpwMKBaiDSiCHAP7D/bCjViV6I7tgN2O+bLJlKA3PbhHz+ncpjgL6kM75TqmEMbvbAQ4Fpxm2R8nsDN8WtfNViwHetG5HRbTRw1z1kB+Cf1DEcwVgqQzykWv6CezfgeeuGSKllnjmuYvYBelo3IqOobv+3uRn7WyNZs1mgGojk1Qs4Azd00PpzopQv30Hm1QN4H/t9kyWTcXeyo7MH9sXJmrsD1UDEl82Ad7D/rCjlyRSgNzKvH2G/b7Lmb4FqkNvCuJcTrAuUNWuFKYOIN32B04CZ2H9elPRzK9KR57HfN1nzvUA18OIy7AuUNam8uCiyMm7xLevPjJJ2DkHmtQX2+yVrJhH5HZwNsS9S1jQDK4Qpg4h3TcBBuKm3rT87SpoZgczrX9jvl6y5KFANvHoZ+0JlzV8D1UAklMVwzwGtPztKWtHt//mthv1+qSfrhimDX0dgX6ismQksGaYMIkF9Bzee2/ozpMSfZmAVZF5XYb9vsuaFQDXwbhHchCbWBcuaP4Ypg0hwfYFTcQuDWH+OlHhzOTKv4cAs7PdN1hwWpgxhXI59wbJmMjAoTBlECrE0cAXum57150mJKzPQs/+O/An7fZM1U4EBYcoQxkbYF62enBSmDCKFWgW3PLf150mJJ2ci81oU98XPet9kzWVhyhDWK9gXLmvG08DiCiKR2oD2JV+V6uYddHezI2dgv2/qyYZhyhDWkdgXrp4cHaYMIma2Bp7D/rOlFJ8vgJWQeS1OWhPWvRymDOENJK2XAT/CzcMuUiZNwK7Am9h/xpRi0gxsg3TkbOz3Tz05MkwZinEF9gWsJ/uFKYOIuR7AwcB72H/OlLDR3cyODSetETPTcV+kk7Ux9kWsJ+8BfUIUQiQS3YHvAw9j/3lT/CeJ2eKMXIT9/qknV4UpQ7FSehlwDvDzMGUQic5awJVosaGy5GbSWdO+aMuR1rj/OcA3g1SiYEdhX8h68iUwNEglROK0OPBbYBz2nz+lsZyHu7sjHbsS+31UT54KU4bipfYy4Bx0G02qqS9wIGmt56HALzramfIfK5HeJFm7BKmEkXOxL2g9acYtFCFSVd8B/gHMxv7zqHScWcDenew/aXcr9vuqnrxDye7mLE16z1/uC1IJkbQMBX4K/Bv7z6TSni+BrbrYb+L8F/b7qt4kNe9/VimtD9CWHYJUQiRNawJ/Ru8KWOclYOUa+0qgH/A+9vurnoxvbXfprAi0YF/gevIWmhxIZF69cJ3jm9EIgiLTgpvbX0OVszkd+31Wb04JUolIXI99gevNMUEqIVIOiwJHoCmHQ+cTYMuM+0Tci3+pdU6nAUNCFCMWa2Bf5HrzOTA4RDFESmYU8HvgU+w/t2XKLbiOlmT3IPb7rd6cH6QSkbkd+0LXm78EqYRIOfUAtgOuI62pV2PLWDQ9eSP2wn7f1ZsW4BshihGb1KYHnoMbCqWVtUTqNxD4MfAk9p/jVDIL96x/kQbqXXUDgTHY78N6c3OIYsQqxdszdwaphEh1rAj8Bngd+89zrPkXMLLRAgvnY78PG8kGIYoRqy2xL3gj0RKbIn6sApyEZh1sy9vA93JVVNYjvZFmc3CPxSvnaewL38iHtH+IYohU2IrAicAL2H/Gi86buOmXe+euYrV1J92RKGsFqEf0dsS+8I1ELwSKhLM8bkXOZ7H/rIfMM8DOQDc/Zau8I7Hfp43kxhDFSEETad7+awE2D1APEfmqZYBjKdcLhHcDW/gskrA48AX2+7beNFPxGR33wH4nNJL3gYUC1ENEOjYcOBr3ktxU7M8B9eQt4GQqMszLwLXY7+NGclWIYqSkB+65uvWOaCQXB6iHiNTWG9gEd1F9hDgXGhsDnIV7MU3CSfWF8lnAcgHqkZxdsd8ZjUajAkTsLYD7LJ6Be3eg6DfBJwEPAH/E3dVciZIt5xqpPri7K9bXgUZyUYB6JOtR7HdIIxmNJusQic0g4Pu4yXTuAT7G32f+c9xS4WcAu+FeWmwqZrNkHidhfw1oJDNwj7QKFfNBuh7wmHUjGnQVsLt1I0SkSwNwE+ysONfPFXDv8vTErXDYk/Zv7p8B7wLvtP78N+7N/bZvnGJrRdywvxSHT54NHG7diNhcjX3PrNHsEKAeIlK8brh3kyRefYGXsD/vN5KpwDD/JUnfcNxyiNY7qJF8hlbrEhEpwl+xP+c3mtMC1KM0TsV+BzWa6wLUQ0RE2u2F/bm+0XyMe2FVOrEgaa8lvqv/koiICG50xRTsz/ONZi//JSmfA7DfUY1mPDDUf0lERCqtP/AK9uf4RvMkcb+IH41uwIvY77BG8wv/JRERqbTLsT+3N5oWYH3/JSmvzbHfaY1mzQD1EBGpqv2wP6/nyZX+S1J+/8B+x9Wbt4JUQkSkmkaR3toPc2cysIT3qlTACsQ5x3dXOTVIJUREqmcB4HXsz+t58kvvVamQs7DfgfVk1TBlEBGpnL9hf07Pk3dx6xVIgwYBE7HfkVnyWqAaiIhUzcHYn9PzZifvVamg+7DfkVlyUqgCiIhUyOrAdOzP6Xlyn/eqVNCiwGzsd2aWjAxUAxGRqlgIeBP783meTMOtEik5pXIb6KVQBRARqZDrsD+f583x3qtSUfdhvzOz5MRQBRARqYjDsD+X582zaDVJL4YCzdjv0CzR7R4RkcatA8zA/lyeJ7Nw7y+IB4djv0Oz5LlQBRARqYDlcEuqW5/L80bzwHj0EPY7NEv0vEdEpDGL48bLW5/H8+Y1NObfmyVxCyhY79QsWSZQDUREymwR3AvU1ufwvGkBNvJcm0o7CvudmiVPhSqAiEiJ9QUexv4c7iNne65N5T2O/U7Nkp+GKoCISEn1IM3F3jrK+8CCfstTbSOw36lZ0gIsFaYEIiKl1ARcjv3521e29lseORb7nZolj4YqgIhISf0B+3O3r5zruTYCPI39js2SI0IVQESkhI7H/rztK6/g3mMQj5bFfsdmSQuwRKAaiIiUzf7Yn7d9ZQawmt/yCMDPsd+5WfJgqAKIiJTMDqSzqFuWHO23PNLmBex3bpYcGqoAIiIlsgnpL+07d+7Evcgonq2A/c7NkmZgsUA1EBEpi9WBSdifs31lDG6NmiR1s25ADbtYNyCj+3HzVouISMe+DtwBLGTdEI/2Az61bkRZvYx9Dy9LDgpVABGREhgGvIP9udpnzvFaIfmKlbHfwVkyCxgcqAYiIqkbBLyI/bnaZ15GQ/6COgX7nZwld4YqgIhI4objVsWzPk/7zDRglM8iyfxex35HZ8m+oQogIpKwUcBo7M/RvrOnzyLJ/FbDfidnyUzc8pUiItLuW8Dn2J+jfUer/BXgNOx3dJbcFqoAIiKJ+j7lGuffloeBnh7rJJ14G/udnSW6FSQi0u7HuHlRrM/NvvMxCY/3T8na2O/sLJlOucaziojkcTL25+UQmQls4LFO0oUzsN/hWXJzqAKIiCSkO3Ah9ufkUDnEX6mkK03A+9jv8CzZLVANRERS0Re4Bfvzcahc4q9UUsv62O/wLJkKLBCoBiIiKVgE92Kc9fk4VJ4G+nirltT0J+x3epZcH6oAIiIJ+BrpTNXeSMYCS3mrltTUjXQmjdg5UA1ERGI3EvgQ+/NwqEwHNvZWLcnkm9jv+CyZDPQLVAMRkZhtCEzA/jwcKi3Art6qJZmdjf3Oz5KrQxVARCRi2+Pef7I+B4fMcd6qJZl1x62pbL3zs2SHQDUQEYlRE3A8MBv782/InOerYFKfTbHf+VnyBXorVESqYwhuxVPrc2/o3Ib7IioGzsf+AMiSK0IVQEQkMt/GTYFrfd4NnWfRsG4zPXBDLqwPgizZLlANRERi0Q34NeWc03/evA8M81I1aciW2B8EWTIR6BWoBiIiMRgG3If9+baIfA6s5Kds0qiLsT8QsuSvoQogIhKBLYEx2J9ri8hM3LtnYqgn6Ywp3SpQDURELPUATsONgbc+zxaR2cAuXionuWyL/cGQJeNwHxIRkTL5GvAI9ufYotIC7OmlcpLb5dgfEFlyQagCiIgY2R4Yj/35tcgc5KVykltvYBL2B0SWbBaoBiIiResF/BH782rROcJH8cSP/8L+gMiSz9AEESJSDssAT2J/Xi06x/sonvjzN+wPiiz5S6gCiIgUaCfc0Dfrc2rROclH8cSfvsCX2B8YWfKtQDUQESnCosAl2J9LLfI7D/UTz3bC/sDIko9xs2LJ/PrgXiL6GdDfuC0iMr9uwCGkM9Tad87KX0IJ4TrsD44sOTNUARK1MPBD3P6bTHudPgB2NGyXiHzVOsDT2J9DrXIhbhVDiUx/0llTeoNANUjJYsCBwO3ADLqu1z+BZW2aKSLAINyw5apM6tNRzkYX/2jtiv0BkiUfUN2DaGngaOAh6l8QZBpuIREtmyxSnCbgANykZdbnTsuclreQEtZN2B8kWfL7UAWI1MrAicBz+KnfW8DWhW6BSDWtCTyO/TnTOr/IW0gJayFgOvYHSpasE6gGsWgC1gNOB94kXB1vwE03KiJ+LQKcQzWW7e0qLcBPctZSCrAH9gdLlrwTqgDGegCb404aoymunpOBY3GLP4lIPk3APlRn5b6u0gzsm6+cUpRbsT9gsuR/QhXAQF/ge8Bl2A8HehnYJOjWipTbqlRr8Z6uMhP4Qb5ySlEGUPst8liyRqAaFGUAsDvu9vsU7Os5b64DRgbbepHyWRg3LHk29p/fGDIN2C5XRaVQ+2B/0GTJm6EKENhQ4GDgTlzP2LqOtdIMXAF8PUQxREqiG2752k+x/8zGksnApnmKKsW7A/sDJ0t+E6oAASwD/BR3SzDVcb+zgIuA4Z5rI5KynrgvTa9j/xmNKZ8Aa+WoqxgYhDvRWx88WbJKoBr4Mgo3zv4F7GvlMzNwLycu7q1SIunpCxwGvI/9ZzK2vAQs1XhpxcoB2B88WfJKqALk0ISbkfB3wNvY1yh0pgF/AIb4KJ5IIhYEjkO3+jvLXbhh5JKgu7E/gLLk14G2v149ge8A5+JueVnXxSKTcbN6DcxZS5GYDQJOBiZi/5mLNRfghjBLgoaQzpurKwaqQRb9cAvqXIFOBnNnEvAr1PuXchmGm2107kW1lK+mBTd/iCTsx9gfSFnyYqgCdGER3Bu+N5HOAklWmYg7YS7TUKVF4rA07s5eKjOiWmUqbtl4SdwD2B9MWVLUPNKL4zpF/yKdFyNjSjNuQqktqO5iTZKekcDl6DOfJZ8B6zZWZonJ4qQzT/VygWoAbqz7scBjpDtcL8a8ChyKe4FKJEZr4ibk0uc+W17B3SWREvgJ9gdUljwbYNtXw73c81IE21f2TMLNkrZ8pj0jElYT7g5VKnOfxJLrUWe+VFKZs/o4D9vaDdgI95z6nQi2qYppAW4HtkGPB6R4S+KW1H4X+89CSpkFHNNAvSViXyOd216N3nLqBWwFnI/G78aWN4EjcXOoi4TSA9gBuI10RjvFlE+Ab9ZddYneMdgfXFnyRJ3b1R/3dupVwOcRtF/pOlOBa3FDLPt0sD9FGrEccDrq+OfJQ7jhkFJCT2J/gGXJ0Rm2ZRCwN3ALbqY66zYrjWUSblnkrdHEIlK/wcBBpDOyKeb8AX0GS2tp7A+wLGnBParoyJK4ObnvQUN3yphxwHnAJrj3N0Q6MhDYDzcVrc4D+fMlsHNde0CScxz2B1qWPDJPu5cHjsc9Fkjl/QUlf0YDf0Rjj8UZgLvjdztpLK2dSl4BVsi+GyRVz2J/sGXJEcAauCWAX46gPYp93gFOxa26KNUxBDcr5624lSmtj8Oy5VJggaw7Q4oRYqjUcsAbAX5vCBNx0/GKdOQD3COgu1t/fmbbHPGoB7A+bhTPlrgvAho66t9E3HsT11k3ROYX4oD/JXBKgN8rYu0l2jsED+AWcpF0LEX7BX9ztMBUaPfh7qp8ZN0Q6ViIDsCLwCoBfq9ITGbh3hVp6xA80fp3Eo+hwAbAxriLvuVqn1UyE/dF8Azc7X+JlO8OwIq4Fz1EqmYy7q5A2+OCl3EvkkoxugEr4S74G7ZGK0cW71Xgh8Dz1g2R2nyPw/yB598nkooFgG1bAzAF98jg+da8gLs7NtWkdeUzAPfcfkPcRX99NOujtXOAn+HmSpEE+L4D8Coa5iHSmRbcFMUv0N4xeB43Hap0rDtueO6o1qza+rOz+TukeGOAfYB/WjdE6uOzAzAKd2ITkfqM5asdgteBD1v/virPUPsAw4ERwEjaL/gj0RTOMbsGt+rrGOuGSP18PgLYxePvEqmSRXHLx24xz9/PwE1S9BGuQ/BhB38eW1wzc+lL+wW+LXP/34uhYXgp+RA4BLcIkiTK5wfuTeDrHn+fiNQ2HddJaOsUjMateTAN977B1Ln+3NXPmZ38/iagN27ly7l/9sZ9M18EN0f+oBo/tc57ObTgnvX/HA2DTZ6vDsAawDOefpeIFK8Z1xGYhnvu3nax72nZKInKv4EDgMetGyJ++HoEoLf/RdLWHTeSQdO1yrxm4KZLPx3NdVEqvu4AvIt7jiciIuXxIHAg7sVUKRkfy6Cuiy7+IiJl0jaH/ybo4l9aPjoAevtfRKQcZgNn4V7ovoDqDEOtpLyPAJpwK6Yt6aEtIiJi53bgGNyEblIBeV8C3ABd/EVEUvYK7sJ/h3VDpFh5HwHo7X8RkTSNBw7HTa+si38F5XkE0A03E9kwT22RuE3BTTozyLohIpLLLNxkPifjXvaTispzB2BjdPEvuwnAZcB/4WZzGw4cj/vmICLp+T9gZeAodPGXHP6Ce0NUKVc+As4GNqXzd0QWBH6B6yBYt1dRlNq5HVgHkbk0+gigO/AxMMRjW8TOG8BNwI3AU7gTRhYL475JHAUsFKZpIpLD3cB/A49ZN0Ti02gHYHPgXz4bIoV7lvaL/is5f9ciwE9xy4JqKlkRe/fjLvwPGbdDSuhC7G9pKfWlGXgAOBL3LD+Ewbj5wqdEsL2KUsU8iJu9T6SmRu4A9AA+RW+Dp2Am7hbgTcAtFLd2/BDcy4IH49aBF5GwHsN947/buiFSblth38tVOs+XwDXArtivwT4M+DNuzXnruihKGXMnsAUiBbkE+4Ne+WrGAhcD2+HWcY/NIOAE3AgD61opSuqZgTsPr4JIDvWi7Hj/AAAFJUlEQVQ+AugFfAYMCNAWqc+HuFv7N+Fe9Gm2bU4mPYCdgCOA9YzbIpKaCcB5uGG6nxi3RSrou9j3fqucV4HfAmvV2lEJWBf4G+49Beu6KkrMeQs4FOiHiKErsP8wVC1P4W6fr5Bh/6RoCVynZiz2tVaUmPIwsAN+lm0XmU89jwD6AGOwf7Gs7Jpxt/RvBG7G3eqvgj7A7ri5BPRsU6pqMu4l3guAJ43bIvIfO2DfIy5rpgO3AvvgxtJX3aa4Ocubsd83ilJEngD2RxNpSaT+jv2HpEyZBFwN7Iw+9J1ZEjgOeAn7/aUovjMBOBPd8RIjWR8B9MPd/u8fsC1VMAb3zfYm3IQdM22bk5TVgD2A3dAqlJKuObhpei/CPeabbtoakQx2xr63nGreA/4IfBO9zONDd+A7wOW456XW+1dRsuR94DTg64gk5nrsP0Ap5d/AKcAajRRbMuuPe3HwDmA29vtdUebOB8DvcXNeNLrwmkgwWQ7KBXC3rjWne+fm4N7YbZuY5w3b5lTSUNzjgT2A1Y3bItX1Ie4L03XA47hzg0iyfoh9TzrGzMI9xz8UN5Zd4jES+AVugRSNJFBC50PcY7710Td9SUiWg/UWYPvQDUnENOAu3Lf8W3Fv8UrcFgW2BrYFtgQWtm2OlMQbwG24b/uP4ToCIkmp1QFYGDf3f4wLzBRlEvAP3EX/Dtxa95KmHsBGuM7AdpR3dkXxbwpwL+4ccAfwjm1zRMLbE/vbaxb5FDgf942xZ+4qSqyWwc08eCduOJb1cafElX8DvwM2wy2EJlIqte4A3AZsU0RDIvAu7lv+jbhbei22zZGCLQBsjrs78G1gWdvmiIFJwD3A7bhOYVWm4ZaK6qoDsAju9n+ZvwG/RPtF/wXjtkhchgAb4F7s2gC3AmMf0xaJb+8DjwCPtv58iTSW1RbxoqsOwH642arKZA5uaE7bRf9t2+ZIQnrhhhduMFcWN22R1GM28BztF/tHgdGmLRIx1lUH4C5gi6IaEtAs3NSbN+FW1/vEtDVSJsP5aodgFO5FQ7E3Gnie9gv+U8BU0xaJRKazDsBg3IUy1ZPZVNwzvLbhep/bNkcqoj9u9seRwIpzZUk0PjyUL4GXgRdxt/DboiG6IjV0dlI6CDivyIZ4MJH24Xp3ot6+xGMB3JDDFefJsqTbyS7aLOAt2i/wbRf893CP9kSkTp11AO7FvQkdu09wt/Vvwt3mn2XaGpH69ASWY/5OwdDWVGn+jWbgI9wF/T3cqJy5f45GL+iJeNVRB2Ao7sMW68p1b9E+577m2pYyWwT3eRxGe6egoz8PJN5HDDOB8cC4eX6O4asX+w9xL+qJSEE6uv24E/Fd/F/AvbV/E+62n0gVTGzNqzX+XS9gMVxnYDBu4a4+rensz539b71x37RnzpMZXfzdjNZ2tl3c577Qf5mnACJSrAexn4GrGXgYOBpYOuzmioiIyBK4GfAsLvozcXNsH4j7NiMiIiIFOZJiL/qTcatp/RCt0iYiImKmbVnLkBkPXIpbYlhTq4qIiBgbTrjb/x8BZwObonHPIiIi5ua+GO+M36FEb9A+5/5TuI6AiIiIRKbtIp0nzwC/BFYquO0iIiLSgGVp7ILfDDyAe3lweOGtFhERkVxOIPtFfwZwG7A/sKhFY0VERMSP5+n6ov8lcA2wK7CQURtFRETEo2/Q8UV/LHAxsB3VWpRERESkEk6k/aL/AXAmsAnQ3bBNIiIiElATcB3tQ/aetm2OiIiIFOH/ASYYprZFm/VKAAAAAElFTkSuQmCC;imageBorder=#FFB570;imageBackground=default;" vertex="1" parent="1">
          <mxGeometry x="309" y="694" width="22" height="22" as="geometry" />
        </mxCell>
        <mxCell id="OsdIBWx6J7-D4pMph346-18" value="" style="shape=image;verticalLabelPosition=bottom;verticalAlign=top;imageAspect=0;aspect=fixed;image=data:image/png,iVBORw0KGgoAAAANSUhEUgAAAgAAAAIACAQAAABecRxxAAAtE0lEQVR42u3deZgV1bX38W8zddPQNJFJQBQccAAUJ5wQHEDEq8mNETXmimYyUZNgYkw09zrEa3xNorkZ3gyaaBK8SYxTUIwTIIIgkwJGGQQRUFRmaBp6gu5z/0Bk6obuc1adtavq96knzxOE3r1WVZ11dlXt2htEREREREREREREREREREREREREREREREREREREREREREREREREREREREREREREREREREREREREREREREREREREREREREREREREREREREREREREREREREREREREREREREREREREREREREREREREREREREREREREREREREREREREclfgHUCKtKGIUlpTRHsKaUMJLWkPtKIN0JaWFNAeKKT44z/v1I7mu/xp+79oyL7/NhcVVDf6b2vZtMuftrL5k3+xkczHf95CDbCBbZSzmWrKqKCaDVRRGVEGsgcVACsldKcjnehCZzrSjmJKaEUphRTTjkJKvAOMmTKq2EI5NZRRRSXllLOWVaxmLWtYQYV3gMmgApC9rvSlNz3pSS960sE7nJRZzTKWsZxlvM08VnqHE1cqAE1TRH9OoB/H0JcDvIORT6zjTebzJnOYQ413MHGiAtA4RzGAAQyg/25X5hKeGuYyg1nMYJF3KHGgArBv3TiDIQynh3cg0mSrmMx4xrHUO5CQqQDUr5ihXMgQenoHIjlbwnieYYKeLNRHBWBPnRjOhQynrXcgYqqSqTzDY3zoHUhYVAB26sylfJ7TtE8SrI6p/JXHWOcdSCh0sgO05kJGMkw3+FKilok8zD8o9w7EnwrAiVzL5yMbOyfh2sJf+Q1zvcPwleYCUMinuYYh3mGIq9d5gIfTe4MwrQWgHddzA529w5AgrORn/C6dFwRpLAAd+Cbf4lPeYUhQNvFbfsJ67zDyLW0FoJSb+SZtvMOQIJXzC36621uMidc89yZioyVf4R8Mo5V3IBKoQgZxDQW8Rq13KPmSlh5AAZdxN728w5BYWMwPeNw7iPxIRwE4nF9znncQEisvcy0LvYOIXvIvAYr4L/7Kkd5hSMz05BraMoVt3oFEK+k9gMH8gcO9g5DYWsSXmOodRJSaeQcQoSLuYYI+/pKD3kzmFxR6hxGd5PYA+jGa/t5BSCLM40rmeAcRjWTeAyjgJv5Od+8wJCE6czXlzPAOIwpJ7AG040Eu8Q5CEucprmajdxDWklcAjuNxXfdLJBZxCW96B2EraTcBv8A0ffwlIr2ZxmXeQdhK0j2AAr7PrzWph0SoFZ+jgEneYdhJTgEo5CFuTOAljYSlgLM4hOeS8rZAUj4wHRjDQO8gJDUmcnEybggmowB04UWO9Q5CUmUu57HGO4jcJaEAHMw4ensHIamzkKGs8A4iV/EvAL0Yz6HeQUgqLWMo73gHkZu4F4DDmUQ37yAktVYwKN5Lj8W7ABzEZE3yIa7e40ze8w4ie3EuAAcyKXHX/hvJsJXNQAXVn/zXDbv9m231zF9blfeJrVtTtNd/K6HFbn/eOfFqIcVAW1pSQPs8Rxq1BQyO7+3A+BaADkykn3cQ+1DJOioop5ZNbKOcLVRRRiVVbKSaLWyimnK2UEMNW4AtqVrXvhVtgDa0ohVtKKGIEtpQSHuKaE0pRbShhBa0ozklFNOB1t4h78Nczo7rQ8G4FoBCxgf13H8zC1nCe7zHcj5gDeuo8A4pYYrpQCe605ODOZhDOSqo5Vsncn48C3g8C0ABD/MF7yCAxbzGbOaxgOVkvINJmQIO4Wj6cjwnB/H2x5/4oncI6XEHGcetkoncxlAtLRKMAxjGHUyiyvW8+IH3bkiLL1DncoDreI07Oauem18Shtacw13Mdjs/LvXeAWlwHBUO3/lP8VWNN4iNg/gaY6nM+3mymT7eqSddCQvzeki3MYVraOedtmShlJGMpSav58sinStRKuAfeTyYCxhFJ++UJUeduSGvXxqPeiecZDfl6SDWMYZzY/qERPZWwBCeytudgVHe6SbV8VTn4fDVMpYTvFOVCPRlNFvzcAZV6dX0KBTxVh4O3hNaRCzRjsrLReTcJC8l4uXeyA/bdE73TlLy4AxmRH4u3eOdZNIMZFukB2wDoxI0P6LsWwEjWRvp+VTLYO8kk6SIxZEersfo4p2i5FkXHo/0nFqoywA7d0Z4oDZyjXd64mQE6yI8s271Ti8pjoxwjPcUDvJOTxwdzKuRnVuVQbyklADjIztE99PKOzlx1oJ7Ihsh8IJ3cklweWT1OWGLPEnWrojsvYHPeacWd614J5IDs5YzvVOTgJzKqkjOsyXqY+bmhkgOyyJNJSp7ODSir5pveCcWZ+0jeVo7Xy/2Sj0O5F8RnG2rKfVOLL7+XwQH5HU6eKclgerI7AjOuLu804qrDpSbH4yFGvIj+9CReebn3GY6eqcVT/9tfigW09U7KQlclwhmD7jdO6k4ascG48OwSrf+pBEOY43xmbeOEu+k4ucW44NQyWneKUlMnGE+LuAm75Tipsj4uWydhv1IE3zBuAB8pFeDmmak8QG4zzshiZlfGp+BISxkEyO2UzZM03gsaaKWTDE9B1/1TihOTjTd9ev1xp9k4WA2mp6Hmmmy0R4y3fFXeKcjMWV7IfoH73TqE+LU1yWspNistccZ4Z2QRKolvTmSg2hDKWVs4X0WsphtJm0/wcVmcVZwIOVeOylOLOvuRg39SbCufIfn2VzPcS/nWb5lMOqzi+lolCu9d1g8PGe4y7/mnYxEZCBj9ztR7Fb+wak5/p7rDc/GZ713Whx0Nly8YRrNvNORCPThpSacBc/ntNZDM2aZnY81Wmpu/75hWHHP8E5GzLXgriYv+FnNrTlM+n6m4Rl5nffuC99Us539pHcqYq4br2R5Nkygc9a/9Smzc/IV7x0Yuq5mEzRu0yJfiZPbrD3vckSWv/dos2VpavU6+r59zazW/sU7FTHWO+f3Qz7g0Cx/9yNm5+WXvXdj2J4x2s119PNORUx1Y6nBebE4ywuBPtQanZljvHdkyIqp0G6WerTI+tp/z21ilrcDnzb6/Vto7b0zw/UZs47WOd6piKkfmZ0Z2S7ZNcTs91/kvTPD9XujXbwgyCHOkq0+TX7wt6+tmqOyiKHAbKqw+713Z7jeNdrFo7wTEVMTDT/+GTI8l1UUo4x++xLv3RmqQ4128NYcnvhKeAYbf/wzZDg9izg6mY1R7em9S3cKaais1XX7eFZ7pyKGvhdBm9/N4mfW8JLRbz87goyylMQC8DfvRMRQN4ZF0OpFWQ3IecTotwdUAMJRwEcm3atKLcWUKN+N4AIgQ3Zr9rUzmi34A++dulM4PYAjOdCknXGUeacihs6PqN1s+hWbmGDyu7txeERZNVk4BSDX97Z3GOudiBgqzOp2XWMMpkUWP/WM0W+3OttzFk4BGGDSiiZdSJajIhs3V8JhWfzU02RMfrvN2W4gaQVgdkjXV5KzKN/ozKbtD3nD5HefEmFeTRJKASgyenknuyEeEqoeEbZ9cFY/ZdPDPC6UlYJCKQAnGC3dYXOTRkIR5aKa7bL6KZuxAIX0jzCzJgilABxv0koV070TEVNRvjmX3dTzr1Jt8tsDWSYklALQ16SVaVR5JyKmKiNsuyLLiGaa/PY+EWbWBKEUAJvd8bJ3GmIsyoU0NmX5cxNNfrvNV17OklUAtABj0rwfYdvvZflz00x+eyA9gGwGQ9jrzgEGrWSY7Z1I4DpzEAfRmlJa0pbWFNGWlpRRRy2bqGId61jHalYGcyn1doBtzyRjMN9ERzqH8NJaGAXAphq+w3rvRALTnN70pw89OJju9KCo0T/5EctYxjLe5k3mGd32ysZCKiO6EVie9Xv561ma9eSiu+qjArBDb5NWZnmnEYhCjuc4jqc//bJeZLUrXTnt4/+/jcX8i5m8yutszXMu1UyLaHq3yTksHzrTpAAcaXQ3ISdhFICeJq3M8U7DWQHHMoQhDDJcWxmgBUdzNJcBlcxiCuOYmsdC8HxEBeD5HH52NpcbRNAzkrxi6XGTlyyHe6fhphNf5C+sjOjF2b23Mp7kGg7KS27dzRbl2HXbmtMCHReaxGA1u0ACvGayQw/xTsNBKSMZazplZlO21xhFt8hztFwtesc2JqeIbCavm5GncyQG1hrszvKUzQTcmhE8aTRBRS5bLS9ztfFFx+7OiiDq3F4ybsYWgxhW5feECVeJySFN0y3A3vyKTe4f/V23jfzGaDh3fV42jjb3V8bmmMTRJp8nTbiOMtmZ6biiKmAY/zRbpsp6m8FlkdxWDmFdgN09YRJJtouVGgphJGAnk1ayHdcVH224lvk8zwVBHLX6DOARFnOD+Tt88/ipYWt3sTDnNpabRGJz5sfe50yq6fXeaUSqiO+w2v0bvrHbem41LgL+awPu7gaTWP7d5VzaTQjfJeoB7FtLRjKf+2L0ffEp7mQZd2T5xn19tnGZybfuEi6j1qCdxPQAklMAkjkVWDOuZAF/ppd3IE12ALezmGtNvm8BPmQYa3JsYyXDjIbfrjBpRQUAsNoNa73TiMBg3mB0VpNXhqEzv2GO2Ui+tzktp3X1ljLIbF0+m7MtgAIQgj+bXE8lbdX1TvyROvereZvtSbNhr92ZkmUML+U09m9PNo+uH3I4rwL0mMGuzG52l1AVMDJGt/wad3y+b3Qx0IK7m/xQsJrbzS5Fdqgy2CvpeHS9X/802JVRThyRb72Z4P6BjWKbw4lGe6hfkxYMf8Hguf/ePjTYI1rEBrAZ5zXfOwkjzfie28j+6LcabjX7Jh7Es/t9TWgbT0e2stAig/1htdpwzM002JXJmAuoC8+6f0ij3qYbrovXjRt5sd5x+Zt5nhuMVpus3xsm+8JdCPMBWLxIEsoUVrkYxp8iPWXDcAqvcxMPmLT1IfdxH604it4cTAmtqaSc5SxiYeQzFljcdWobcYwxsdSglsZ9QZAifpGYe/6N2UbH/qnNRIO98K53EmGMA1AP4BCm861Uvc58JZOyXJorFBY9gADeBgyhAFh0hLZ4J5GD05jBcd5B5N3JvMa53kHkwKIARDmLQiP5F4ACk85gfAvApUwwHaISH514geu8g8iaTQFw7/X5F4DWJjshngWggDt4JPZXw9lrzq/5RQDnYDYszrhmTZioPSL+O9/mOiiOIwFb8yi3+38HOPsWf/P/GGTB5ivH/S5AUgpA/HoAxTzNJd5BBOFSXjB8cThfbM4497sAKgA+2vIMQ7yDCMYgJtDBO4gmsulzqgeQygLQnnGc7R1EUE5iEl29g2gSXQIYSV8B6MAETvUOIjh9GB+r9+NtegC6BDDaBfEpAJ2ZyAneQQTpGF6kvXcQjaYegJF0PQUo5in6eQcRrP48bz6jcFRUAIyk6RKgJU+o879Pp/BUTB4K6imAEZtdEIceQAH3c753EME7m9EBnJX7px6AkUKTVuLQA7iTL3qHEAsjuMs7hEaw+cqxOftz4D8fgM0uqPROY7+u4b+cI/iIBSxgCWtYxSrWUAVUUkUzSvkUpbSjC4fS6+P/eY5QvIWl/N55b+2PzfunrbzT8C8ANrugxjuN/TiX3zj95vW8yitM4y02NPAv6tiw19+VchIDGMCpTlOU/IYlgU+YZXPGqQeQigLQnb+az0q7P7W8yhheZB6ZLH66jAlMAAroz3Au4NQ8x9+CRzgx6Kleq01ace8B+LvXZIaZkB8etcx6Lvvstlqe56t0Ns3hAL7M5DzPWTTD//txH9qb5Phj7zT8/dJkR4Z8qtyXxw/N+/wwwpl2DuMOkwncGrvZzBwYjWKTDH/unYa/+012ZLgv1X4ub9+bk7koDx315owwmce5cdsV3odvH/vBIj+vO0MB+aPBbgz3DsARlOXlgzKOwXnN6yz+mZfCttFsUTF7+1uVoDHbg95J+PuLwW4s906iAc2ZnocPyUSn0YWn82oesnsl77dPG6vCILuHvZPw97jBblznnUQDvhP5x+NdPueYXwEjeCfyHG/1PowN2GCQ26PeSfh72mA3fuSdRL0Or3fNGrttMz8IYNx8K/7LZKHMhreaQF+fWmWQ2xjvJPy9YLAbl3knUY8Cxkf6sZhGb+8UP3E4kyLNdWaQlwHvGWT2rHcS/u8CWAyFCPEm4NcinPW+mpsZyCLvFD/xDudwY4SLs5zMN7xTrIfFWRfy4+s8mWpQR9/yTmIvB0d4939+oF3i/iyOLOdyDvFOby/zDPKa4p2Efw/AIoLwegA/i2ye2zGcwpve6dVrLidFdk3blvu809uLxVnn/vlzD8Dk6q7WO4k9nM7FkbRbx61cHOxDTyjjYr4X0dH4HGd5p7eHOoM2/D9/7l4z6EgFsM76Lgoiej6+mQu9U2uUi6mMJP+5gd0KtBgPOdM7Cf8KZHFQLWqxnRGcFkGrGxnGM96pNcqTnM3aCNo9jq94p7Ybi7POvaT5FwCLCEIqAK24O4JWVzKYqd6pNdp0BkfyKu8d/nPo7SIRlwDuASSuAFzLYeZtLuNM/uWdWJPM52w+MG/1wKBWE1YBMJGsS4CSCAaurmQo73gn1mRLOJeV5q1+j7beiX1CBSCYCMJ5CnCN+Rp3ZVwQw48/wNucxSrjNjvxLe+0PqF7AMFEEEoPoCWjjFvcwgXM8U4ra29zkfl0rTcG0wdQD8BEki4BLqeHaXt1XM6r3knlZBZXk82chA07gC95J/Uxi36n++fPPYBE9QC+Y9zebTF58Lcvj/JD4xa/HcBUtqAeQEARhFEAhtHftL0xkTxQzL87+btpez0jGmfZVLoHYCI5Q4FvMm1tASONO89eMnyVJaYtWve0sqMeQDARhNAD6Gv6+m81lwU85r+pyrmCrYbtnWLc18qOCkAwEYRQAK42be22QN/4y9ZMbjNtL4RBwYkoAP5WG7xS8bh3ErTgI8PXXqb6Xxuaa2Y6a9AGWnsnxJMGedgPlWryYfGWjMeA5xmuobeFqwK5q2Gpjq8bztvQnhHeCSWjB+AeQEJGAl5l2NbdMR35tz8L+KlhayO900lGAfBnMXXWX5xzKDWZI3779m4AM/1GpbXhJOK1dHPO5hGDLNZ7HxL/CmQRgffjss8bXpHeFOHkmt4q+bZZW834rHM2GgcQDO97AJebtfQyTzjnEq2xhkObL3XOxfusM+FfACyW9fTtAbTnDLO2bnHNJB/+06ylge4XAblzX9Q2GQXA11CzsenjApvdMAovM96opWYM904m/vwLgAXfHoDdafgj1zzyxW7KFN8C4H3nyYR/AYh7D6CAYUYtvcok72TyYjrTjFoaSkvvZHLkfvb7F4C4O97sSvQe71Ty5pdG7bSLZP7lxlIPIBieh8KqG7rCf6HIvHnCbMLQod6p5Eg9AP9dkCOrU/ChAMYz5stWfmfU0kDvVOLOvwDEW3NONGmnjoe8U8mrPxs9RT/FZHXp7Fj0O92//pJRAPwuAY4xmqJyHMvdcvDwvtEyJ62DmBkgxvwLgHsNzMkAo3Ye804k7x4xaud0twzUAxBOMmmlNgGTfzbVY2wzaceqBKeUfwGI91Bgm9PvVfMFNMK3hldM2jnWLQM9Bky9IvqZtPMP70Rc2AwJPpJC70RyoEuAWDvWaCTaOO9EXNhk3YKjvBOJM/8CEOdLgMNNWtnAfKf4fc02mg7D6yJANwFTr5dJK1OS8WZ5k9Xyskk7vb0TiTP/AhDnHsChJq1McYre3wyTVno6Ra8eQOrZ9ACs3o2Ln7kmrdgchZRSAciFTQ/gLe803NgsfB7nAqAeQIwvAVpxkEErH7HBJfoQrDF5K7Cr0zzKGgeQcj1M5nRd4J2GK4sF0Aro4p1GfKkAZK+jSSvpfAS4w3smrdgciabSTUAT8b0EaGfSyrsusYfifZNWOninEV/+BSC+2pu0kr63AHZlUwDUA8iafwFw3wVZs+kBrPFOw5V6AM78C4AFn0uAUpNWVrvEHgqb7G0mZfHg/vWXjALgw6YHkO4CUGHSis/7gHoMaMK9BmbNpgdQ6Z2GqzgXAAvuZ79/AbDgU4ttVna1mRcnrmzKn8/EoOoBpJzNRzfdBUA9AGcqANmzmcc/3QXA5kXodL5ObUIFIHvp/ujasPnuju99FPfLiGQUAJ+OlE0BKHGJPRQ2BcDmQqKp3LvvFvwLgHsNzJpNAWjvnYarNiat+BQAC+5nv38BiC+bewA2DxPjymYMn3oAWUtGAfA5FOUmraS7ANiM4lcPIGv+BcB9F2TN5jWedL/LbtMDiO9NQHf+BSC+bAbx2kwrFleHmLRi0xdrqvi+yL4L/wIQ35cqbQpAT5fYQ2Ezn98K7zTiy78AxJdNATjMOw1XcS4A6gGk3FqT5wDpvgQ4xqCNCtZ5pxFf/gUgvpcAdaw1aKVXikcClNLDoBWbSUWaTo8BU8/i1CvgRO803PQz+RDF+Q6ALgFizWZK7wHeabg5xaQVm5mFU8q/AMT3EsBqSu+TnaL3d7pJK149AN0ETD2bHsBpybiazMIZJq3M804jzvwLQJx7ADYF4ED6O8Xvq4/RKMjZTvGrB5B6S6g2aWe4dyIubLLezBLvROJMBSAXtSwyaSedBeB8k1beiPV8QOoBxPoSAN4waeU0DnDLwMunONOkHZsjkI1E3LnxLwDxNtWkleZ81juRvPus0Vy+c7wTiTf/AuDeCcrJK0btXOWdSN5datTOXLcMdBMwGH6dsflG49AHpuyloAM5x6SdcsdLgERIRgHwk+FVk3YKuNI7lbz6Mi1N2pnEVrcc1AMw4b4LcmR3EWCz0lAcFPAlo5bGe6cSd/4FwILn/dgpRu305GLHLPLrQrOXoONeANy//pJRADy9TplRSzd5p5I33zVq5yOjtzGyo8eAJtxrYI5q+KdRSydzlncyeXEKg4xaGh/7s8c9fv8CYMG3Fo8xaykdfYDbzFryvQBQD8CEew3M2XNUGbV0AQO9k4ncyWYDn7ea9b1SLBkFwLcWbzb8JvpJMr5X9uEeswxfTMBcgO5ff/4FIAlZjDFr6TQucc4lWpcZDQAC+KtzLt5nXUKSsHiXy/tb8ynDpcJ/bLRibohKuM+srQqeds7G4rNjs76kcxK5sSgA3lmsNbwI6JXgW4F30N2srbFsds7G4qxzf5XZ+6Njswv8x9D9wbCtW+njnU4k+vBNw9b+5p2OCoANi06QfxZPs9KsrVb8IYCSZq0ZvzUa/w+wgee9E1IBsJGESwDYyp8MWzuVUd4JmbvZaAKQ7R40mowtFxZF2v0egL8PyeS8jfFOAjiUWoNMdmyVnOCdkKlTqTHcO7VBLKg21iATr1WNPuH/3ZmMSwB4l4mGrRXxaIKWDDuARwy7//A073qnhC4BjCTjJiDA/aatHcZD7o83bTTjfznEtMVfeaf0cV65UwFIyD0AgCd5x7S9z5q9Nefr+8azHr/FS94pARoHYCQ5BaCWe4xbvCcB4wIv5y7jFn/hndLH1AMwkZR7AACjjReqbMbDMX89aCh/Nj46K92HAO9gceGpApCgHgBs5SfGLRbxDMd6p5W1k3jSaPLvne6mwjutj6kHYCI5NwEBHuQj4xZLeSamMwYfwbO0NW7zPR7wTusTugdgIkmXAFDFveZt9mASR3on1mRHMI5O5q3eGcAAoB3UAzCRpEsAgPv5wLzN7rwcs/cDTmKq8aM/gEX82TuxXagAmEhaAdjC9yNo9UAmcrJ3ao02lIkRfPvD7YavXedOBcBEsi4BAP7KtAha7cQks+W0ovV5njG/9geYy6Peqe1G9wBMJOsmIECGUZFU9tY8wm2Bjw4s4Bb+1/zOP0CGb/h/X+4mEY8B/U0zeKVitncSe/mj4asvu2+PUOKdXIM68mxkef/eO7m9zDHIymZhuVibarAb3/JOYi9dKIvso7CMM7zTq9cAlkaW81o6eqe3l3kGeVmtK5U1/0uAGoM2ouhy5mYVd0bW9iFM5OYAjtyumnELU+kZWfvfZa13inuxmLsxnIeabl4w+U4MT3OTvk3D2ySO9k7xE/2YHHGuId75eM8gs2e9k/D/HrGogSHOo1vLVWyJsP1BzOUuWnunSQn3Mdt0tp891XAd7vPn18PirLPo/8bc4wZ1NNQFIq6P9HsxQ4YlXOSa4aWsiDzHG70PYwM2GOT2d+8k/P3FYDeWeyfRgALGRf7xyDDVaVHRU5mQh+yeD7L7D1BhkN3D3kn4+6PBbgy3I9WDjXn4kGR4kVPzmtcA/pmXvFZxoPchbNA2g/we9E4iGfcAWgb7LfE+1+fl9wxlGq9yuenMe/Ur4CImMYML8pBVhqsNp1u31dxkIJCeAvBLk2+KEG8D7vCrvHxXbt9W8J/0iCyTbvyAJXnM5mfeh24fik0y/Ll3Gv7uNdmR4Y6Og5YRPyTbc6tlMtcZv4zzKb7I82zNax6zgi7r7U1y/LF3Gv5+ZLIjwxsntqsuvJ/Xj06GDFuZwC2cnHNHtQ83Mo7qvMf/geE6glHobJLlf3un0cI7AKMbeOGNBdzVKi5hUp6/z1pwDudwN+t5mRnMZQ5rmvDTpfTjZAZyBl3yu6s+VslnIphXwZLN0XS/fa0CkB8zuN50AdHGO4CLuRiAD3iT5XzAclawmgq2UEMZdZTQgmI60IEu9KAXvTg6gsk8miLDVbzmGsH+2Zxx7jcB/QuAzS7wHxG3Pw/Sh2+7RtA98E71TrfzmHcI+1Vk0op7DyAZjwGhjXcajXCj/1PfWHjMfCWBKNicce49AP8CYDPJc7F3Go2Q4es85R1E8MYxkhBH/u/JpgBE+bZIo/gXAJtdEIceAGzjUl70DiJoU/gsVd5BNIrNV477GgcqAPlVwyXB397yM40L/L8TG0k9ACPpuQTYrpzhzPcOIkgzOT/Y17r2ZlMA1ANIWQ8AYC1nMt07iOC8wXA2eQfRBDZfOeoBpLAAwHrOY6J3EEGZzrms9w6iSdQDMJLGArD9QuAJ7yCCMZZzg53UpSHqARhJZwGAai7TuAAA/sjF/t+ETaYegJG03QTcqZav8j/eQTjLcBtfCmrBr8bSUwAjFSbDPuLXAwDI8B2upNI7DDe1fN3/fbgsWZxxGf9j718AbHZCPAsAwP8ykOXeQbhYw3Ae8A4iaxZ9zkr/MY/+BQA2G7QR3wIAszmJl7yDyLvJ9GecdxA5sCgA7hcAYRQAi7sANu9meVnLsFTNDZPhlwzhQ+8wcmJRANxvAYZRACzqYPivA+/bNm7mP9joHUZebOAzjGKrdxg5svjKUQ8AUA9gh7/QL9ad4saZwomM9Q7CgC4BzKgA7LCCYXzN5J5ImCq4mbNY6h2GCYs+py4BAJs6GPKswE2R4QGOZZJ3GJGYTH9+TK13GEbaGrShHgBgUwfDnhW4aZZyLjfG6sWY/SvjK5zFYu8wDHUwaEMFALC6BIjjWMCG1PIzjuQh6rwDMZHh7/ThQf9n3obamUwKqgIAQJlJK0nqAwCs5MuczCveYeRsOoO4PPApvpvO4vufEHp5IRSApsxX37CkFQCA2Qzi0yzzDiNri7iU05niHUYEbM42mzM/J8kpAHGZ8rqpxtKH78Rw0MwavkFfHktUx3+ng0xaWe2dRhgFwGY3+C5lEaUK/odeXBWjW2jLuZkj+HXsB/s0zOZsUwEArHbDwd5pRKqG0fThKhZ6B7Jf/+IqjuDHRnd2QmVTAHQJAFjthmQXAICtjKYvl/BCsE8HJjCM4xid4G/+HWzOtgAKQAhKTNZZneWdRh714i4+yPt6vfvaPuSn9PXeLXk0x2SvJWX4Ws7WGuzMcgq808irFnyGZ9jm/tGv4G8Mz3kR8nhpxhaDPafv/0+8ZnIqJvc2YMM6cDVjqHD56Fczga9Q6r0LHBxqsv9meqcRjsdNduhw7zTctOYi7mdV3j76qxjNiFR+9Le70GQvPuqdBoSwPDhgNNSlD895J+KkkrGM5XpOYCCDOCOyQVGbmMV4nuMN74SdHW3SyjLvNCBZBeAE7zScbWMmM/kZBRzNQAZyLEdRaNBuNXOZxSxm8Xawzx/y60STVpZ5pwGhFIBFJq2c7J1GIDLMZz4PAM3pyTEczVEcQw86NvoFlq28x7sfb0t4KwWP9ZpmgEkrb3unAQRy57w7KwxaydApduvL5NcBdKETXehCG6DVLlOpbmYTZWyijDLW8GEsZ+rPl45G9++7stI7lXCsM7mtcp53GpICw03O1bXeaWwXwkhAgHkmrZzmnYakgM1ZZnPG5yxZBeAs7zQkBc42aeUt7zS2C6UA2OyOU2M/PbiErtjoFuB870S2C6UAzDZppYhTvRORhDvdZDIweM07ke1CKQBzqDFp5xzvRCThbC4AakIZTBVKAajiXybtXOCdiCTchSatzKXKO5HtQikAGL0acbzRZE0i9elBP5N2ZngnskPSCkCB+gASoYuMhs4F8yZgOAXAqibadNFE6vNvRu0EUwDCUcBHJiOsKlP8mqpEqz1VJudoQHM8h9MDyDDRpJ0i/t07FUmoi03eroQJ3onsFE4BgJeM2vm8dyKSUJcbtWPzVZc4NhMtZdhKF+9UJIE6sdXoDO3pncpOIfUA3jWaIqGFWaUW2ekKo9kzloYxFch2IRUAGG/UzrWBzHMgyVHAtUYtWZ3lCfQZoy5WhiHeqUjCnGd2bl7knUq4is0muH7KOxVJmLFGZ+YWir1TCZnVbq4zGrIpAnAcdUZn5hjvVHYX1j0AGGvUTgG3eKciCfIDs7tKVmd4QnU1q7TbOMo7GUmIY8yWYKvlQO9kQjfV7GbLP7xTkYR42uycnOKdSvi+YbazMwz0TkYSYJDhGXmddzLh62w23irDjODucUjcNDdaujZDhq109k4nDp4zrLhWgzckrSx7pGldu7KJRhru8jK6eacjMXYgGwzPxpHe6cRDCVsMd/rj3ulIjD1peCZW0M47nbh40HC3Z7jSOx2JqS+anocPeqcTHyea7vgNHOydkMRQT8pMz0ObRcVTYrrprp9utJiDpEdLwxEpGTJM804oXq403fkZfuGdkMTMb4zPwP/wTiheClllfACu8E5JYsTySVSGDCuNZhNMkZuND0Elp3unJDEx0Gj2353b97xTip92rDc+CKs51DspiYEjWGt85q3XA8Bs3Gl8GDK8o2FBsh/dedf8vPuhd1Lx1IFy80PxtmYMln3oxDzzc24zHb3Tiqu7zQ9Ghjl08k5LAtWZuRGccT/yTiu+SsyfBWTIsEArCEs9uvJmBGfbGi1Vl4tRERySDO9wmHdiEpgjIrj2z5Dhm96JxVsrFkdyWNYx2Ds1CcjprI7kPFuiMai5uiySA5Ohii94pyaBGGn+3H/Hdol3akkwPqKDk+F+1efUa8E9kZ1fL3onlwxHRlafM0zTm4Kp1pMZkZ1blRzhnV5S/DCyg5ShjGu80xMnI8xHm+663e6dXnIURXQrcMf2hGZrT52uprP97L0tosg7xSQ5w2xphvq3jYyiuXeSkifNGGk+3n/3rVZPmazdG+kBy5BhFmd6Jyl5MNhwou+Gtp94J5k8RZGM09pzG8PR3olKhI4xXOWn4e0Nvf0fhf5U5+Hg1TJWs7clUj9GGy460/BWxbHeqSbVjXk4fBky1PE0Q8zWgxVvBQxlrNmys/vbbvBON7kKIr5zu/u2kFF6czD2OjGKhXk8ax7TF0eUSliQx4OZYRtTGKX3uWOplJGMpSav58sizf0TteOoyOshzZChimf4ul4ijo0eXMs/Ixw/2tC2mb7eqafBFXm7mttzm81dnEtr7x0gDShmCD9ijtPZUcdl3jsgLW53OsQ7+gOTuIPz6eC9G+RjHRjOD5mcl6dEDW//6b0bshHPGxYFjA5ioYUlzGI281nAMuq8g0mZZvTkaI7hBAYEMdvzn7naO4RsxLMAQCHjghq3V8lClrKc5SzjQ1azjs3eISVMWzrQmW705BAOoRdHBXUp9jLDqPEOIhtxLQBwABODHnBRzToq2Ugtm6hhC5uppoxKqiijms1spoaNVFFJho1ANRXeIedRMYVAewpoTRHtaUVb2lJIKUW0ppRC2tKGVrSjOe1pTYegx9bN5Ww2egeRnfgWAOjCZHp7B2FsM1vrKQhVVO72ryqpauDn6yiLOMJSmjXwN0V7fCcX7/Kh3fmBb0nbiCPMt4UMZrV3ENmKcwGAg5hML+8gJNXeYxDLvYPIXrPcm3C0gvP40DsISbEPOCfOH/+4FwB4hzNY4h2EpNRyzor72Rf3AgDLOJN53kFICr3NQN7xDiJX8S8A8BHn8IZ3EJIy8zibFd5B5C4JBQBWcw6TvYOQFHmZM/nIOwgLySgAsJ6hjPYOQlLiTwxjg3cQNpIzEWYtY9jIeTF/sCmhy3An36bWOwwrySkAADNYzHBaeochibWFkfzaOwhLyfu+PJrHOcY7CEmkRVzCm95B2ErKPYCdFnAqj3kHIQn0FKck7eOftEuA7Wp4nHLOSmRu4qOa7/LtBt/AiLHkXQLs0JeH6e8dhCTCPK5kjncQ0Ujut+Rq/kRLTkvgRY7kU4ZfMSIJQ37ql9wewHaD+QOHewchsbWYL/OKdxBRSm4PYLvl/I4tDKSFdyASO1u5l8t41zuMaCW9B7Dd4fx/hnkHIbEyketY6B1E9NJxhfwO5ye/louZxYzgnDR8/NPSA9iuJV/kTrp4hyFBW8dP+TnV3mHkS9LvAeyqjtf5PXA8rbxDkSCVcy+X8lJyRvrvX5p6ADt04Jt8kwO8w5CgbOK3/IT13mHkWxoLAEA7rucGOnuHIUFYxc/4LeXeYXhIawEAKOTTXMMQ7zDE1es8wMN7TLueImkuANudxHVcHtQqM5IflfyNXzPbOwxfKgAAxfwbIxmmmQRSopbpjOYRNnkH4k8FYKfOjODzensg0eqYyiM8ylrvQEKhArCnjlzAhQxP3AJWaVfJVJ7hMS0kszsVgPoVM4SLOFcLjyXAEiYwlgnpvdG3LyoA+9aNMxjC+RzsHYg02SomM55xLPUOJGQqAI3Tm1MYwCn0143CwNUwh5nMYEb8V+3JBxWApinieE6gL8fQV2MJA7KWt5jPW8xmDjXewcSJCkD2utKH3vSkFz3pSUfvcFJmNctYxlKWsYi3WO0dTlypAFhpy0F0pCNd6ExH2tGGEgppRzGFfIpWtPEOMGbKqWYTFVSzgWoq2MRm1rCKNaxhLSuo8A4wGVQA8qcthZRSRGtKaUUJbWhFW1rSjFKgiNZAO5rTnHZAMYW7/GwLSnZrq81+32jc3oqVTft9Q66GLbv9uZxtu/ypmoqPW6llE1BJFVBGHVvZTDUVe33gRURERERERERERERERERERERERERERERERERERERERERERERERERERERERERERERERERERERERERERERERERERERERERERERERERERERERERERERERERERERERERERERERERERERERERERERERERERERERERERERERERERERERCQ2/g9L7GA+DOK0ngAAAABJRU5ErkJggg==;imageBackground=default;imageBorder=#FFB570;" vertex="1" parent="1">
          <mxGeometry x="341" y="692" width="26" height="26" as="geometry" />
        </mxCell>
        <mxCell id="OsdIBWx6J7-D4pMph346-19" value="" style="shape=image;verticalLabelPosition=bottom;verticalAlign=top;imageAspect=0;aspect=fixed;image=data:image/png,iVBORw0KGgoAAAANSUhEUgAAAgAAAAIACAMAAADDpiTIAAAAA3NCSVQICAjb4U/gAAAACXBIWXMAAA3lAAAN5QHm6mmvAAAAGXRFWHRTb2Z0d2FyZQB3d3cuaW5rc2NhcGUub3Jnm+48GgAAAppQTFRF////AAAAAAAAAAAAAAAAAAAAAAAAAAAAAAAAAAAAAAAAAAAAAAAAAAAAAAAAAAAAAAAAAAAAAAAAAAAAAAAAAAAAAAAAAAAAAAAAAAAAAAAAAAAAAAAAAAAAAAAAAAAAAAAAAAAAAAAAAAAAAAAAAAAAAAAAAAAAAAAAAAAAAAAAAAAAAAAAAAAAAAAAAAAAAAAAAAAAAAAAAAAAAAAAAAAAAAAAAAAAAAAAAAAAAAAAAAAAAAAAAAAAAAAAAAAAAAAAAAAAAAAAAAAAAAAAAAAAAAAAAAAAAAAAAAAAAAAAAAAAAAAAAAAAAAAAAAAAAAAAAAAAAAAAAAAAAAAAAAAAAAAAAAAAAAAAAAAAAAAAAAAAAAAAAAAAAAAAAAAAAAAAAAAAAAAAAAAAAAAAAAAAAAAAAAAAAAAAAAAAAAAAAAAAAAAAAAAAAAAAAAAAAAAAAAAAAAAAAAAAAAAAAAAAAAAAAAAAAAAAAAAAAAAAAAAAAAAAAAAAAAAAAAAAAAAAAAAAAAAAAAAAAAAAAAAAAAAAAAAAAAAAAAAAAAAAAAAAAAAAAAAAAAAAAAAAAAAAAAAAAAAAAAAAAAAAAAAAAAAAAAAAAAAAAAAAAAAAAAAAAAAAAAAAAAAAAAAAAAAAAAAAAAAAAAAAAAAAAAAAAAAAAAAAAAAAAAAAAAAAAAAAAAAAAAAAAAAAAAAAAAAAAAAAAAAAAAAAAAAAAAAAAAAAAAAAAAAAAAAAAAAAAAAAAAAAAAAAAAAAAAAAAAAAAAAAAAAAAAAAAAAAAAAAAAAAAAAAAAAAAAAAAAAAAAAAAAAAAAAAAAAAAAAAAAAAAAAAAAAAAAAAAAAAAAAAAAAAAAAAAAAAAAAAAAAAAAAAAAAAAAAAHx4VugAAAN10Uk5TAAECAwQFBgcICQoLDA0ODxAREhMUFRYXGRobHB0eHyEiIyUmJygpKissLS4vMDEyMzQ1Njc4OTo7PD0+QEFCQ0VGR0hKS0xNUFFSU1RWWFlaW1xdXl9hY2RlZmdoaWtsbm9wcXN1d3h6e3x9fn+AgYOEhYaHiIuNjo+QkZOUlpeYmZqbnJ2en6ChoqOkpaanqKmqrK2ur7Cys7S1tre6u7y9v8DBwsPExcbIycrLzM7P0NHS09TW2Nna29zd3t/g4eLj5ebn6Onq6+zt7u/w8fLz9PX29/j5+vv8/f5zlFeRAAAOSklEQVR42u3d+38U1RmA8TeSxUQuQQ2EoNTYNF5AqU1qq03UysVIy1ZjWsEt1VhABINi0gpFVIK21bZQJKgpWGu9RNZFGowiEFdrAO1qCwtkUbM7/0t/EBWBJHs5Z2bOnOf5A5j5vO+XZLM7OyOSbWV1zW2d0d54IuWQT0sl4r3RzrbmujJRW3m4o4/xmlRfR7hc1farWnsyTNS8Mj2tVYVvf0Kkm1GaW3dkQkHrH98+wBDNbqB9fN7rD7UkGKD5JVpC+e0/zOu+oLwiDOex/voYgwtOsfoc11/dxdCCVVd1LvtvTDKxoJVszH7/S9PMK3ill2a5/pINDCuYbSjJZv+VO5hUUNtROfL+a/czp+C2v3ak/TfxWV+gSzWNsH9GFPSGFVDL///g/wwY5rdAJb//bXgdMOQrwRJe/9vxt8BQfw3y978t7wcM8f4fk7GlM74n2Mj7v9aUPsPnAtV8/mNRydM/G+TzX6vqOu36D2ZiV6deIcL1P5YVO+X6PyZiW9+4TjDE9Z/W1XfytcItzMO+Wk76/gfX/1tY4utvjLQzDRtr/+r7f3z/y8oGvvzeYIRZ2FnkBAC+/2tp3Se+/88kbO2L+we0MghbaxURkR4GYWs9IiLl3P/F2jLlfAxgd2ER6WAM9tYhInwOZHF9ImVMwebKpI4h2FydNDMEm2uWNoZgc23SyRBsrlOiDMHmotLLEGyuV+IMwebiwuWAVpcQ7glidSlhBnYHAAAQAAgABAACAAGAAEAAIAAQAAgABAACAAGAAEAAIADk2+CBnV3rVtwxZ0bNdU1LVm96dd8xxm8NgExs2bRRp92ifuJtm3lKgQUAUlsjk4d6UNXomY/2s4UgAzj+5NwxIzyt9KoH4iwioADST03N5oHVobs+YhVBBLBtWpaPrJex9x9hGUEDEGuQHJq09jPWESQAe+dJjlVt5I51wQGwqVRybx5vDQQEQGa55NWMD1hJEAAcnSt5VsENKwIA4P3pkndnP8lSTAfQPVEKaTEPMTYbwMbRUlhzPmUvBgPoLnT/IvPZi7kA3p8ohbeGxZgK4Oh0BfuXUS+wGTMBZOaKks7dy2qMBLBcFFVzmN0YCGCTKGs2fwyaB2BvqToAspLlGAdgnsL9y5iDbMcwADFR2kK2YxiABrUAit9hPUYB2CaKm8t6TAKQnqYagGxnPwYBeEr5/uUa9mMOgONT1QOQZ1mQMQCe1LB/uZoFGQNgrg4ARbwXYAqA1BgdAGQ9GzIEwFYt+5eb2JAhACJ6AJTyRQEzAGQm6wEgz7EiIwDENO1fbmdFRgBYpgvAJC4LMALANF0AeDvYCACDo7QBeIwdGQDggLb9Sys7MgDATn0AFrAjAwB06QMwmx0ZAGCdPgBXsiMDAKzQB6CCHRkA4A59AIo+Z0n+BzBHHwDhRqIGAJihEUCMJfkfQI1GAC+zJP8DuE4jgD0syf8AmjQC4BayBgBYom//49iRAQBW6wNQzY4MALBJH4AGdmQAgFf1AbiVHRkAYJ8+AIvZkQEAjukDsIodGQDAmagNwBZ2ZAKA23Ttv/h/7MgEAJt1AbieFRkBIDlaE4CHWZERAJyZmgC8x4rMAPConv1PZ0OGAOjXA2A5GzIEgHOVFgBvsCFTADygY/9TeJCgMQDiIX4DWA3AuUv9/su5Z7xBAD4aqxwAT44xCYBzv+r9X8TTw4wCcGSSYgAbWY9RAJy1avf/Xf4EMAzAZ1VKAfyD7RgGwNmocv83shzjAGQUPjPm/DjLMQ6Ac0zZlwSLX2I3BgJwPqhQBOBRVmMkACd6tpL9/4rNGApAzXMDGrgrhLEAnMUK3gL8mMWYCyBd8O1Cxr3FXgwG4Hw6v8D//+zfbACOs6aQO8c28PPfeADOC+fm//qf138BAODszfOuQcX8/R8MAM7h2Xm9/8v7f0EB4KRX5v4csRvjLCQwABzn4MLi3D7/5/PfYAFwnHdyeJrkRRu5/iNwABxn+zVZXv+7huv/AgnAcZ69umjk738s5/rvwAJwnIPrbyod7vufy9/gh3+gATiOc+y52894yXDx9Q/z/W8bADiOk97+WOuC2VdWfPELYVx1w62LV23h/i/2APiyz/tjL+/h/r/2AiAAEAAIAAQAAgABgABAACAAEAAIAAQAAgABgABAACAAEAAIAAQAAgABgABAACAAEAAIAAQAAgABgABAACAAEAAIAAQAAoA3ZT7Zs33ri7Hd/YfTALCqf//17rk/umTiSY/MGTO5Zs7ix7sTAAh6x6Orflo5zLMwrpm/5s0MAALaW/f+IJtHpk762RPvASB4P/d/Oz2H52JcHNmcDCqA1C6F9Ztx/E/W1Rfl+micc5r/mQkkgF2isIUGHD/9TGMov3996vJ9ADAdwOCfLynkANc+cQQABgP49PGLCz3E+SsPAcBQAKm1F6o4SNl9nwDAQABHH6pQdZhx9/wHAKYB6LpQ5YHOWfQxAEwCcGCeKK78jwAwBkBmXZmor343AMwAsPta0VLo3gEA+B/A8dbRoquqvwPA7wD2XCY6az4CAF8D6CoTvX3nTQD4F0Dm/iLRXcl6APgVwKFGcaNbkgDwJYDd1eJO1bsA4EMAz4wTtyr5EwB8B+ChInGvolUA8BmA1eJu9wDAVwAeEbebPwgA/wDoKHIdgNycAoBfAPzBg/2LNBwGgD+O/5ezxJO+lwSAH47/9CjxqOuPA8D740eLxbN+kgaA18f/77fEw+4AgNfHv1k87V4AeHv8teJxvwOAl8f/19leAyjaCADvjn/k2+J557wNAK+O/8sm8UGXHgWAR8evFF/0cwB4dHy/9HsA2A2g9C0AWA1Aao4CwGoA8gsA2A1AXgSA3QCqjwPAagDyAADsBlDSBwCrAchMANgNQDYDwG4AlUkAWA1A2+tAABjSeUkAWA1AfgMAuwFMPAYAqwHIagDYDWByCgBWA5BHAGA3gAs/A4DVAOQ5ANgN4GYA2A0glACA1QBkDQDsBjADAHYDkDcB4BcA4y6fNX/F+ud7e59fv2L+rMtdupHkIgD4AkDlnS+dciO3wZfudOO7ZJM+B4DnAKYueu2MD37NvLZoqvaDvwoAjwHcEB3uDKI3aD58KwA8BXDZtpHOYZvep4r8EAAeAqjoyOIWroMdFRpPoTgJAK8AlN6X5TN9jtxXqu8s/gYAjwBM2Zn9ieycou00fg0AbwDUHcjlTA7U6TqPywHgCYBbcrwcJ3WLrjP5EADuAyh6MPeTeVDTXcafBoDrAEJb8pnGlpAJ7wQAIIvyfJrfei0nEwaA2wDuznced+s4m+kAcBnAzLwf4DM4U8PplKQB4CqAmkP5D+RQjYYTigPATQDn7StkIvvOU39GzwPATQBbCxvJVvVntBoALgKYVehMZik/pQgA3AMwquDbtb+t/KlTPwaAewAU/G+LqD6n7wPANQBjFbzx/uFYxSd1KQBcA7BSxVRWKj6pCwDgFoApAyqmMqD44oAyALgFYJmasSxTe1ZnAcAtAD1qxtKj+LSOAsAdAFWq5lKl9rwOAsAdAEtUzWWJ2vPaCwB3ALyuai6vqz2vXQBwBcAFGVVzyVwAAAMBtKgbTAsADASwQd1gNgDAQACvqBvMKwAwEMC76gbzLgAMBKDwzqwpAJgHoFzlZMoBYByAK1RO5goAGAdgjsrJzAGAcQAWqJzMAgAYB2ChysksBAAAAAAAAAAAAAAAAAAAAAAAAAAAAAAAAAAAAAAAAAAAAAAAAAAAAAAAAAAAAAAAAAAAAAAAAAAAAAAAAAAAAAAAAAAAAAAAAAAAAAAAAAAAAAAAAAAAAAAAAAAAAAAAAAAAAAAAAAAAAAAAAAAAAAAAAAAAAAAAAAAAAAAAAAAAAAAAAAAAAAAAAAAAAAAAAAAAAAAAAAAAAAAAAAAAAAAAAAAAAAAAAAAAAAAAAAAAAAAAAAAAAAAAAAAAAAAAAAAAAAAAAAAAAAAAAAAAAAAAAAAAAAAAAAAAAAAAAAAAAAAAAAAAAAAAAAAAAAAAAAAAAAAAAAAAAAAAAAAAAAAAAAAAAAAAAAAAAAAAAAAAAAAAAAAAAAAAAAAAAAAAAAAAAAAAAAAAAAAAAAAAAAAAAAAAAAAAAAAAAAAAAAAAAAAAAAAAAAAAAAAAAAAAAAAAAAAAAAAAAAAAAAAAAAAAAAAAAAAAAAAAAAAAAKAHQGqXwvrNO/7Q9as8s5RvAZB5AQAABAACAAGAAEAAIAAQAAgABAACAAGAAEAAIAAQAAgABAACAAGAAEAAIACQwQBSzMDmUpJgCDaXkDhDsLm49DIEm+uVKEOwuah0MgSb65Q2hmBzbdLMEGyuWeoYgs3VSRlDsLkykT6mYG99ItLBGOytQ0TCjMHewiJSnmEOtpYpFxHpYRC21iMiIq0MwtZaRUSkikHYWtUX957tZhJ21n3i5sMRRmFnkRMAJgwwCxsbmPDl/cfbGYaNtX91A/rxXBhoYYnxXz+CoIVx2FfLSc+gCPGJkHX1hU5+CgkfCFhX+JvPoYkxEbuKnfIgonpGYlf1pz6KqouZ2FTXac8iq04yFXtKVp/+NLrGNHOxpXTjmZ5HuJTB2NLSMz+RcgOTsaMNQzyStGQHs7GhHSVDPZS2cj/TCX77K4d+LHEt9wsJfKna4R5M3cSAgl7T8I8mb+JnQLD//zeN9HD6Wl4HBPn3f62MWCV/CwT39X+lZFEJ7wcE9e//EsmupbwrHMDSSyXrGvlkKHAlGyWHqvl0OGB1VUtu1XONUICK1UvuhblSNCD1hSWvQi18XyAAJVpCkm/j2/nWmOENtI+XQpoQ4bvDBtcdmSAFV9Xaw11kDCzT01oliioPd/CK0KzXfR3hclFbWV1zW2e0N57g80LflkrEe6Odbc11ZVmv9f/LPvDdaNdQNAAAAABJRU5ErkJggg==;imageBackground=default;imageBorder=#FFB570;" vertex="1" parent="1">
          <mxGeometry x="380" y="688" width="32" height="32" as="geometry" />
        </mxCell>
        <mxCell id="OsdIBWx6J7-D4pMph346-20" value="&lt;font color=&quot;#ffffff&quot;&gt;fale comigo&lt;/font&gt;" style="text;html=1;align=center;verticalAlign=middle;whiteSpace=wrap;rounded=0;" vertex="1" parent="1">
          <mxGeometry x="279.5" y="750" width="100" height="30" as="geometry" />
        </mxCell>
        <mxCell id="OsdIBWx6J7-D4pMph346-21" value="" style="rounded=0;whiteSpace=wrap;html=1;fillColor=#000000;" vertex="1" parent="1">
          <mxGeometry x="-1" y="920" width="661" height="190" as="geometry" />
        </mxCell>
        <mxCell id="OsdIBWx6J7-D4pMph346-22" value="nome" style="rounded=0;whiteSpace=wrap;html=1;fillColor=#FFB570;" vertex="1" parent="1">
          <mxGeometry x="260" y="790" width="120" height="30" as="geometry" />
        </mxCell>
        <mxCell id="OsdIBWx6J7-D4pMph346-23" value="email" style="rounded=0;whiteSpace=wrap;html=1;fillColor=#FFB570;" vertex="1" parent="1">
          <mxGeometry x="260" y="840" width="120" height="30" as="geometry" />
        </mxCell>
        <mxCell id="OsdIBWx6J7-D4pMph346-24" value="telefone" style="rounded=0;whiteSpace=wrap;html=1;fillColor=#FFB570;" vertex="1" parent="1">
          <mxGeometry x="260" y="890" width="120" height="30" as="geometry" />
        </mxCell>
        <mxCell id="OsdIBWx6J7-D4pMph346-25" value="mensagem" style="rounded=0;whiteSpace=wrap;html=1;fillColor=#FFB570;" vertex="1" parent="1">
          <mxGeometry x="260" y="940" width="120" height="30" as="geometry" />
        </mxCell>
        <mxCell id="OsdIBWx6J7-D4pMph346-26" value="enviar" style="rounded=0;whiteSpace=wrap;html=1;fillColor=#FFB570;" vertex="1" parent="1">
          <mxGeometry x="295" y="980" width="50" height="20" as="geometry" />
        </mxCell>
        <mxCell id="OsdIBWx6J7-D4pMph346-27" value="" style="shape=image;verticalLabelPosition=bottom;verticalAlign=top;imageAspect=0;aspect=fixed;image=data:image/png,iVBORw0KGgoAAAANSUhEUgAAAgAAAAIACAYAAAD0eNT6AAAABHNCSVQICAgIfAhkiAAAAAlwSFlzAABOvQAATr0Bc2poFAAAABl0RVh0U29mdHdhcmUAd3d3Lmlua3NjYXBlLm9yZ5vuPBoAACAASURBVHic7d13nB5Vvcfxz6YXSkhCSABJAEEIEHoHRYpUuYKAoPSOgDSlqFwFFC5XLAhIly7S4SJSpPdepfcSSiqB9GQ394+z64Zkd595njlnfufMfN+v1/e1uTHsPfObeWbOMzPnnCZEJEVNwMLAIGBw68+5/9z2sy/QG+jVQTr7+9nAzHkyo4u/mwFMBMYB41szbp6fE1p/r4hEosm6ASIynz7AcGAEsHTrzxHA4rRf3AcCPUxa15g5wCTaOwRjgPda8+5cPz83aZ1IBakDIFK8brgLe9vFfd6fQ6nuZ3MS83cK3mvNm8A0m2aJlE9VTzIiRRkCrDJXRgEjgX6WjUpUC/AW8BLwYuvPl4B3Wv83EamDOgAifvTFXdhH8dUL/mKWjaqIKcDLtHcI2joI4ywbJRI7dQBEGrMssAGwYevPlXC39iUeo4FHgUdafz6HXkQU+Q91AERq6wWsQfvFfkP0zT5FU4GnaO8QPIobvSBSSeoAiMxvILAR7Rf8tXBv5ku5zAFepf0uwcO4dwxEKkEdABF3635NYGtgK2AdoLtpi8TKO8DtwB3Afbj3C0RKSR0AqaohwHdwF/3v4MbWi8xtBvAQrjNwB+5FQ5HSUAdAqqI7sB7uG/7WuGf6Ov6lHh/iOgK3A/cAX9g2RyQfnQClzHrjLvi7ANsAA2ybIyUyG3d34HrgBuAz2+aI1E8dACmb3sCWuIv+9sCCts2RCmgBHgSuBW5EnQFJhDoAUgZtF/2dcRf9hWybIxXWAjwAXIe7MzDGtjkinVMHQFLVG/fyXts3fV30JTbNtHcGbkSdARGRXNYEzsWtGjdHURLJbNzLgzsCPRGJgO4ASAoGAD8C9gdWM26LSF5jgMuAi4A3jNsiFaYOgMTsm7iL/k64xXZEyuZBXEfgerTUsRRMHQCJzRBgL9yFf3njtogU5XPgKlxn4HnjtkhFqAMgsdgMOAT3Qp+ekUqVPQNcAFyB7gpIQOoAiKWewK7AMcCqxm0Ric044C/AOWgEgQSgDoBYGAAcBPwEWNy4LSKxm4G7G/AH3OqFIiLJWRo4E/gS+2FZipJaWoDbgE0REUnEerjJUGZjfxJVlDLkOWB39L6MiERqe+AR7E+WilLWfAT8DOiPiEgEtgWexv7kqChVyRjgp0A/REQMbAU8gf3JUFGqmk+BI4E+iIgUYHPgUexPfoqiuHwMHI5bNEtExLtNcFOZWp/sFEXpOB/iJtjqhYiIBxsD92F/clMUJVveBw5AowZkLpoISOqxAvB7YBvrhohIQ97GjRq4ybohYq+bdQMkCQOBPwMvoYu/SMqWBW7E3cHT0toV1926ARK1HsBhwA245/3qMIqUwwjgQGAp3MidKaatERPqAEhntgFuBvYA+hq3RUT8awLWwK3LMQd4Cmg2bZEUSu8AyLxG4hYd2dK6ISJSqHeBY4HrrRsixdAtXWkzCLfs6Ivo4i9SRUvj1ux4EHdnQEpOjwAEYD/gVuCbqFMoUnXDce8HLAY8hFuOWEpIjwCqbTngAtwLfiIi8xoNHArcYt0Q8U/f9qqpB3AC7nb/JrZNEZGILYF7Gfh6YJhxW8Qz3QGonrWBi4BR1g2RQs3G3cqd2fqzsz/PxHUQe+Omj+3dxZ81vWy1fI57SfAi3KgBSZw6ANXRH/gN8BN05yd1zbhbsx8D44Fx8/zs6O9mBWhHN2AR3Aukg+f5Oe/fLYYbc65V6tL3IG5a4TesGyL5qANQDVsB5+Fe7pH4NQMfAe/Nlffn+vOHuG/0qWnCdQRGtGb4XH9u+78150QaZgCnAP9LmM6lFEAdgHIbCJwF/NC6IdKhFuAt4AXc+xgv4qZbTvUC78NiuLkoRs2VlVDHIFYvAfsCT1s3ROqnDkB5bQ5cinuJR+xNpP0i33bBfxmYatmoRHQHvo7rDKxKe8dAd7TiMAv4NfA/uE6tJEIdgPLpDZwKHIX2r5U5wCvAo8AjrXnLtEXlNAjYoDUb4l5w1TsGdh7GTR3+nnE7JCNdIMplZeAq9IZ/0aYCT+Iu9I8Cj+G+8UuxegGr4zoDG+I6BkNNW1Q9X+DmDbjSuiEiVdEEHAFMw337VMJmBnA3bl31tXHD5iROywB7AX8DxmJ/7FQlfwcGZNg/IpLDMOBO7D/wZc9bwNnAdrghlZKebsA6wIm4uzWzsT+uypwPgG9n2jMiUrcdceO8rT/oZcxk3PoIhwLLZt0hkpQBwM64iW0+wv6YK2OacUMFNWmUiCd9aZ+NS/GXicBfcfMm6IRVPaNwY9vfwP5YLFueA5bPvitEpCPLAs9j/4EuSyYBlwPboou+tFsNOA14G/tjtCyZhLtrKSIN+C7uW6r1Bzn1fIEbLbE9btikSFfWxN3Gfhf7Y7cMOR0tRS+SWTfcPP4t2H94U80s3KpmO6Kx4tK4dYEzcesrWB/TKedeYEidtRepnEHAXdh/YFPNm8DxaDy4+NUb2A24B3XMG81HwPr1Fl6kKtbGLQJj/UFNLdNwE5Fsgia7kvCWAX6LW6HR+thPLTOBw+ovuUi5HQhMx/4DmlKex51MFmmg3iJ5dce9p3ML7pGT9echpVwJ9Ku/5CLl0ge4BPsPZCppAW7EPZsVicUw3OI4X2D/GUklLwLLNVJskTIYAjyO/QcxhcwGrsAtHSsSqwG4mQc1YVe2TMA9uhOplJFomFGWTAfOxz13FUlFf+Bo9J5AlszErd8gUgmbofH9tTIZ+AOweIM1FolBb+Ag4B3sP1Ox5+QGayySjH1xPV7rD1usmYibnnVwowUWiVAPYA/gZew/YzHnKjRZl5RQE27okPUHLNZ8hhu/v1CjBRZJQBNucqqnsf/MxZqHcPOhiJRCH9x62dYfrBjzAXA4bsEjkSrZEngQ+89gjHkTjRCQEhiMW4vc+gMVW97APQ7p2XhpRUphI+B27D+TsWUcsHGOuoqYWh54C/sPUkx5AdgVt96BiLRbA7geaMb+cxpLpgM/zFNUEQurAWOw/wDFkk9xL0Fpql6Rrq0GPIr9ZzaWtACH5qqoSIHWR8P82jIbOAtYOFdFRaqlCfeIbCz2n+FYckKuiooUYDPcGHbrD0sMeQxYPV85RSptIHAeeizQllPzlVMknO+iBX3m4F7e2Q/d7hfxZW3gKew/2zHkbHRukcjshlYEa8ZN2zswZy1FZH7dgENw8+dbf9atcyluNUYRcwegW3RPA+vkLaSI1LQobgXRFuw/95a5HuiVs5YiuRyN/QfBMhOBH6NhfSJF2xA3rNb6HGCZ29EkYmLkV9h/AKzSgrsNNyRvEUWkYd2BI4BJ2J8TrPIAmkJcCnYK9ge+VV7AzV4mInEYhltIx/rcYJVHgQVyV1EkgxOwP+At8gVwJG5lMxGJzyZUd8XB+9DjAAnsCOwPdItcj/uWISJx6wkcB8zA/rxRdO5ALwZKIAdif4AXnWnAQT6KJyKFWgO3qp71OaTo3IzuUopnu1O9oX6vAqv4KJ6ImFgQuBr7c0nRuRqNTBJPdsLNaW99UBeZS4H+HmonIvYOAKZif14pMpegGQMlp+2AmdgfzEVlMrCnl8qJSExWpnovCJ7jpXJSSZtTrbn9XwC+4aVyIhKjfsBfsT/XFJkzvFROKmUjYAr2B29RORfo46VyIhK7HwFfYn/eKSon+SmbVMEKVGfBjc+Bnf2UTUQSsjzwHPbnoKKi0UxS02LAu9gfrEXkSWBpP2UTkQT1xi2va30uKiKzgW38lE3KqD/VWXP797gJQ0REdsQt7GV9XgqdycCanmomJdIduBX7AzR0xuFGNoiIzG0E8Dj256jQ+QQY7qdkUhbnYn9ghs5DwJK+CiYipdMT+B1utU/r81XIvAIs4qlmkrjjsD8gQ+dU3F0OEZFatqH8jwTuR+sGVN5ulLu3OxvY31u1RKQqVgY+wv4cFjJ/Q7MFVtY3KfdEP1OB7b1VS0SqZincmiDW57KQOc1btSQZZR/rPwHY0Fu1RKSqBgGPYX9OCxnNEVAhCwGvYX/QhcoHwEhv1RKRqusH3Ib9uS1UZuJmf5WSawJuwv6AC5WX0Zv+IuJfD9wqodbnuFD5BBjmq1gSp59jf6CFysNoaIuIhPU/2J/rQuURNEFaaW0JNGN/kIXILUBff6USEenUkZR39NTZHuskkRgBjMf+4AqRC9EYfxEp1m7ADOzPfyGyp8c6ibG+wLPYH1QhcrLHOomI1GNzyrms8FRgdY91EkOXYX9A+U4zcIjPIomINGBN4DPsz4m+8y4w0GOdxMCh2B9IvjMd+L7PIomI5PB14G3sz42+cwfQzWOdpEAb4MZ3Wh9EPvM58C2fRRIR8WAxyvmo9bc+iyTFGASMxv7g8ZnRwCifRRIR8Wgh4B7sz5U+04JbHEkScgv2B47vi//SXiskIuJfL9ytc+tzps98hrvDIQk4BPsDxmcm4FbmEhFJQX/gcezPnT5zB1o5MHojcUM4rA8WX5mKe5dBRCQlA4FXsD+H+sxRXiskXvUGXsD+IPGVWcC2XiskIlKcJYH3sT+X+soMYDWvFRJvzsT+APGVFmAPv+URESncCsBY7M+pvvIqbnVEicg22B8YPqNbTSJSFmtTrhkDz/dbHsljMco1E9VpfssjImJuC8q1dsAOfssjjWiiXENOLvRbHhGRaOxCeVZkHY97x0EMHYX9geArN6JV/USk3H6M/bnWV+5DUwWb+QZuXnzrg8DXgdTbb3lERKL0K+zPub5yhOfaSAZNwEPY73wfeRY3haaISFWcjf2510cmAyP8lkZqKcttpDfRFJMiUj3dgL9jfw72kTs910a6sCTwBfY7PW8+RvP7i0h19cRdPK3PxT6yl+faSCf+gf3OzpuJaGU/EZH+wBPYn5PzZjwwxHNtZB67Yb+j82YqsJHvwoiIJGoQ5Vg34BrfhZF2g4Ax2O/kvNnNd2FERBI3ArfyqfX5OW+291wXaXUF9js3b87zXhURkXLYHvtzdN58hEZ1ebc19js2b54D+vgujIhIiZyB/bk6b/RFz6MFSH9JyUnA130XRkSkZHoAj2J/zs6TFuBbvgtTVWXoEe7svSoiIuX0NWAc9uftPHkV15mRHJYHZmK/M/PkLO9VEREpt61x36Stz995cqT3qlTMbdjvxDx5GujlvSoiIuV3Kvbn8DyZCAz2XpWK2Ab7HZh352umPxGRxnQHHsD+XJ4n53qvSgX0BF7HfuflyQ7eqyIiUi3DgM+wP583mtlo1te6HYP9jsuTP/oviYhIJW0ONGN/Xm809/kvSXkthhs2Z73TGs3juDsYIiLix6+xP7fnyfe9V6SkLsZ+ZzWaCcBw/yUREam0bsDd2J/jG827aCK4mtYk3aEfLcB3/ZdERERwq+19jP25vtH8wn9JyuUR7HdSo/ldgHqIiEi7b+FerLM+3zeSycAS/ktSDikv9fsImvVJRKQIP8f+nN9oLgtQj+T1AN7Efuc0knHAkv5LIiIiHWgCbsf+3N9ImoGR/kuStv2w3zGNRuP9RUSKtSjprhdwfYB6JKsX8B72O6WR3Oq/HCIiksH+2F8DGkkLsEaAeiTpx9jvkEYyFRjhvxwiIpJBE+kuHXxbgHp0qano/4cZ9AHeBha3bkgDfg6cZt2IkhsKLIUb/rMY0BvX8ZrSQeb++2lz/Y5uQN/WvxeRchkFPEOaL2FviOvAVNbR2PfEGsmraJW/ELoBG+BWAXuRxvdPM/AlriPQ9ncTgfuBM4FNC9oeEQnvD9hfExrJvSGKkYr+wBjsd0Ij2cR/OSqtN3AE8AnF7cNrgUWK2DgRCWpB4CPsrwuNZLMA9UjCCdgXv5FcEaIYFdUD9yLPB9jsy2eBgcG3UkRC2wn7a0MjeSxEMWK3MG7efOvi15uJuOfRkt/6wBvY79Nn0BzdImVwB/bnk0ayXYhixOwk7IveSA4JUYwK2omvPp+3zu/Dbq6IFGBZ4jqvZM1zxPmSfhALk+Zyv0/iXlKTfH5GfAs+NQMbh9xoESnEf2N/Pmkk3wtRjBgdi32x681sNHFDXt2B87Dfl53l9dY2iki6ehPHo8V6U4nhgL2A0dgXu978OUQxKqQ7bvpL6/1YK3uEKoCIFGYL7M8ljWTDEMWIyV7YF7nefAwsFKIYFXI+9vsxS15Dj3lEyuAa7M8n9eamIJWIyEvYF7ne7BqkEtVxCvb7sJ7sFqYMIlKgxYEvsD+f1JNmYPkQxYjB1tgXuN78K0glquMw7PdhvXkhSCVEpGhHYH8+qTfnB6lEBO7Fvrj1ZDol7o0V4Ae4Hq31fmwkGhEgkr7uuCF21ueTejKNEs41syb2ha03JwWpRDVsAczAfh82mmv8l0REDKxHfMOOa+XkIJUwdDX2Ra0n76LZ4Rq1Gm4hHut9mCczgWG+CyMiJi7C/pxST8YB/YJUwsAI3Dh666LWk71CFKICFgbewn7/+civPNdGRGwsiXuka31OqSeHBamEgTOxL2Y9eQ1NCNOIJuBm7Pefr4wmzTXGRWR+f8L+nFJP3qYE16GFgMnYF7Oe7BKkEuWX4gyPtbKz1wqJiJXFgCnYn1PqyY5BKlGgg7EvYj15ngotyuDRt0jvMU+WPOCzSCJi6n+wP6fUkzvClKE4z2JfxHqyfZgylNpCwEfY77tQWdlfqUTE0EDSWoiuGfcOXZJSG/r3RJgylN452O+7kDnXX6lExNivsT+n1JNTglShAKnM/96WLcKUodQ2JL0xtvXmS7QWhEhZLASMx/68kjWjSfBlwAVIax7m+4NUodx6Aa9gv++KyOGeaiYi9o7H/pxST5J7NL0/9kWrJ5r6tX6/xn6/FZXX0MuhImXRHxiD/Xkla/4RpgzhPIF90bLm0UA1KLMVSXuq30ayuZfKiUgMTsT+nJI1s3GTGSVhVewLVk+SH2tp4Drs91vRKf1a3SIVMoi05gX4VZgy+JfSW+FvAt3ClKG0Vqb8L/51lNnAUh7qJyJxOAv780rWfEAC16p+wOfYFytrDglThlK7Fvv9ZpXfeqifiMRhadKawGybMGXwZy/si5Q1Y4G+YcpQWitRzW//bRmDG/0gIuXwd+zPK1kT/WPIO7EvUtb8OkwJSu0a7PebdXbPXUURiUVKE9bNAAaEKUN+i5LO7ZSpre2V7Ebipqa03nfWeSxvIUUkKvdif17Jmr0b3cjQLxDsRDozFl2OewQg2R1HAi+hFGA9YA3rRoiIN7+zbkAdfmDdgM7cj33vKEuageXClKC0+pHess4hc3G+copIZF7C/rySJbNwQxijsjjp3B5OfolFA7tgv99iylTcymIiUg4pLV1/QCMbGPL27S6Bf79PF1g3IEG7WTcgMn2Bfa0bISLe/A03MVAKonsM8Bj2vaIs+QToEagGZbUwMB37fRdb3iadTq+I1HYx9ueVLJkNDKl340KdrEbgXoxKwSW44kl2OwK9rRsRoWWArawbISLepHJ3uDvwfetGtDkO+x5RlrTgTtpSn5Tmdig6t+Woq4jE50XszytZcn+g7a/bs9gXI0vuClWAEhtCOnM7WKQFWLbh6opIbA7D/rySJc24l+8zC/EIYHlg9QC/N4RUbu/E5LukM7eDhSa0noRImVwJTLNuRAbdcHPv1PUf+BbNc4gaxgC3WDciQetaNyAB+6A1JUTK4nPccucpMO8ARL86UatLcRMoSH3Wsm5AAgaiYZIiZXKhdQMyWh/DtQEGkM7z4eUD1aDMegMzsd93KeSZBmssInF6DfvzSpbsknWDfN8B2II0ng8/C7xh3YgErQr0tG5EItbA9cZFpByutm5ARltn/Ye+OwCZ/x8b+7t1AxKl2//1OdS6ASLiTSrXja1xLyMXqgn4GPvbH7XSAiwVqAZl91fs919KmUEDs3OJSLSew/68kiVrZtkYn3cAVgOGefx9oTwGfGDdiETpDkB9egH7WzdCRLxJ5S5AppfxfXYAUrn9f411AxLVDxhp3YgEHUwa78WISG2pXD8KH433EPa3PWqlGRgaqgAltx72+y/V7NBAvUUkTiksdNcMDKq1Ib7uAAwgjTeeHwA+tW5EohazbkDC9DKgSHmk8BigG7Blln/kQyrD/1LYcbEym1yiBDYDVrBuhIh4cS3uZfLY1XwM4KsDkMLz/9nADdaNSNgi1g1I3I+tGyAiXnwCPGjdiAy2pMY13lcHYHNPvyekB4Dx1o1ImO4A5LMXsIB1I0TEixS+TA7Gjc7rlI8OwNdaE7vbrRuQON0ByGchYA/rRoiIF6lcTzbs6n/00QHYyMPvKEIqOyxW6gDkp8cAIuXwNvCmdSMy6PL67KMD0GUPIxLvA69YNyJxegSQ38rAt6wbISJe/NO6ARnoDgD69u+D7gD4oSGBIuWQwnVlCWBEZ/9j3g7AQsAqOX9HEVLYUbHTHQA/dgCWtG6EiOT2ADDVuhEZdHoXIG8HYH0PvyO0mcA91o0oAd0B8KMHcIh1I0Qkt+nAfdaNyKDTu/R5L94pPP9/EJhi3YgS6GHdgBLZyboBIuJFCneXg90B0PP/6hhr3YASWR4YaN0IEckthevLSnTyCDdPB6AHsG6O/74oKeygFKgD4Nca1g0QkdzeAd6wbkQN3ehkrZ48HYDVcUvExuxj4FXrRpTEGOsGlIweqYiUw93WDcigw7v1eToAKTz/f9i6ASWiOwB+TbNugIh4kcJ1psPrdZ4OQAq3/1PYMalQB8AvLUstUg6PWDcgg7Xp4HqfpwOwao7/tijqAPijRwD+vAq8bt0IEfHiA+BD60bU0A9Ydt6/bLQD0Af3JnPMvgRetG5EiegOgD/XWjdARLxK4cvmfJP2NdoBGAl0z9eW4B4Dmq0bUSK6A+BHM3CldSNExKsUOgCj5v2LRjsA8/2iCKWwQ1KiOwB+XAW8Zd0IEfEqheuNtw6Anv9Xj+4A5DcbONm6ESLi3b+BSdaNqMHbI4DY7wDMAp6wbkTJTERTKud1GW4dcREplxbgUetG1LAM0H/uvyhrB+A50lilKSVzcO9VSGNmAb+xboSIBBP7cMBuuGmBv/IX9RoGDPbSnHAet25ASemxSuMuAN6zboSIBJPCdecrX94b6QCk8Pz/JesGlNRD1g1I1DvACdaNEJGgUhh2nrsDEPvtf0hjR6TocdyLbJJdM7AHbl4KESmvscQ/w+dXXgQsYwegBfdGpvg3FXjWuhGJOZX4Xw4SET9i//KZ+w7Ayp4aEso76AXAkPQYILun0LA/kSqJ/fHzQGBo2//RSAdgGX9tCSL2Hljq1AHI5gtgd/TIRKRKUrj+/OcaXm8HYBCwoN+2eJfCDkjZI7ghgdK52cBOwBvWDRGRQqVw/Vm67Q/1dgCWrv1PzMV+CyZ144DXrBsRuYOBf1k3QkQK9yrx3/VruAMwwm87gkihB5Y6PQbo3KnAxdaNEBETM4h/qe8RbX8o2x2AKbiXACWsO60bEKmrgV9aN0JETMV+F7q0jwBewQ0DlLBuI/6FL4r2ELAPej9CpOrUATCib//FmAFcb92IiLwBfA9XFxGpttivQ18DukP53gF417oBFXKVdQMiMQ7YBphg3RARiULs16EewJJQXwegCXUApN0DwEfWjTA2HdgeLfErIu1SuA4tDfV1AIYCfcK0xZsUCl8WLbiX3qpqDrAnWiJZRL5qDPHPRlt3B2BEmHZ4pQ5Asar8GOB44DrrRohIlGK/Fo2A+joAsb8A2AJ8YN2IinmBai68dDbwv9aNEJFoxd4BqPsOwLBADfHlY2CmdSMqqGp3Aa4EfmLdCBGJ2nvWDahhcaivAzA4UEN8ib3HVVZ/ozpj3+9AY/1FpLbYr0eDob4OwKBADfEl9oKX1QfAPdaNKMAU4EDin+dbROzFfj2quwOgOwDSmd9ZN6AAvwU+tG6EiCQh9utR6ToAH1s3oMLuAp63bkRAU4DfWzdCRJIx2roBNfQGFijTI4Bx1g2ouNOtGxDQB+gFUxHJbgLxvyu0aJnuAIy3bkDFXUf8t70apeGlIlKPZmCidSNqGJy1A9AEDAzZEg90B8BWM3CGdSMC0bElIvWK/byRuQOwMG4BgZjFXuwquAQYa92IADajdfUsEZGMYj8XZu4AxP78H7QaWwymAWdZNyKAocBW1o0QkaTE/qU08zsAsT//nwTMsm6EAHAO7q35stnbugEikpTYOwCZ7wDE3gHQC4DxmACcb92IAL5L/J8DEYlHaR4B6AVAqcepwOfWjfCsN3CadSNEJBmxX5cGZe0A9AnajPx0ByAu44HfWDcigP2AjawbISJJiL0D0CdrB6B30Gbkpw5AfM6ifPMCNAHnAT2tGyIi0Yv9utQ7awegV9Bm5DfNugEyn5nA8daNCGAl4BjrRohI9KZaN6CGXmXpAMywboB06FrgcetGBHAiMMK6ESIStdhHpqkDIMGV8dtyP9xwRxGRzsS+fkhpOgCxF7rKHgWut25EANsAO1s3QkSiFft1KXMHIPaXAHUHIG7HAdOtGxHAucAw60aISJRi7wCU5iVAdQDi9g5uboCyGQT81boRIhKl2DsAegQghTkdeNW6EQFsBRxm3QgRiU7s16XSdAB0ByB+M4GDgTnWDQngf4EVrRshIlEpTQdA7wCIDw/ilgwum77AlWiCIBFpF3sHoDTvAMReaGn3M+JfJKMRawAnWzdCRKIR+3Up8x2A7kGbkd9s6wZIZhMo59wAAMcCG1s3QkSiEPt1qUfWDkDst9j7WjdA6nIFcKt1IwLoBlwOLGTdEBExF/sjwVlZOwCxz7Xfz7oBUrd9gU+tGxHACNxCSCJSbbE/Op+RtQMQ+yQu6gCkZxywN+UcFbAnmiVQpOpi7wDMLMsdgP7WDZCG3Amcad2IQC4AlrNuhIiYUQegILoDkK7jgRetGxHAAOAW9D6ASFWVpgOgRwASygzgh8R/jDViRdz8AFk/ZyJSHqXpAMR+B0CPANL2Mm4IXRl9FzjFuhEiUrjYOwCZXwKMvQOgOwDplvsLUQAAIABJREFUOwu43boRgfwc2MW6ESJSqNg7AHoEIFHZh3LOEghuCuTVrBshIoWJfR4APQKQqHwG7G/diED6ATcDi1o3REQKUZo7ALF3AHQHoDz+D7jQuhGBDAeuI/5vBiKSX+xfTDURkETpKOBN60YE8i3gT9aNEJHgBls3oIbS3AGIvacl9ZkC7E78i2k06sfAgdaNEJGgYn/cN7UsHQDdASifJyn38rpnAxtZN0JEgon9DsA4PQKQmJ0KPGrdiEB6AjcAX7NuiIgEUZoOgO4AiIVm3KOAL60bEsgQ3MiABa0bIiLeqQNQkG7oPYCyehf4iXUjAloDN/Khj3VDRMSr2N8ByNwBmBC0GX4sZd0ACeZS4HrrRgS0CW77NDxQpDxivwMwtp47ALF3AoZbN0CCOggYbd2IgLYFLkcLB4mURewdgMx3ACD+k686AOU2AdgbmGPcjpB2Bc6zboSI5NYTWNi6ETWoAyBJuRs43boRgR0AnGHdCBHJJfZv/6AOgCTol8C91o0I7BjgROtGiEjDYh/eOwWYpg6ApKYZd6s89uMxr5Mp90RIImW2tHUDahgH9b1wFPsJd4R1A6QwY4GdgVnWDQnsRNy6AU3WDRGRuqgDULBhaBhVlTwGHG3diAIcAVwEdLduiIhkNsK6ATWUrgPQjfifu4hfZwNXWzeiAPvitlMdXJE0xH4H4CMoVwcA9B5AFR0AvGzdiALsDNwC9LVuiIjUFHsH4F2orwMwDpgZpi3eqANQPVOA71Pe9QLmtjVwB1o7QCRm3Yj/WvQeQI86/oM5wMfE/Wwj9qJLGK8D+1Du6YLbfBN4CNge+MC4LWU0BPgRsA4wHvfF51Pc0NM3DNsl6RgG9LJuRA3vNvIfPYzrCMSaSxrZKCmNM7A/BovKZ8AGfsomwHK4Rywz6bzmLwO/xS3gJNKZjbA/P9TKsEY27JoIGt5Vyj5BjHStB/AA9sdhUZkO7OWlctW2JPA+9dX+EeB7aO0Gmd8e2J8buso0Ghxa/IcIGt9V3m5ko6RUhuIeVVkfi0Xmf9GFqFGDgFdovPavAwei5Zyl3UnYnxO6ymuNbtgxETS+q8xEJ0KBtXEvB1ofj0XmVvRyYL0WAJ7ET/0/w01TPbDQLZAY3Yj9+aCr3N7ohu0aQeNrZdlGN05KZXvctMHWx2OR+TfxDz+KyfX43wdTgLPQfqiyt7A/F3SVvzS6YetE0Pha2bXRjZPSORz747HojMWNFJCu/Yyw+2E27p2ptYraIIlCf6AF+/NAVzm2zBv3+0Y3Tkop9vdWQmQmcCRaQ6Az38ZdoIvaH/cB26D9UQXrYv/5r5Wd82xg7Lc3HsyzcVI63YAbsD8uLXIbsGj+EpbKErjn9Rb749/A3sQ/RlwadwD2n/tayXVX6qYINqCrTEYvAspX9cUtHmR9bFrkY2Cz/CUshV7EcRyMBo4DFg67uWLgLOyPr1pZJM8GnhzBBtTKSnk2UEppUeK/exUqzcBp1DfzZxmdg/2+mDtf4B5ZahGz8rgf++Oqq3yUdwN3jmAjamXvvBsppbQ8bmpX6+PTKo9T3bfT98S+/p1lFnA5sGKwrZeiTMD+eOoqDQ8BbPONCDaiVs7Ju5FSWhvhZtCzPkatMonqjZRZFZiKfe1rpRm4trW9kp4lsT+GauX0vBvZHTeVoPWGdJUn826klNoPiH80S+hcRTVeEByAmyHUut71pAW3LsHaAeoh4WyL/bFTKz/ysaHPRLAhXWU6etNWunYs9sepdcbhbo2XVRPwD+zrnCd3ABv6LowE8Rvsj5daGeVjQy+NYENqZU0fGyqldi72x2kMuQtYJmctY/Tf2NfWV+4DNvVbHvHsfuyPk64yE09fjGNfE2AOcLCPDZVS644bK299rMaQKcBPW2tSBltRzqmgHwG29lgn8aMn8b9n8pKvjd0igo2plYt9bayU2gLAs9gfr7HkGWD1XBW1twwwHvtahszTwH+h2QVjsR72x0StXOVrY4dGsDG18oKvjZXSWxR4EftjNpbMBs4DhuQpqpEB5FveN7W8COyCJj+z9lPsj4VaOc7nBo+NYIO6ymygn88NllIbjDoB8+YL4ATSWeu+B3A39nWzyKvAHpTnEU5qbsb+GKiVbXxu8L0RbFCt6O1Zqcdg3J0j6+M2trwP/JD4bzdfiH2trPMWsD/umbQUJ/YvxHNw8xR486cINqhWfupzg6US1AnoPE/gJlKKUejlfVPL+8ChQO88RZVMVsB+f9fKeN8bvV8EG1Ur9/jeaKkEdQK6zr+ATRotbgA7oImdOsto4AjcglgSxv7Y7+dauc33Rq8cwUbVykxgQd8bLpUwCHUCaiWGIWlr4YYwWtci9nyKG77dv7EySxcuw37/1srPfW90E2k899jB94ZLZQwCnsf+GI49zwA7Uvw7Al/DLXdsvf0pZQxwPG74q/iRwjH4zRAbfkMEG1YrF4bYcKkMdQKy52Vgd4p5E31BdIcmT8bj3puo+hLRea2G/b6slZkEegT0kwg2rlZyr38sladOQH15GziAcOtxaAZHf3kOTZuexwnY78NaeSzUxq8awcZliZbXlLwG4U6W1sdySvkQ9y1zQAP17sqfI9i2MmU2sHNde0DaPIj9/quVM0JtfBMwIYINrJUTQhVAKmUg6gQ0ksnAWcBy9Zd8PodHsD1lzEzc+gmS3QBgFvb7rla+F6oAkMYMSA8F23qpGnUCGk8L8H/At+uuunMsGu4XMndn3xWCu2tivc+yZNFQBQA4KoINrJXZwCKhCiCVMxAtIJQ3z+NW7FwoQ727AWdH0OayZxJaU6Aef8V+n9XK68G2vtUaEWxklvwgVAGkktQJ8JMpuHHUHQ1TWhDYC3g4gnZWJSM72A8yvybSGP4XfFXcbsDnEWxorVwWqgBSWQNxY+Ctj+2yZBrwHvA47nb0tAjaVLXshmSxOvb7Kkv27WojfNzuaSGNZ+xbEf9iJpKWCbgpce8ybkdZ9AGGA+sCm5HOKoRlotUEs7GeATOrh7v6H30973nA0+8JaQhu2lARn74EtgUuNW6HiA+zrRuQiBSGTb4PvNHVP6hSBwA8r4cs0mo2sA9wknVDRHJSB6C2b+BmAIzdP2v9A18dgGdx34Ripw6AhPRr3DM3nUQlVc3WDUhAKi+UF9YBaKbGs4ZIrA0sZd0IKbVLcI8EUugQi8xLndfadrVuQAYzgHtr/SOfYz5TeAzQBOxp3Qgpvbtww9o+tm6ISJ3UAejaKGBF60Zk8AAwtdY/8tkBuMfj7wppbzQaQMJ7Hlgft0KeSCrGWDcgcil8+4cMt/9D+AD7cY9ZEmRtZJEODMB9GK2PeUXJkgWQrryN/T7Kkkzrbvie9vFGz78vlH2sGyCV8TmwHXAq7oMpEqvRuIWbpGNrA8tYNyKDt4A3s/xD3x2AGzz/vlB2Qj1dKU4L8AvccacTrMQq+LzxiUvl9v/tWf+h7w7AI8Bnnn9nCAvgTsYiRboRN8tdpt65SMFes25AxLpTouF/bXx3AFpwywOnQI8BxMIruFuJt1k3RGQeugPQua2AJawbkcFU4P6s/zjE0o+pPAbYGFjWuhFSSZOA7YFT0HsBEg91ADp3oHUDMroXmJ71H4foANwHTAzwe31rwi01KmKhBfhvYEc0aZDEQY8AOrY4bnKvFFxXzz8O0QGYDfxfgN8bwl6EqYFIVjfj3gvQfAFiaSpuGLfMb1/SWCVxBnU+gg918UvlMcBSwKbWjZDKexW3UuXZ1g2RynoAPY7qSDdgP+tGZHQH8EU9/0GoDsC/SGe4097WDRDBPbc7HLdgVQojaaRcTGaOS8AWwAjrRmR0jXUD5vZ37GdDypKpwMKBaiDSiCHAP7D/bCjViV6I7tgN2O+bLJlKA3PbhHz+ncpjgL6kM75TqmEMbvbAQ4Fpxm2R8nsDN8WtfNViwHetG5HRbTRw1z1kB+Cf1DEcwVgqQzykWv6CezfgeeuGSKllnjmuYvYBelo3IqOobv+3uRn7WyNZs1mgGojk1Qs4Azd00PpzopQv30Hm1QN4H/t9kyWTcXeyo7MH9sXJmrsD1UDEl82Ad7D/rCjlyRSgNzKvH2G/b7Lmb4FqkNvCuJcTrAuUNWuFKYOIN32B04CZ2H9elPRzK9KR57HfN1nzvUA18OIy7AuUNam8uCiyMm7xLevPjJJ2DkHmtQX2+yVrJhH5HZwNsS9S1jQDK4Qpg4h3TcBBuKm3rT87SpoZgczrX9jvl6y5KFANvHoZ+0JlzV8D1UAklMVwzwGtPztKWtHt//mthv1+qSfrhimDX0dgX6ismQksGaYMIkF9Bzee2/ozpMSfZmAVZF5XYb9vsuaFQDXwbhHchCbWBcuaP4Ypg0hwfYFTcQuDWH+OlHhzOTKv4cAs7PdN1hwWpgxhXI59wbJmMjAoTBlECrE0cAXum57150mJKzPQs/+O/An7fZM1U4EBYcoQxkbYF62enBSmDCKFWgW3PLf150mJJ2ci81oU98XPet9kzWVhyhDWK9gXLmvG08DiCiKR2oD2JV+V6uYddHezI2dgv2/qyYZhyhDWkdgXrp4cHaYMIma2Bp7D/rOlFJ8vgJWQeS1OWhPWvRymDOENJK2XAT/CzcMuUiZNwK7Am9h/xpRi0gxsg3TkbOz3Tz05MkwZinEF9gWsJ/uFKYOIuR7AwcB72H/OlLDR3cyODSetETPTcV+kk7Ux9kWsJ+8BfUIUQiQS3YHvAw9j/3lT/CeJ2eKMXIT9/qknV4UpQ7FSehlwDvDzMGUQic5awJVosaGy5GbSWdO+aMuR1rj/OcA3g1SiYEdhX8h68iUwNEglROK0OPBbYBz2nz+lsZyHu7sjHbsS+31UT54KU4bipfYy4Bx0G02qqS9wIGmt56HALzramfIfK5HeJFm7BKmEkXOxL2g9acYtFCFSVd8B/gHMxv7zqHScWcDenew/aXcr9vuqnrxDye7mLE16z1/uC1IJkbQMBX4K/Bv7z6TSni+BrbrYb+L8F/b7qt4kNe9/VimtD9CWHYJUQiRNawJ/Ru8KWOclYOUa+0qgH/A+9vurnoxvbXfprAi0YF/gevIWmhxIZF69cJ3jm9EIgiLTgpvbX0OVszkd+31Wb04JUolIXI99gevNMUEqIVIOiwJHoCmHQ+cTYMuM+0Tci3+pdU6nAUNCFCMWa2Bf5HrzOTA4RDFESmYU8HvgU+w/t2XKLbiOlmT3IPb7rd6cH6QSkbkd+0LXm78EqYRIOfUAtgOuI62pV2PLWDQ9eSP2wn7f1ZsW4BshihGb1KYHnoMbCqWVtUTqNxD4MfAk9p/jVDIL96x/kQbqXXUDgTHY78N6c3OIYsQqxdszdwaphEh1rAj8Bngd+89zrPkXMLLRAgvnY78PG8kGIYoRqy2xL3gj0RKbIn6sApyEZh1sy9vA93JVVNYjvZFmc3CPxSvnaewL38iHtH+IYohU2IrAicAL2H/Gi86buOmXe+euYrV1J92RKGsFqEf0dsS+8I1ELwSKhLM8bkXOZ7H/rIfMM8DOQDc/Zau8I7Hfp43kxhDFSEETad7+awE2D1APEfmqZYBjKdcLhHcDW/gskrA48AX2+7beNFPxGR33wH4nNJL3gYUC1ENEOjYcOBr3ktxU7M8B9eQt4GQqMszLwLXY7+NGclWIYqSkB+65uvWOaCQXB6iHiNTWG9gEd1F9hDgXGhsDnIV7MU3CSfWF8lnAcgHqkZxdsd8ZjUajAkTsLYD7LJ6Be3eg6DfBJwEPAH/E3dVciZIt5xqpPri7K9bXgUZyUYB6JOtR7HdIIxmNJusQic0g4Pu4yXTuAT7G32f+c9xS4WcAu+FeWmwqZrNkHidhfw1oJDNwj7QKFfNBuh7wmHUjGnQVsLt1I0SkSwNwE+ysONfPFXDv8vTErXDYk/Zv7p8B7wLvtP78N+7N/bZvnGJrRdywvxSHT54NHG7diNhcjX3PrNHsEKAeIlK8brh3kyRefYGXsD/vN5KpwDD/JUnfcNxyiNY7qJF8hlbrEhEpwl+xP+c3mtMC1KM0TsV+BzWa6wLUQ0RE2u2F/bm+0XyMe2FVOrEgaa8lvqv/koiICG50xRTsz/ONZi//JSmfA7DfUY1mPDDUf0lERCqtP/AK9uf4RvMkcb+IH41uwIvY77BG8wv/JRERqbTLsT+3N5oWYH3/JSmvzbHfaY1mzQD1EBGpqv2wP6/nyZX+S1J+/8B+x9Wbt4JUQkSkmkaR3toPc2cysIT3qlTACsQ5x3dXOTVIJUREqmcB4HXsz+t58kvvVamQs7DfgfVk1TBlEBGpnL9hf07Pk3dx6xVIgwYBE7HfkVnyWqAaiIhUzcHYn9PzZifvVamg+7DfkVlyUqgCiIhUyOrAdOzP6Xlyn/eqVNCiwGzsd2aWjAxUAxGRqlgIeBP783meTMOtEik5pXIb6KVQBRARqZDrsD+f583x3qtSUfdhvzOz5MRQBRARqYjDsD+X582zaDVJL4YCzdjv0CzR7R4RkcatA8zA/lyeJ7Nw7y+IB4djv0Oz5LlQBRARqYDlcEuqW5/L80bzwHj0EPY7NEv0vEdEpDGL48bLW5/H8+Y1NObfmyVxCyhY79QsWSZQDUREymwR3AvU1ufwvGkBNvJcm0o7CvudmiVPhSqAiEiJ9QUexv4c7iNne65N5T2O/U7Nkp+GKoCISEn1IM3F3jrK+8CCfstTbSOw36lZ0gIsFaYEIiKl1ARcjv3521e29lseORb7nZolj4YqgIhISf0B+3O3r5zruTYCPI39js2SI0IVQESkhI7H/rztK6/g3mMQj5bFfsdmSQuwRKAaiIiUzf7Yn7d9ZQawmt/yCMDPsd+5WfJgqAKIiJTMDqSzqFuWHO23PNLmBex3bpYcGqoAIiIlsgnpL+07d+7Evcgonq2A/c7NkmZgsUA1EBEpi9WBSdifs31lDG6NmiR1s25ADbtYNyCj+3HzVouISMe+DtwBLGTdEI/2Az61bkRZvYx9Dy9LDgpVABGREhgGvIP9udpnzvFaIfmKlbHfwVkyCxgcqAYiIqkbBLyI/bnaZ15GQ/6COgX7nZwld4YqgIhI4objVsWzPk/7zDRglM8iyfxex35HZ8m+oQogIpKwUcBo7M/RvrOnzyLJ/FbDfidnyUzc8pUiItLuW8Dn2J+jfUer/BXgNOx3dJbcFqoAIiKJ+j7lGuffloeBnh7rJJ14G/udnSW6FSQi0u7HuHlRrM/NvvMxCY/3T8na2O/sLJlOucaziojkcTL25+UQmQls4LFO0oUzsN/hWXJzqAKIiCSkO3Ah9ufkUDnEX6mkK03A+9jv8CzZLVANRERS0Re4Bfvzcahc4q9UUsv62O/wLJkKLBCoBiIiKVgE92Kc9fk4VJ4G+nirltT0J+x3epZcH6oAIiIJ+BrpTNXeSMYCS3mrltTUjXQmjdg5UA1ERGI3EvgQ+/NwqEwHNvZWLcnkm9jv+CyZDPQLVAMRkZhtCEzA/jwcKi3Art6qJZmdjf3Oz5KrQxVARCRi2+Pef7I+B4fMcd6qJZl1x62pbL3zs2SHQDUQEYlRE3A8MBv782/InOerYFKfTbHf+VnyBXorVESqYwhuxVPrc2/o3Ib7IioGzsf+AMiSK0IVQEQkMt/GTYFrfd4NnWfRsG4zPXBDLqwPgizZLlANRERi0Q34NeWc03/evA8M81I1aciW2B8EWTIR6BWoBiIiMRgG3If9+baIfA6s5Kds0qiLsT8QsuSvoQogIhKBLYEx2J9ri8hM3LtnYqgn6Ywp3SpQDURELPUATsONgbc+zxaR2cAuXionuWyL/cGQJeNwHxIRkTL5GvAI9ufYotIC7OmlcpLb5dgfEFlyQagCiIgY2R4Yj/35tcgc5KVykltvYBL2B0SWbBaoBiIiResF/BH782rROcJH8cSP/8L+gMiSz9AEESJSDssAT2J/Xi06x/sonvjzN+wPiiz5S6gCiIgUaCfc0Dfrc2rROclH8cSfvsCX2B8YWfKtQDUQESnCosAl2J9LLfI7D/UTz3bC/sDIko9xs2LJ/PrgXiL6GdDfuC0iMr9uwCGkM9Tad87KX0IJ4TrsD44sOTNUARK1MPBD3P6bTHudPgB2NGyXiHzVOsDT2J9DrXIhbhVDiUx/0llTeoNANUjJYsCBwO3ADLqu1z+BZW2aKSLAINyw5apM6tNRzkYX/2jtiv0BkiUfUN2DaGngaOAh6l8QZBpuIREtmyxSnCbgANykZdbnTsuclreQEtZN2B8kWfL7UAWI1MrAicBz+KnfW8DWhW6BSDWtCTyO/TnTOr/IW0gJayFgOvYHSpasE6gGsWgC1gNOB94kXB1vwE03KiJ+LQKcQzWW7e0qLcBPctZSCrAH9gdLlrwTqgDGegCb404aoymunpOBY3GLP4lIPk3APlRn5b6u0gzsm6+cUpRbsT9gsuR/QhXAQF/ge8Bl2A8HehnYJOjWipTbqlRr8Z6uMhP4Qb5ySlEGUPst8liyRqAaFGUAsDvu9vsU7Os5b64DRgbbepHyWRg3LHk29p/fGDIN2C5XRaVQ+2B/0GTJm6EKENhQ4GDgTlzP2LqOtdIMXAF8PUQxREqiG2752k+x/8zGksnApnmKKsW7A/sDJ0t+E6oAASwD/BR3SzDVcb+zgIuA4Z5rI5KynrgvTa9j/xmNKZ8Aa+WoqxgYhDvRWx88WbJKoBr4Mgo3zv4F7GvlMzNwLycu7q1SIunpCxwGvI/9ZzK2vAQs1XhpxcoB2B88WfJKqALk0ISbkfB3wNvY1yh0pgF/AIb4KJ5IIhYEjkO3+jvLXbhh5JKgu7E/gLLk14G2v149ge8A5+JueVnXxSKTcbN6DcxZS5GYDQJOBiZi/5mLNRfghjBLgoaQzpurKwaqQRb9cAvqXIFOBnNnEvAr1PuXchmGm2107kW1lK+mBTd/iCTsx9gfSFnyYqgCdGER3Bu+N5HOAklWmYg7YS7TUKVF4rA07s5eKjOiWmUqbtl4SdwD2B9MWVLUPNKL4zpF/yKdFyNjSjNuQqktqO5iTZKekcDl6DOfJZ8B6zZWZonJ4qQzT/VygWoAbqz7scBjpDtcL8a8ChyKe4FKJEZr4ibk0uc+W17B3SWREvgJ9gdUljwbYNtXw73c81IE21f2TMLNkrZ8pj0jElYT7g5VKnOfxJLrUWe+VFKZs/o4D9vaDdgI95z6nQi2qYppAW4HtkGPB6R4S+KW1H4X+89CSpkFHNNAvSViXyOd216N3nLqBWwFnI/G78aWN4EjcXOoi4TSA9gBuI10RjvFlE+Ab9ZddYneMdgfXFnyRJ3b1R/3dupVwOcRtF/pOlOBa3FDLPt0sD9FGrEccDrq+OfJQ7jhkFJCT2J/gGXJ0Rm2ZRCwN3ALbqY66zYrjWUSblnkrdHEIlK/wcBBpDOyKeb8AX0GS2tp7A+wLGnBParoyJK4ObnvQUN3yphxwHnAJrj3N0Q6MhDYDzcVrc4D+fMlsHNde0CScxz2B1qWPDJPu5cHjsc9Fkjl/QUlf0YDf0Rjj8UZgLvjdztpLK2dSl4BVsi+GyRVz2J/sGXJEcAauCWAX46gPYp93gFOxa26KNUxBDcr5624lSmtj8Oy5VJggaw7Q4oRYqjUcsAbAX5vCBNx0/GKdOQD3COgu1t/fmbbHPGoB7A+bhTPlrgvAho66t9E3HsT11k3ROYX4oD/JXBKgN8rYu0l2jsED+AWcpF0LEX7BX9ztMBUaPfh7qp8ZN0Q6ViIDsCLwCoBfq9ITGbh3hVp6xA80fp3Eo+hwAbAxriLvuVqn1UyE/dF8Azc7X+JlO8OwIq4Fz1EqmYy7q5A2+OCl3EvkkoxugEr4S74G7ZGK0cW71Xgh8Dz1g2R2nyPw/yB598nkooFgG1bAzAF98jg+da8gLs7NtWkdeUzAPfcfkPcRX99NOujtXOAn+HmSpEE+L4D8Coa5iHSmRbcFMUv0N4xeB43Hap0rDtueO6o1qza+rOz+TukeGOAfYB/WjdE6uOzAzAKd2ITkfqM5asdgteBD1v/virPUPsAw4ERwEjaL/gj0RTOMbsGt+rrGOuGSP18PgLYxePvEqmSRXHLx24xz9/PwE1S9BGuQ/BhB38eW1wzc+lL+wW+LXP/34uhYXgp+RA4BLcIkiTK5wfuTeDrHn+fiNQ2HddJaOsUjMateTAN977B1Ln+3NXPmZ38/iagN27ly7l/9sZ9M18EN0f+oBo/tc57ObTgnvX/HA2DTZ6vDsAawDOefpeIFK8Z1xGYhnvu3nax72nZKInKv4EDgMetGyJ++HoEoLf/RdLWHTeSQdO1yrxm4KZLPx3NdVEqvu4AvIt7jiciIuXxIHAg7sVUKRkfy6Cuiy7+IiJl0jaH/ybo4l9aPjoAevtfRKQcZgNn4V7ovoDqDEOtpLyPAJpwK6Yt6aEtIiJi53bgGNyEblIBeV8C3ABd/EVEUvYK7sJ/h3VDpFh5HwHo7X8RkTSNBw7HTa+si38F5XkE0A03E9kwT22RuE3BTTozyLohIpLLLNxkPifjXvaTispzB2BjdPEvuwnAZcB/4WZzGw4cj/vmICLp+T9gZeAodPGXHP6Ce0NUKVc+As4GNqXzd0QWBH6B6yBYt1dRlNq5HVgHkbk0+gigO/AxMMRjW8TOG8BNwI3AU7gTRhYL475JHAUsFKZpIpLD3cB/A49ZN0Ti02gHYHPgXz4bIoV7lvaL/is5f9ciwE9xy4JqKlkRe/fjLvwPGbdDSuhC7G9pKfWlGXgAOBL3LD+Ewbj5wqdEsL2KUsU8iJu9T6SmRu4A9AA+RW+Dp2Am7hbgTcAtFLd2/BDcy4IH49aBF5GwHsN947/buiFSblth38tVOs+XwDXArtivwT4M+DNuzXnruihKGXMnsAUiBbkE+4Ne+WrGAhcD2+HWcY/NIOAE3AgD61opSuqZgTsPr4JIDvWi7Hj/AAAFJUlEQVQ+AugFfAYMCNAWqc+HuFv7N+Fe9Gm2bU4mPYCdgCOA9YzbIpKaCcB5uGG6nxi3RSrou9j3fqucV4HfAmvV2lEJWBf4G+49Beu6KkrMeQs4FOiHiKErsP8wVC1P4W6fr5Bh/6RoCVynZiz2tVaUmPIwsAN+lm0XmU89jwD6AGOwf7Gs7Jpxt/RvBG7G3eqvgj7A7ri5BPRsU6pqMu4l3guAJ43bIvIfO2DfIy5rpgO3AvvgxtJX3aa4Ocubsd83ilJEngD2RxNpSaT+jv2HpEyZBFwN7Iw+9J1ZEjgOeAn7/aUovjMBOBPd8RIjWR8B9MPd/u8fsC1VMAb3zfYm3IQdM22bk5TVgD2A3dAqlJKuObhpei/CPeabbtoakQx2xr63nGreA/4IfBO9zONDd+A7wOW456XW+1dRsuR94DTg64gk5nrsP0Ap5d/AKcAajRRbMuuPe3HwDmA29vtdUebOB8DvcXNeNLrwmkgwWQ7KBXC3rjWne+fm4N7YbZuY5w3b5lTSUNzjgT2A1Y3bItX1Ie4L03XA47hzg0iyfoh9TzrGzMI9xz8UN5Zd4jES+AVugRSNJFBC50PcY7710Td9SUiWg/UWYPvQDUnENOAu3Lf8W3Fv8UrcFgW2BrYFtgQWtm2OlMQbwG24b/uP4ToCIkmp1QFYGDf3f4wLzBRlEvAP3EX/Dtxa95KmHsBGuM7AdpR3dkXxbwpwL+4ccAfwjm1zRMLbE/vbaxb5FDgf942xZ+4qSqyWwc08eCduOJb1cafElX8DvwM2wy2EJlIqte4A3AZsU0RDIvAu7lv+jbhbei22zZGCLQBsjrs78G1gWdvmiIFJwD3A7bhOYVWm4ZaK6qoDsAju9n+ZvwG/RPtF/wXjtkhchgAb4F7s2gC3AmMf0xaJb+8DjwCPtv58iTSW1RbxoqsOwH642arKZA5uaE7bRf9t2+ZIQnrhhhduMFcWN22R1GM28BztF/tHgdGmLRIx1lUH4C5gi6IaEtAs3NSbN+FW1/vEtDVSJsP5aodgFO5FQ7E3Gnie9gv+U8BU0xaJRKazDsBg3IUy1ZPZVNwzvLbhep/bNkcqoj9u9seRwIpzZUk0PjyUL4GXgRdxt/DboiG6IjV0dlI6CDivyIZ4MJH24Xp3ot6+xGMB3JDDFefJsqTbyS7aLOAt2i/wbRf893CP9kSkTp11AO7FvQkdu09wt/Vvwt3mn2XaGpH69ASWY/5OwdDWVGn+jWbgI9wF/T3cqJy5f45GL+iJeNVRB2Ao7sMW68p1b9E+577m2pYyWwT3eRxGe6egoz8PJN5HDDOB8cC4eX6O4asX+w9xL+qJSEE6uv24E/Fd/F/AvbV/E+62n0gVTGzNqzX+XS9gMVxnYDBu4a4+rensz539b71x37RnzpMZXfzdjNZ2tl3c577Qf5mnACJSrAexn4GrGXgYOBpYOuzmioiIyBK4GfAsLvozcXNsH4j7NiMiIiIFOZJiL/qTcatp/RCt0iYiImKmbVnLkBkPXIpbYlhTq4qIiBgbTrjb/x8BZwObonHPIiIi5ua+GO+M36FEb9A+5/5TuI6AiIiIRKbtIp0nzwC/BFYquO0iIiLSgGVp7ILfDDyAe3lweOGtFhERkVxOIPtFfwZwG7A/sKhFY0VERMSP5+n6ov8lcA2wK7CQURtFRETEo2/Q8UV/LHAxsB3VWpRERESkEk6k/aL/AXAmsAnQ3bBNIiIiElATcB3tQ/aetm2OiIiIFOH/ASYYprZFm/VKAAAAAElFTkSuQmCC;imageBorder=#FFB570;imageBackground=default;" vertex="1" parent="1">
          <mxGeometry x="457" y="1036" width="22" height="22" as="geometry" />
        </mxCell>
        <mxCell id="OsdIBWx6J7-D4pMph346-28" value="" style="shape=image;verticalLabelPosition=bottom;verticalAlign=top;imageAspect=0;aspect=fixed;image=data:image/png,iVBORw0KGgoAAAANSUhEUgAAAgAAAAIACAQAAABecRxxAAAtE0lEQVR42u3deZgV1bX38W8zddPQNJFJQBQccAAUJ5wQHEDEq8mNETXmimYyUZNgYkw09zrEa3xNorkZ3gyaaBK8SYxTUIwTIIIgkwJGGQQRUFRmaBp6gu5z/0Bk6obuc1adtavq96knzxOE3r1WVZ11dlXt2htEREREREREREREREREREREREREREREREREREREREREREREREREREREREREREREREREREREREREREREREREREREREREREREREREREREREREREREREREREREREREREREREREREREREREREREREREREREREREREREREREREREREREclfgHUCKtKGIUlpTRHsKaUMJLWkPtKIN0JaWFNAeKKT44z/v1I7mu/xp+79oyL7/NhcVVDf6b2vZtMuftrL5k3+xkczHf95CDbCBbZSzmWrKqKCaDVRRGVEGsgcVACsldKcjnehCZzrSjmJKaEUphRTTjkJKvAOMmTKq2EI5NZRRRSXllLOWVaxmLWtYQYV3gMmgApC9rvSlNz3pSS960sE7nJRZzTKWsZxlvM08VnqHE1cqAE1TRH9OoB/H0JcDvIORT6zjTebzJnOYQ413MHGiAtA4RzGAAQyg/25X5hKeGuYyg1nMYJF3KHGgArBv3TiDIQynh3cg0mSrmMx4xrHUO5CQqQDUr5ihXMgQenoHIjlbwnieYYKeLNRHBWBPnRjOhQynrXcgYqqSqTzDY3zoHUhYVAB26sylfJ7TtE8SrI6p/JXHWOcdSCh0sgO05kJGMkw3+FKilok8zD8o9w7EnwrAiVzL5yMbOyfh2sJf+Q1zvcPwleYCUMinuYYh3mGIq9d5gIfTe4MwrQWgHddzA529w5AgrORn/C6dFwRpLAAd+Cbf4lPeYUhQNvFbfsJ67zDyLW0FoJSb+SZtvMOQIJXzC36621uMidc89yZioyVf4R8Mo5V3IBKoQgZxDQW8Rq13KPmSlh5AAZdxN728w5BYWMwPeNw7iPxIRwE4nF9znncQEisvcy0LvYOIXvIvAYr4L/7Kkd5hSMz05BraMoVt3oFEK+k9gMH8gcO9g5DYWsSXmOodRJSaeQcQoSLuYYI+/pKD3kzmFxR6hxGd5PYA+jGa/t5BSCLM40rmeAcRjWTeAyjgJv5Od+8wJCE6czXlzPAOIwpJ7AG040Eu8Q5CEucprmajdxDWklcAjuNxXfdLJBZxCW96B2EraTcBv8A0ffwlIr2ZxmXeQdhK0j2AAr7PrzWph0SoFZ+jgEneYdhJTgEo5CFuTOAljYSlgLM4hOeS8rZAUj4wHRjDQO8gJDUmcnEybggmowB04UWO9Q5CUmUu57HGO4jcJaEAHMw4ensHIamzkKGs8A4iV/EvAL0Yz6HeQUgqLWMo73gHkZu4F4DDmUQ37yAktVYwKN5Lj8W7ABzEZE3yIa7e40ze8w4ie3EuAAcyKXHX/hvJsJXNQAXVn/zXDbv9m231zF9blfeJrVtTtNd/K6HFbn/eOfFqIcVAW1pSQPs8Rxq1BQyO7+3A+BaADkykn3cQ+1DJOioop5ZNbKOcLVRRRiVVbKSaLWyimnK2UEMNW4AtqVrXvhVtgDa0ohVtKKGIEtpQSHuKaE0pRbShhBa0ozklFNOB1t4h78Nczo7rQ8G4FoBCxgf13H8zC1nCe7zHcj5gDeuo8A4pYYrpQCe605ODOZhDOSqo5Vsncn48C3g8C0ABD/MF7yCAxbzGbOaxgOVkvINJmQIO4Wj6cjwnB/H2x5/4oncI6XEHGcetkoncxlAtLRKMAxjGHUyiyvW8+IH3bkiLL1DncoDreI07Oauem18Shtacw13Mdjs/LvXeAWlwHBUO3/lP8VWNN4iNg/gaY6nM+3mymT7eqSddCQvzeki3MYVraOedtmShlJGMpSav58sinStRKuAfeTyYCxhFJ++UJUeduSGvXxqPeiecZDfl6SDWMYZzY/qERPZWwBCeytudgVHe6SbV8VTn4fDVMpYTvFOVCPRlNFvzcAZV6dX0KBTxVh4O3hNaRCzRjsrLReTcJC8l4uXeyA/bdE73TlLy4AxmRH4u3eOdZNIMZFukB2wDoxI0P6LsWwEjWRvp+VTLYO8kk6SIxZEersfo4p2i5FkXHo/0nFqoywA7d0Z4oDZyjXd64mQE6yI8s271Ti8pjoxwjPcUDvJOTxwdzKuRnVuVQbyklADjIztE99PKOzlx1oJ7Ihsh8IJ3cklweWT1OWGLPEnWrojsvYHPeacWd614J5IDs5YzvVOTgJzKqkjOsyXqY+bmhkgOyyJNJSp7ODSir5pveCcWZ+0jeVo7Xy/2Sj0O5F8RnG2rKfVOLL7+XwQH5HU6eKclgerI7AjOuLu804qrDpSbH4yFGvIj+9CReebn3GY6eqcVT/9tfigW09U7KQlclwhmD7jdO6k4ascG48OwSrf+pBEOY43xmbeOEu+k4ucW44NQyWneKUlMnGE+LuAm75Tipsj4uWydhv1IE3zBuAB8pFeDmmak8QG4zzshiZlfGp+BISxkEyO2UzZM03gsaaKWTDE9B1/1TihOTjTd9ev1xp9k4WA2mp6Hmmmy0R4y3fFXeKcjMWV7IfoH73TqE+LU1yWspNistccZ4Z2QRKolvTmSg2hDKWVs4X0WsphtJm0/wcVmcVZwIOVeOylOLOvuRg39SbCufIfn2VzPcS/nWb5lMOqzi+lolCu9d1g8PGe4y7/mnYxEZCBj9ztR7Fb+wak5/p7rDc/GZ713Whx0Nly8YRrNvNORCPThpSacBc/ntNZDM2aZnY81Wmpu/75hWHHP8E5GzLXgriYv+FnNrTlM+n6m4Rl5nffuC99Us539pHcqYq4br2R5Nkygc9a/9Smzc/IV7x0Yuq5mEzRu0yJfiZPbrD3vckSWv/dos2VpavU6+r59zazW/sU7FTHWO+f3Qz7g0Cx/9yNm5+WXvXdj2J4x2s119PNORUx1Y6nBebE4ywuBPtQanZljvHdkyIqp0G6WerTI+tp/z21ilrcDnzb6/Vto7b0zw/UZs47WOd6piKkfmZ0Z2S7ZNcTs91/kvTPD9XujXbwgyCHOkq0+TX7wt6+tmqOyiKHAbKqw+713Z7jeNdrFo7wTEVMTDT/+GTI8l1UUo4x++xLv3RmqQ4128NYcnvhKeAYbf/wzZDg9izg6mY1R7em9S3cKaais1XX7eFZ7pyKGvhdBm9/N4mfW8JLRbz87goyylMQC8DfvRMRQN4ZF0OpFWQ3IecTotwdUAMJRwEcm3atKLcWUKN+N4AIgQ3Zr9rUzmi34A++dulM4PYAjOdCknXGUeacihs6PqN1s+hWbmGDyu7txeERZNVk4BSDX97Z3GOudiBgqzOp2XWMMpkUWP/WM0W+3OttzFk4BGGDSiiZdSJajIhs3V8JhWfzU02RMfrvN2W4gaQVgdkjXV5KzKN/ozKbtD3nD5HefEmFeTRJKASgyenknuyEeEqoeEbZ9cFY/ZdPDPC6UlYJCKQAnGC3dYXOTRkIR5aKa7bL6KZuxAIX0jzCzJgilABxv0koV070TEVNRvjmX3dTzr1Jt8tsDWSYklALQ16SVaVR5JyKmKiNsuyLLiGaa/PY+EWbWBKEUAJvd8bJ3GmIsyoU0NmX5cxNNfrvNV17OklUAtABj0rwfYdvvZflz00x+eyA9gGwGQ9jrzgEGrWSY7Z1I4DpzEAfRmlJa0pbWFNGWlpRRRy2bqGId61jHalYGcyn1doBtzyRjMN9ERzqH8NJaGAXAphq+w3rvRALTnN70pw89OJju9KCo0T/5EctYxjLe5k3mGd32ysZCKiO6EVie9Xv561ma9eSiu+qjArBDb5NWZnmnEYhCjuc4jqc//bJeZLUrXTnt4/+/jcX8i5m8yutszXMu1UyLaHq3yTksHzrTpAAcaXQ3ISdhFICeJq3M8U7DWQHHMoQhDDJcWxmgBUdzNJcBlcxiCuOYmsdC8HxEBeD5HH52NpcbRNAzkrxi6XGTlyyHe6fhphNf5C+sjOjF2b23Mp7kGg7KS27dzRbl2HXbmtMCHReaxGA1u0ACvGayQw/xTsNBKSMZazplZlO21xhFt8hztFwtesc2JqeIbCavm5GncyQG1hrszvKUzQTcmhE8aTRBRS5bLS9ztfFFx+7OiiDq3F4ybsYWgxhW5feECVeJySFN0y3A3vyKTe4f/V23jfzGaDh3fV42jjb3V8bmmMTRJp8nTbiOMtmZ6biiKmAY/zRbpsp6m8FlkdxWDmFdgN09YRJJtouVGgphJGAnk1ayHdcVH224lvk8zwVBHLX6DOARFnOD+Tt88/ipYWt3sTDnNpabRGJz5sfe50yq6fXeaUSqiO+w2v0bvrHbem41LgL+awPu7gaTWP7d5VzaTQjfJeoB7FtLRjKf+2L0ffEp7mQZd2T5xn19tnGZybfuEi6j1qCdxPQAklMAkjkVWDOuZAF/ppd3IE12ALezmGtNvm8BPmQYa3JsYyXDjIbfrjBpRQUAsNoNa73TiMBg3mB0VpNXhqEzv2GO2Ui+tzktp3X1ljLIbF0+m7MtgAIQgj+bXE8lbdX1TvyROvereZvtSbNhr92ZkmUML+U09m9PNo+uH3I4rwL0mMGuzG52l1AVMDJGt/wad3y+b3Qx0IK7m/xQsJrbzS5Fdqgy2CvpeHS9X/802JVRThyRb72Z4P6BjWKbw4lGe6hfkxYMf8Hguf/ePjTYI1rEBrAZ5zXfOwkjzfie28j+6LcabjX7Jh7Es/t9TWgbT0e2stAig/1htdpwzM002JXJmAuoC8+6f0ij3qYbrovXjRt5sd5x+Zt5nhuMVpus3xsm+8JdCPMBWLxIEsoUVrkYxp8iPWXDcAqvcxMPmLT1IfdxH604it4cTAmtqaSc5SxiYeQzFljcdWobcYwxsdSglsZ9QZAifpGYe/6N2UbH/qnNRIO98K53EmGMA1AP4BCm861Uvc58JZOyXJorFBY9gADeBgyhAFh0hLZ4J5GD05jBcd5B5N3JvMa53kHkwKIARDmLQiP5F4ACk85gfAvApUwwHaISH514geu8g8iaTQFw7/X5F4DWJjshngWggDt4JPZXw9lrzq/5RQDnYDYszrhmTZioPSL+O9/mOiiOIwFb8yi3+38HOPsWf/P/GGTB5ivH/S5AUgpA/HoAxTzNJd5BBOFSXjB8cThfbM4497sAKgA+2vIMQ7yDCMYgJtDBO4gmsulzqgeQygLQnnGc7R1EUE5iEl29g2gSXQIYSV8B6MAETvUOIjh9GB+r9+NtegC6BDDaBfEpAJ2ZyAneQQTpGF6kvXcQjaYegJF0PQUo5in6eQcRrP48bz6jcFRUAIyk6RKgJU+o879Pp/BUTB4K6imAEZtdEIceQAH3c753EME7m9EBnJX7px6AkUKTVuLQA7iTL3qHEAsjuMs7hEaw+cqxOftz4D8fgM0uqPROY7+u4b+cI/iIBSxgCWtYxSrWUAVUUkUzSvkUpbSjC4fS6+P/eY5QvIWl/N55b+2PzfunrbzT8C8ANrugxjuN/TiX3zj95vW8yitM4y02NPAv6tiw19+VchIDGMCpTlOU/IYlgU+YZXPGqQeQigLQnb+az0q7P7W8yhheZB6ZLH66jAlMAAroz3Au4NQ8x9+CRzgx6Kleq01ace8B+LvXZIaZkB8etcx6Lvvstlqe56t0Ns3hAL7M5DzPWTTD//txH9qb5Phj7zT8/dJkR4Z8qtyXxw/N+/wwwpl2DuMOkwncGrvZzBwYjWKTDH/unYa/+012ZLgv1X4ub9+bk7koDx315owwmce5cdsV3odvH/vBIj+vO0MB+aPBbgz3DsARlOXlgzKOwXnN6yz+mZfCttFsUTF7+1uVoDHbg95J+PuLwW4s906iAc2ZnocPyUSn0YWn82oesnsl77dPG6vCILuHvZPw97jBblznnUQDvhP5x+NdPueYXwEjeCfyHG/1PowN2GCQ26PeSfh72mA3fuSdRL0Or3fNGrttMz8IYNx8K/7LZKHMhreaQF+fWmWQ2xjvJPy9YLAbl3knUY8Cxkf6sZhGb+8UP3E4kyLNdWaQlwHvGWT2rHcS/u8CWAyFCPEm4NcinPW+mpsZyCLvFD/xDudwY4SLs5zMN7xTrIfFWRfy4+s8mWpQR9/yTmIvB0d4939+oF3i/iyOLOdyDvFOby/zDPKa4p2Efw/AIoLwegA/i2ye2zGcwpve6dVrLidFdk3blvu809uLxVnn/vlzD8Dk6q7WO4k9nM7FkbRbx61cHOxDTyjjYr4X0dH4HGd5p7eHOoM2/D9/7l4z6EgFsM76Lgoiej6+mQu9U2uUi6mMJP+5gd0KtBgPOdM7Cf8KZHFQLWqxnRGcFkGrGxnGM96pNcqTnM3aCNo9jq94p7Ybi7POvaT5FwCLCEIqAK24O4JWVzKYqd6pNdp0BkfyKu8d/nPo7SIRlwDuASSuAFzLYeZtLuNM/uWdWJPM52w+MG/1wKBWE1YBMJGsS4CSCAaurmQo73gn1mRLOJeV5q1+j7beiX1CBSCYCMJ5CnCN+Rp3ZVwQw48/wNucxSrjNjvxLe+0PqF7AMFEEEoPoCWjjFvcwgXM8U4ra29zkfl0rTcG0wdQD8BEki4BLqeHaXt1XM6r3knlZBZXk82chA07gC95J/Uxi36n++fPPYBE9QC+Y9zebTF58Lcvj/JD4xa/HcBUtqAeQEARhFEAhtHftL0xkTxQzL87+btpez0jGmfZVLoHYCI5Q4FvMm1tASONO89eMnyVJaYtWve0sqMeQDARhNAD6Gv6+m81lwU85r+pyrmCrYbtnWLc18qOCkAwEYRQAK42be22QN/4y9ZMbjNtL4RBwYkoAP5WG7xS8bh3ErTgI8PXXqb6Xxuaa2Y6a9AGWnsnxJMGedgPlWryYfGWjMeA5xmuobeFqwK5q2Gpjq8bztvQnhHeCSWjB+AeQEJGAl5l2NbdMR35tz8L+KlhayO900lGAfBnMXXWX5xzKDWZI3779m4AM/1GpbXhJOK1dHPO5hGDLNZ7HxL/CmQRgffjss8bXpHeFOHkmt4q+bZZW834rHM2GgcQDO97AJebtfQyTzjnEq2xhkObL3XOxfusM+FfACyW9fTtAbTnDLO2bnHNJB/+06ylge4XAblzX9Q2GQXA11CzsenjApvdMAovM96opWYM904m/vwLgAXfHoDdafgj1zzyxW7KFN8C4H3nyYR/AYh7D6CAYUYtvcok72TyYjrTjFoaSkvvZHLkfvb7F4C4O97sSvQe71Ty5pdG7bSLZP7lxlIPIBieh8KqG7rCf6HIvHnCbMLQod6p5Eg9AP9dkCOrU/ChAMYz5stWfmfU0kDvVOLOvwDEW3NONGmnjoe8U8mrPxs9RT/FZHXp7Fj0O92//pJRAPwuAY4xmqJyHMvdcvDwvtEyJ62DmBkgxvwLgHsNzMkAo3Ye804k7x4xaud0twzUAxBOMmmlNgGTfzbVY2wzaceqBKeUfwGI91Bgm9PvVfMFNMK3hldM2jnWLQM9Bky9IvqZtPMP70Rc2AwJPpJC70RyoEuAWDvWaCTaOO9EXNhk3YKjvBOJM/8CEOdLgMNNWtnAfKf4fc02mg7D6yJANwFTr5dJK1OS8WZ5k9Xyskk7vb0TiTP/AhDnHsChJq1McYre3wyTVno6Ra8eQOrZ9ACs3o2Ln7kmrdgchZRSAciFTQ/gLe803NgsfB7nAqAeQIwvAVpxkEErH7HBJfoQrDF5K7Cr0zzKGgeQcj1M5nRd4J2GK4sF0Aro4p1GfKkAZK+jSSvpfAS4w3smrdgciabSTUAT8b0EaGfSyrsusYfifZNWOninEV/+BSC+2pu0kr63AHZlUwDUA8iafwFw3wVZs+kBrPFOw5V6AM78C4AFn0uAUpNWVrvEHgqb7G0mZfHg/vWXjALgw6YHkO4CUGHSis/7gHoMaMK9BmbNpgdQ6Z2GqzgXAAvuZ79/AbDgU4ttVna1mRcnrmzKn8/EoOoBpJzNRzfdBUA9AGcqANmzmcc/3QXA5kXodL5ObUIFIHvp/ujasPnuju99FPfLiGQUAJ+OlE0BKHGJPRQ2BcDmQqKp3LvvFvwLgHsNzJpNAWjvnYarNiat+BQAC+5nv38BiC+bewA2DxPjymYMn3oAWUtGAfA5FOUmraS7ANiM4lcPIGv+BcB9F2TN5jWedL/LbtMDiO9NQHf+BSC+bAbx2kwrFleHmLRi0xdrqvi+yL4L/wIQ35cqbQpAT5fYQ2Ezn98K7zTiy78AxJdNATjMOw1XcS4A6gGk3FqT5wDpvgQ4xqCNCtZ5pxFf/gUgvpcAdaw1aKVXikcClNLDoBWbSUWaTo8BU8/i1CvgRO803PQz+RDF+Q6ALgFizWZK7wHeabg5xaQVm5mFU8q/AMT3EsBqSu+TnaL3d7pJK149AN0ETD2bHsBpybiazMIZJq3M804jzvwLQJx7ADYF4ED6O8Xvq4/RKMjZTvGrB5B6S6g2aWe4dyIubLLezBLvROJMBSAXtSwyaSedBeB8k1beiPV8QOoBxPoSAN4waeU0DnDLwMunONOkHZsjkI1E3LnxLwDxNtWkleZ81juRvPus0Vy+c7wTiTf/AuDeCcrJK0btXOWdSN5datTOXLcMdBMwGH6dsflG49AHpuyloAM5x6SdcsdLgERIRgHwk+FVk3YKuNI7lbz6Mi1N2pnEVrcc1AMw4b4LcmR3EWCz0lAcFPAlo5bGe6cSd/4FwILn/dgpRu305GLHLPLrQrOXoONeANy//pJRADy9TplRSzd5p5I33zVq5yOjtzGyo8eAJtxrYI5q+KdRSydzlncyeXEKg4xaGh/7s8c9fv8CYMG3Fo8xaykdfYDbzFryvQBQD8CEew3M2XNUGbV0AQO9k4ncyWYDn7ea9b1SLBkFwLcWbzb8JvpJMr5X9uEeswxfTMBcgO5ff/4FIAlZjDFr6TQucc4lWpcZDQAC+KtzLt5nXUKSsHiXy/tb8ynDpcJ/bLRibohKuM+srQqeds7G4rNjs76kcxK5sSgA3lmsNbwI6JXgW4F30N2srbFsds7G4qxzf5XZ+6Njswv8x9D9wbCtW+njnU4k+vBNw9b+5p2OCoANi06QfxZPs9KsrVb8IYCSZq0ZvzUa/w+wgee9E1IBsJGESwDYyp8MWzuVUd4JmbvZaAKQ7R40mowtFxZF2v0egL8PyeS8jfFOAjiUWoNMdmyVnOCdkKlTqTHcO7VBLKg21iATr1WNPuH/3ZmMSwB4l4mGrRXxaIKWDDuARwy7//A073qnhC4BjCTjJiDA/aatHcZD7o83bTTjfznEtMVfeaf0cV65UwFIyD0AgCd5x7S9z5q9Nefr+8azHr/FS94pARoHYCQ5BaCWe4xbvCcB4wIv5y7jFn/hndLH1AMwkZR7AACjjReqbMbDMX89aCh/Nj46K92HAO9gceGpApCgHgBs5SfGLRbxDMd6p5W1k3jSaPLvne6mwjutj6kHYCI5NwEBHuQj4xZLeSamMwYfwbO0NW7zPR7wTusTugdgIkmXAFDFveZt9mASR3on1mRHMI5O5q3eGcAAoB3UAzCRpEsAgPv5wLzN7rwcs/cDTmKq8aM/gEX82TuxXagAmEhaAdjC9yNo9UAmcrJ3ao02lIkRfPvD7YavXedOBcBEsi4BAP7KtAha7cQks+W0ovV5njG/9geYy6Peqe1G9wBMJOsmIECGUZFU9tY8wm2Bjw4s4Bb+1/zOP0CGb/h/X+4mEY8B/U0zeKVitncSe/mj4asvu2+PUOKdXIM68mxkef/eO7m9zDHIymZhuVibarAb3/JOYi9dKIvso7CMM7zTq9cAlkaW81o6eqe3l3kGeVmtK5U1/0uAGoM2ouhy5mYVd0bW9iFM5OYAjtyumnELU+kZWfvfZa13inuxmLsxnIeabl4w+U4MT3OTvk3D2ySO9k7xE/2YHHGuId75eM8gs2e9k/D/HrGogSHOo1vLVWyJsP1BzOUuWnunSQn3Mdt0tp891XAd7vPn18PirLPo/8bc4wZ1NNQFIq6P9HsxQ4YlXOSa4aWsiDzHG70PYwM2GOT2d+8k/P3FYDeWeyfRgALGRf7xyDDVaVHRU5mQh+yeD7L7D1BhkN3D3kn4+6PBbgy3I9WDjXn4kGR4kVPzmtcA/pmXvFZxoPchbNA2g/we9E4iGfcAWgb7LfE+1+fl9wxlGq9yuenMe/Ur4CImMYML8pBVhqsNp1u31dxkIJCeAvBLk2+KEG8D7vCrvHxXbt9W8J/0iCyTbvyAJXnM5mfeh24fik0y/Ll3Gv7uNdmR4Y6Og5YRPyTbc6tlMtcZv4zzKb7I82zNax6zgi7r7U1y/LF3Gv5+ZLIjwxsntqsuvJ/Xj06GDFuZwC2cnHNHtQ83Mo7qvMf/geE6glHobJLlf3un0cI7AKMbeOGNBdzVKi5hUp6/z1pwDudwN+t5mRnMZQ5rmvDTpfTjZAZyBl3yu6s+VslnIphXwZLN0XS/fa0CkB8zuN50AdHGO4CLuRiAD3iT5XzAclawmgq2UEMZdZTQgmI60IEu9KAXvTg6gsk8miLDVbzmGsH+2Zxx7jcB/QuAzS7wHxG3Pw/Sh2+7RtA98E71TrfzmHcI+1Vk0op7DyAZjwGhjXcajXCj/1PfWHjMfCWBKNicce49AP8CYDPJc7F3Go2Q4es85R1E8MYxkhBH/u/JpgBE+bZIo/gXAJtdEIceAGzjUl70DiJoU/gsVd5BNIrNV477GgcqAPlVwyXB397yM40L/L8TG0k9ACPpuQTYrpzhzPcOIkgzOT/Y17r2ZlMA1ANIWQ8AYC1nMt07iOC8wXA2eQfRBDZfOeoBpLAAwHrOY6J3EEGZzrms9w6iSdQDMJLGArD9QuAJ7yCCMZZzg53UpSHqARhJZwGAai7TuAAA/sjF/t+ETaYegJG03QTcqZav8j/eQTjLcBtfCmrBr8bSUwAjFSbDPuLXAwDI8B2upNI7DDe1fN3/fbgsWZxxGf9j718AbHZCPAsAwP8ykOXeQbhYw3Ae8A4iaxZ9zkr/MY/+BQA2G7QR3wIAszmJl7yDyLvJ9GecdxA5sCgA7hcAYRQAi7sANu9meVnLsFTNDZPhlwzhQ+8wcmJRANxvAYZRACzqYPivA+/bNm7mP9joHUZebOAzjGKrdxg5svjKUQ8AUA9gh7/QL9ad4saZwomM9Q7CgC4BzKgA7LCCYXzN5J5ImCq4mbNY6h2GCYs+py4BAJs6GPKswE2R4QGOZZJ3GJGYTH9+TK13GEbaGrShHgBgUwfDnhW4aZZyLjfG6sWY/SvjK5zFYu8wDHUwaEMFALC6BIjjWMCG1PIzjuQh6rwDMZHh7/ThQf9n3obamUwKqgIAQJlJK0nqAwCs5MuczCveYeRsOoO4PPApvpvO4vufEHp5IRSApsxX37CkFQCA2Qzi0yzzDiNri7iU05niHUYEbM42mzM/J8kpAHGZ8rqpxtKH78Rw0MwavkFfHktUx3+ng0xaWe2dRhgFwGY3+C5lEaUK/odeXBWjW2jLuZkj+HXsB/s0zOZsUwEArHbDwd5pRKqG0fThKhZ6B7Jf/+IqjuDHRnd2QmVTAHQJAFjthmQXAICtjKYvl/BCsE8HJjCM4xid4G/+HWzOtgAKQAhKTNZZneWdRh714i4+yPt6vfvaPuSn9PXeLXk0x2SvJWX4Ws7WGuzMcgq808irFnyGZ9jm/tGv4G8Mz3kR8nhpxhaDPafv/0+8ZnIqJvc2YMM6cDVjqHD56Fczga9Q6r0LHBxqsv9meqcRjsdNduhw7zTctOYi7mdV3j76qxjNiFR+9Le70GQvPuqdBoSwPDhgNNSlD895J+KkkrGM5XpOYCCDOCOyQVGbmMV4nuMN74SdHW3SyjLvNCBZBeAE7zScbWMmM/kZBRzNQAZyLEdRaNBuNXOZxSxm8Xawzx/y60STVpZ5pwGhFIBFJq2c7J1GIDLMZz4PAM3pyTEczVEcQw86NvoFlq28x7sfb0t4KwWP9ZpmgEkrb3unAQRy57w7KwxaydApduvL5NcBdKETXehCG6DVLlOpbmYTZWyijDLW8GEsZ+rPl45G9++7stI7lXCsM7mtcp53GpICw03O1bXeaWwXwkhAgHkmrZzmnYakgM1ZZnPG5yxZBeAs7zQkBc42aeUt7zS2C6UA2OyOU2M/PbiErtjoFuB870S2C6UAzDZppYhTvRORhDvdZDIweM07ke1CKQBzqDFp5xzvRCThbC4AakIZTBVKAajiXybtXOCdiCTchSatzKXKO5HtQikAGL0acbzRZE0i9elBP5N2ZngnskPSCkCB+gASoYuMhs4F8yZgOAXAqibadNFE6vNvRu0EUwDCUcBHJiOsKlP8mqpEqz1VJudoQHM8h9MDyDDRpJ0i/t07FUmoi03eroQJ3onsFE4BgJeM2vm8dyKSUJcbtWPzVZc4NhMtZdhKF+9UJIE6sdXoDO3pncpOIfUA3jWaIqGFWaUW2ekKo9kzloYxFch2IRUAGG/UzrWBzHMgyVHAtUYtWZ3lCfQZoy5WhiHeqUjCnGd2bl7knUq4is0muH7KOxVJmLFGZ+YWir1TCZnVbq4zGrIpAnAcdUZn5hjvVHYX1j0AGGvUTgG3eKciCfIDs7tKVmd4QnU1q7TbOMo7GUmIY8yWYKvlQO9kQjfV7GbLP7xTkYR42uycnOKdSvi+YbazMwz0TkYSYJDhGXmddzLh62w23irDjODucUjcNDdaujZDhq109k4nDp4zrLhWgzckrSx7pGldu7KJRhru8jK6eacjMXYgGwzPxpHe6cRDCVsMd/rj3ulIjD1peCZW0M47nbh40HC3Z7jSOx2JqS+anocPeqcTHyea7vgNHOydkMRQT8pMz0ObRcVTYrrprp9utJiDpEdLwxEpGTJM804oXq403fkZfuGdkMTMb4zPwP/wTiheClllfACu8E5JYsTySVSGDCuNZhNMkZuND0Elp3unJDEx0Gj2353b97xTip92rDc+CKs51DspiYEjWGt85q3XA8Bs3Gl8GDK8o2FBsh/dedf8vPuhd1Lx1IFy80PxtmYMln3oxDzzc24zHb3Tiqu7zQ9Ghjl08k5LAtWZuRGccT/yTiu+SsyfBWTIsEArCEs9uvJmBGfbGi1Vl4tRERySDO9wmHdiEpgjIrj2z5Dhm96JxVsrFkdyWNYx2Ds1CcjprI7kPFuiMai5uiySA5Ohii94pyaBGGn+3H/Hdol3akkwPqKDk+F+1efUa8E9kZ1fL3onlwxHRlafM0zTm4Kp1pMZkZ1blRzhnV5S/DCyg5ShjGu80xMnI8xHm+663e6dXnIURXQrcMf2hGZrT52uprP97L0tosg7xSQ5w2xphvq3jYyiuXeSkifNGGk+3n/3rVZPmazdG+kBy5BhFmd6Jyl5MNhwou+Gtp94J5k8RZGM09pzG8PR3olKhI4xXOWn4e0Nvf0fhf5U5+Hg1TJWs7clUj9GGy460/BWxbHeqSbVjXk4fBky1PE0Q8zWgxVvBQxlrNmys/vbbvBON7kKIr5zu/u2kFF6czD2OjGKhXk8ax7TF0eUSliQx4OZYRtTGKX3uWOplJGMpSav58sizf0TteOoyOshzZChimf4ul4ijo0eXMs/Ixw/2tC2mb7eqafBFXm7mttzm81dnEtr7x0gDShmCD9ijtPZUcdl3jsgLW53OsQ7+gOTuIPz6eC9G+RjHRjOD5mcl6dEDW//6b0bshHPGxYFjA5ioYUlzGI281nAMuq8g0mZZvTkaI7hBAYEMdvzn7naO4RsxLMAQCHjghq3V8lClrKc5SzjQ1azjs3eISVMWzrQmW705BAOoRdHBXUp9jLDqPEOIhtxLQBwABODHnBRzToq2Ugtm6hhC5uppoxKqiijms1spoaNVFFJho1ANRXeIedRMYVAewpoTRHtaUVb2lJIKUW0ppRC2tKGVrSjOe1pTYegx9bN5Ww2egeRnfgWAOjCZHp7B2FsM1vrKQhVVO72ryqpauDn6yiLOMJSmjXwN0V7fCcX7/Kh3fmBb0nbiCPMt4UMZrV3ENmKcwGAg5hML+8gJNXeYxDLvYPIXrPcm3C0gvP40DsISbEPOCfOH/+4FwB4hzNY4h2EpNRyzor72Rf3AgDLOJN53kFICr3NQN7xDiJX8S8A8BHn8IZ3EJIy8zibFd5B5C4JBQBWcw6TvYOQFHmZM/nIOwgLySgAsJ6hjPYOQlLiTwxjg3cQNpIzEWYtY9jIeTF/sCmhy3An36bWOwwrySkAADNYzHBaeochibWFkfzaOwhLyfu+PJrHOcY7CEmkRVzCm95B2ErKPYCdFnAqj3kHIQn0FKck7eOftEuA7Wp4nHLOSmRu4qOa7/LtBt/AiLHkXQLs0JeH6e8dhCTCPK5kjncQ0Ujut+Rq/kRLTkvgRY7kU4ZfMSIJQ37ql9wewHaD+QOHewchsbWYL/OKdxBRSm4PYLvl/I4tDKSFdyASO1u5l8t41zuMaCW9B7Dd4fx/hnkHIbEyketY6B1E9NJxhfwO5ye/louZxYzgnDR8/NPSA9iuJV/kTrp4hyFBW8dP+TnV3mHkS9LvAeyqjtf5PXA8rbxDkSCVcy+X8lJyRvrvX5p6ADt04Jt8kwO8w5CgbOK3/IT13mHkWxoLAEA7rucGOnuHIUFYxc/4LeXeYXhIawEAKOTTXMMQ7zDE1es8wMN7TLueImkuANudxHVcHtQqM5IflfyNXzPbOwxfKgAAxfwbIxmmmQRSopbpjOYRNnkH4k8FYKfOjODzensg0eqYyiM8ylrvQEKhArCnjlzAhQxP3AJWaVfJVJ7hMS0kszsVgPoVM4SLOFcLjyXAEiYwlgnpvdG3LyoA+9aNMxjC+RzsHYg02SomM55xLPUOJGQqAI3Tm1MYwCn0143CwNUwh5nMYEb8V+3JBxWApinieE6gL8fQV2MJA7KWt5jPW8xmDjXewcSJCkD2utKH3vSkFz3pSUfvcFJmNctYxlKWsYi3WO0dTlypAFhpy0F0pCNd6ExH2tGGEgppRzGFfIpWtPEOMGbKqWYTFVSzgWoq2MRm1rCKNaxhLSuo8A4wGVQA8qcthZRSRGtKaUUJbWhFW1rSjFKgiNZAO5rTnHZAMYW7/GwLSnZrq81+32jc3oqVTft9Q66GLbv9uZxtu/ypmoqPW6llE1BJFVBGHVvZTDUVe33gRURERERERERERERERERERERERERERERERERERERERERERERERERERERERERERERERERERERERERERERERERERERERERERERERERERERERERERERERERERERERERERERERERERERERERERERERERERERERERERERERERERERERCQ2/g9L7GA+DOK0ngAAAABJRU5ErkJggg==;imageBackground=default;imageBorder=#FFB570;" vertex="1" parent="1">
          <mxGeometry x="489" y="1034" width="26" height="26" as="geometry" />
        </mxCell>
        <mxCell id="OsdIBWx6J7-D4pMph346-29" value="" style="shape=image;verticalLabelPosition=bottom;verticalAlign=top;imageAspect=0;aspect=fixed;image=data:image/png,iVBORw0KGgoAAAANSUhEUgAAAgAAAAIACAMAAADDpiTIAAAAA3NCSVQICAjb4U/gAAAACXBIWXMAAA3lAAAN5QHm6mmvAAAAGXRFWHRTb2Z0d2FyZQB3d3cuaW5rc2NhcGUub3Jnm+48GgAAAppQTFRF////AAAAAAAAAAAAAAAAAAAAAAAAAAAAAAAAAAAAAAAAAAAAAAAAAAAAAAAAAAAAAAAAAAAAAAAAAAAAAAAAAAAAAAAAAAAAAAAAAAAAAAAAAAAAAAAAAAAAAAAAAAAAAAAAAAAAAAAAAAAAAAAAAAAAAAAAAAAAAAAAAAAAAAAAAAAAAAAAAAAAAAAAAAAAAAAAAAAAAAAAAAAAAAAAAAAAAAAAAAAAAAAAAAAAAAAAAAAAAAAAAAAAAAAAAAAAAAAAAAAAAAAAAAAAAAAAAAAAAAAAAAAAAAAAAAAAAAAAAAAAAAAAAAAAAAAAAAAAAAAAAAAAAAAAAAAAAAAAAAAAAAAAAAAAAAAAAAAAAAAAAAAAAAAAAAAAAAAAAAAAAAAAAAAAAAAAAAAAAAAAAAAAAAAAAAAAAAAAAAAAAAAAAAAAAAAAAAAAAAAAAAAAAAAAAAAAAAAAAAAAAAAAAAAAAAAAAAAAAAAAAAAAAAAAAAAAAAAAAAAAAAAAAAAAAAAAAAAAAAAAAAAAAAAAAAAAAAAAAAAAAAAAAAAAAAAAAAAAAAAAAAAAAAAAAAAAAAAAAAAAAAAAAAAAAAAAAAAAAAAAAAAAAAAAAAAAAAAAAAAAAAAAAAAAAAAAAAAAAAAAAAAAAAAAAAAAAAAAAAAAAAAAAAAAAAAAAAAAAAAAAAAAAAAAAAAAAAAAAAAAAAAAAAAAAAAAAAAAAAAAAAAAAAAAAAAAAAAAAAAAAAAAAAAAAAAAAAAAAAAAAAAAAAAAAAAAAAAAAAAAAAAAAAAAAAAAAAAAAAAAAAAAAAAAAAAAAAAAAAAAAAAAAAAAAAAAAAAAAAAAAAAAAAAAAAAAAAAAAAAAAAAAAAAAAAAAAAAAAAAAAAAAHx4VugAAAN10Uk5TAAECAwQFBgcICQoLDA0ODxAREhMUFRYXGRobHB0eHyEiIyUmJygpKissLS4vMDEyMzQ1Njc4OTo7PD0+QEFCQ0VGR0hKS0xNUFFSU1RWWFlaW1xdXl9hY2RlZmdoaWtsbm9wcXN1d3h6e3x9fn+AgYOEhYaHiIuNjo+QkZOUlpeYmZqbnJ2en6ChoqOkpaanqKmqrK2ur7Cys7S1tre6u7y9v8DBwsPExcbIycrLzM7P0NHS09TW2Nna29zd3t/g4eLj5ebn6Onq6+zt7u/w8fLz9PX29/j5+vv8/f5zlFeRAAAOSklEQVR42u3d+38U1RmA8TeSxUQuQQ2EoNTYNF5AqU1qq03UysVIy1ZjWsEt1VhABINi0gpFVIK21bZQJKgpWGu9RNZFGowiEFdrAO1qCwtkUbM7/0t/EBWBJHs5Z2bOnOf5A5j5vO+XZLM7OyOSbWV1zW2d0d54IuWQT0sl4r3RzrbmujJRW3m4o4/xmlRfR7hc1farWnsyTNS8Mj2tVYVvf0Kkm1GaW3dkQkHrH98+wBDNbqB9fN7rD7UkGKD5JVpC+e0/zOu+oLwiDOex/voYgwtOsfoc11/dxdCCVVd1LvtvTDKxoJVszH7/S9PMK3ill2a5/pINDCuYbSjJZv+VO5hUUNtROfL+a/czp+C2v3ak/TfxWV+gSzWNsH9GFPSGFVDL///g/wwY5rdAJb//bXgdMOQrwRJe/9vxt8BQfw3y978t7wcM8f4fk7GlM74n2Mj7v9aUPsPnAtV8/mNRydM/G+TzX6vqOu36D2ZiV6deIcL1P5YVO+X6PyZiW9+4TjDE9Z/W1XfytcItzMO+Wk76/gfX/1tY4utvjLQzDRtr/+r7f3z/y8oGvvzeYIRZ2FnkBAC+/2tp3Se+/88kbO2L+we0MghbaxURkR4GYWs9IiLl3P/F2jLlfAxgd2ER6WAM9tYhInwOZHF9ImVMwebKpI4h2FydNDMEm2uWNoZgc23SyRBsrlOiDMHmotLLEGyuV+IMwebiwuWAVpcQ7glidSlhBnYHAAAQAAgABAACAAGAAEAAIAAQAAgABAACAAGAAEAAIADk2+CBnV3rVtwxZ0bNdU1LVm96dd8xxm8NgExs2bRRp92ifuJtm3lKgQUAUlsjk4d6UNXomY/2s4UgAzj+5NwxIzyt9KoH4iwioADST03N5oHVobs+YhVBBLBtWpaPrJex9x9hGUEDEGuQHJq09jPWESQAe+dJjlVt5I51wQGwqVRybx5vDQQEQGa55NWMD1hJEAAcnSt5VsENKwIA4P3pkndnP8lSTAfQPVEKaTEPMTYbwMbRUlhzPmUvBgPoLnT/IvPZi7kA3p8ohbeGxZgK4Oh0BfuXUS+wGTMBZOaKks7dy2qMBLBcFFVzmN0YCGCTKGs2fwyaB2BvqToAspLlGAdgnsL9y5iDbMcwADFR2kK2YxiABrUAit9hPUYB2CaKm8t6TAKQnqYagGxnPwYBeEr5/uUa9mMOgONT1QOQZ1mQMQCe1LB/uZoFGQNgrg4ARbwXYAqA1BgdAGQ9GzIEwFYt+5eb2JAhACJ6AJTyRQEzAGQm6wEgz7EiIwDENO1fbmdFRgBYpgvAJC4LMALANF0AeDvYCACDo7QBeIwdGQDggLb9Sys7MgDATn0AFrAjAwB06QMwmx0ZAGCdPgBXsiMDAKzQB6CCHRkA4A59AIo+Z0n+BzBHHwDhRqIGAJihEUCMJfkfQI1GAC+zJP8DuE4jgD0syf8AmjQC4BayBgBYom//49iRAQBW6wNQzY4MALBJH4AGdmQAgFf1AbiVHRkAYJ8+AIvZkQEAjukDsIodGQDAmagNwBZ2ZAKA23Ttv/h/7MgEAJt1AbieFRkBIDlaE4CHWZERAJyZmgC8x4rMAPConv1PZ0OGAOjXA2A5GzIEgHOVFgBvsCFTADygY/9TeJCgMQDiIX4DWA3AuUv9/su5Z7xBAD4aqxwAT44xCYBzv+r9X8TTw4wCcGSSYgAbWY9RAJy1avf/Xf4EMAzAZ1VKAfyD7RgGwNmocv83shzjAGQUPjPm/DjLMQ6Ac0zZlwSLX2I3BgJwPqhQBOBRVmMkACd6tpL9/4rNGApAzXMDGrgrhLEAnMUK3gL8mMWYCyBd8O1Cxr3FXgwG4Hw6v8D//+zfbACOs6aQO8c28PPfeADOC+fm//qf138BAODszfOuQcX8/R8MAM7h2Xm9/8v7f0EB4KRX5v4csRvjLCQwABzn4MLi3D7/5/PfYAFwnHdyeJrkRRu5/iNwABxn+zVZXv+7huv/AgnAcZ69umjk738s5/rvwAJwnIPrbyod7vufy9/gh3+gATiOc+y52894yXDx9Q/z/W8bADiOk97+WOuC2VdWfPELYVx1w62LV23h/i/2APiyz/tjL+/h/r/2AiAAEAAIAAQAAgABgABAACAAEAAIAAQAAgABgABAACAAEAAIAAQAAgABgABAACAAEAAIAAQAAgABgABAACAAEAAIAAQAAoA3ZT7Zs33ri7Hd/YfTALCqf//17rk/umTiSY/MGTO5Zs7ix7sTAAh6x6Orflo5zLMwrpm/5s0MAALaW/f+IJtHpk762RPvASB4P/d/Oz2H52JcHNmcDCqA1C6F9Ztx/E/W1Rfl+micc5r/mQkkgF2isIUGHD/9TGMov3996vJ9ADAdwOCfLynkANc+cQQABgP49PGLCz3E+SsPAcBQAKm1F6o4SNl9nwDAQABHH6pQdZhx9/wHAKYB6LpQ5YHOWfQxAEwCcGCeKK78jwAwBkBmXZmor343AMwAsPta0VLo3gEA+B/A8dbRoquqvwPA7wD2XCY6az4CAF8D6CoTvX3nTQD4F0Dm/iLRXcl6APgVwKFGcaNbkgDwJYDd1eJO1bsA4EMAz4wTtyr5EwB8B+ChInGvolUA8BmA1eJu9wDAVwAeEbebPwgA/wDoKHIdgNycAoBfAPzBg/2LNBwGgD+O/5ezxJO+lwSAH47/9CjxqOuPA8D740eLxbN+kgaA18f/77fEw+4AgNfHv1k87V4AeHv8teJxvwOAl8f/19leAyjaCADvjn/k2+J557wNAK+O/8sm8UGXHgWAR8evFF/0cwB4dHy/9HsA2A2g9C0AWA1Aao4CwGoA8gsA2A1AXgSA3QCqjwPAagDyAADsBlDSBwCrAchMANgNQDYDwG4AlUkAWA1A2+tAABjSeUkAWA1AfgMAuwFMPAYAqwHIagDYDWByCgBWA5BHAGA3gAs/A4DVAOQ5ANgN4GYA2A0glACA1QBkDQDsBjADAHYDkDcB4BcA4y6fNX/F+ud7e59fv2L+rMtdupHkIgD4AkDlnS+dciO3wZfudOO7ZJM+B4DnAKYueu2MD37NvLZoqvaDvwoAjwHcEB3uDKI3aD58KwA8BXDZtpHOYZvep4r8EAAeAqjoyOIWroMdFRpPoTgJAK8AlN6X5TN9jtxXqu8s/gYAjwBM2Zn9ieycou00fg0AbwDUHcjlTA7U6TqPywHgCYBbcrwcJ3WLrjP5EADuAyh6MPeTeVDTXcafBoDrAEJb8pnGlpAJ7wQAIIvyfJrfei0nEwaA2wDuznced+s4m+kAcBnAzLwf4DM4U8PplKQB4CqAmkP5D+RQjYYTigPATQDn7StkIvvOU39GzwPATQBbCxvJVvVntBoALgKYVehMZik/pQgA3AMwquDbtb+t/KlTPwaAewAU/G+LqD6n7wPANQBjFbzx/uFYxSd1KQBcA7BSxVRWKj6pCwDgFoApAyqmMqD44oAyALgFYJmasSxTe1ZnAcAtAD1qxtKj+LSOAsAdAFWq5lKl9rwOAsAdAEtUzWWJ2vPaCwB3ALyuai6vqz2vXQBwBcAFGVVzyVwAAAMBtKgbTAsADASwQd1gNgDAQACvqBvMKwAwEMC76gbzLgAMBKDwzqwpAJgHoFzlZMoBYByAK1RO5goAGAdgjsrJzAGAcQAWqJzMAgAYB2ChysksBAAAAAAAAAAAAAAAAAAAAAAAAAAAAAAAAAAAAAAAAAAAAAAAAAAAAAAAAAAAAAAAAAAAAAAAAAAAAAAAAAAAAAAAAAAAAAAAAAAAAAAAAAAAAAAAAAAAAAAAAAAAAAAAAAAAAAAAAAAAAAAAAAAAAAAAAAAAAAAAAAAAAAAAAAAAAAAAAAAAAAAAAAAAAAAAAAAAAAAAAAAAAAAAAAAAAAAAAAAAAAAAAAAAAAAAAAAAAAAAAAAAAAAAAAAAAAAAAAAAAAAAAAAAAAAAAAAAAAAAAAAAAAAAAAAAAAAAAAAAAAAAAAAAAAAAAAAAAAAAAAAAAAAAAAAAAAAAAAAAAAAAAAAAAAAAAAAAAAAAAAAAAAAAAAAAAAAAAAAAAAAAAAAAAAAAAAAAAAAAAAAAAAAAAAAAAAAAAAAAAAAAAAAAAAAAAAAAAAAAAAAAAAAAAAAAAAAAAAAAAAAAAAAAAAAAAAAAAAAAAAAAAAAAAKAHQGqXwvrNO/7Q9as8s5RvAZB5AQAABAACAAGAAEAAIAAQAAgABAACAAGAAEAAIAAQAAgABAACAAGAAEAAIACQwQBSzMDmUpJgCDaXkDhDsLm49DIEm+uVKEOwuah0MgSb65Q2hmBzbdLMEGyuWeoYgs3VSRlDsLkykT6mYG99ItLBGOytQ0TCjMHewiJSnmEOtpYpFxHpYRC21iMiIq0MwtZaRUSkikHYWtUX957tZhJ21n3i5sMRRmFnkRMAJgwwCxsbmPDl/cfbGYaNtX91A/rxXBhoYYnxXz+CoIVx2FfLSc+gCPGJkHX1hU5+CgkfCFhX+JvPoYkxEbuKnfIgonpGYlf1pz6KqouZ2FTXac8iq04yFXtKVp/+NLrGNHOxpXTjmZ5HuJTB2NLSMz+RcgOTsaMNQzyStGQHs7GhHSVDPZS2cj/TCX77K4d+LHEt9wsJfKna4R5M3cSAgl7T8I8mb+JnQLD//zeN9HD6Wl4HBPn3f62MWCV/CwT39X+lZFEJ7wcE9e//EsmupbwrHMDSSyXrGvlkKHAlGyWHqvl0OGB1VUtu1XONUICK1UvuhblSNCD1hSWvQi18XyAAJVpCkm/j2/nWmOENtI+XQpoQ4bvDBtcdmSAFV9Xaw11kDCzT01oliioPd/CK0KzXfR3hclFbWV1zW2e0N57g80LflkrEe6Odbc11ZVmv9f/LPvDdaNdQNAAAAABJRU5ErkJggg==;imageBackground=default;imageBorder=#FFB570;" vertex="1" parent="1">
          <mxGeometry x="528" y="1030" width="32" height="32" as="geometry" />
        </mxCell>
        <mxCell id="OsdIBWx6J7-D4pMph346-30" value="&lt;font style=&quot;background-color: rgb(0, 0, 0);&quot; color=&quot;#ffffff&quot;&gt;LOGO&lt;/font&gt;" style="rounded=0;whiteSpace=wrap;html=1;fillColor=#000000;" vertex="1" parent="1">
          <mxGeometry x="10" y="1017" width="120" height="60" as="geometry" />
        </mxCell>
      </root>
    </mxGraphModel>
  </diagram>
</mxfile>
